<?xml version="1.0" encoding="UTF-8"?> <svg xmlns="http://www.w3.org/2000/svg" width="657" height="12" viewBox="0 0 657 12" fill="none"> <path d="M657 6L647 0.226497V11.7735L657 6ZM-281.5 7H-279.004V5H-281.5V7ZM-274.012 7H-269.02V5H-274.012V7ZM-264.028 7H-259.036V5H-264.028V7ZM-254.044 7H-249.052V5H-254.044V7ZM-244.06 7H-239.068V5H-244.06V7ZM-234.076 7H-229.084V5H-234.076V7ZM-224.092 7H-219.1V5H-224.092V7ZM-214.108 7H-209.116V5H-214.108V7ZM-204.124 7H-199.132V5H-204.124V7ZM-194.14 7H-189.148V5H-194.14V7ZM-184.156 7H-179.164V5H-184.156V7ZM-174.172 7H-169.18V5H-174.172V7ZM-164.188 7H-159.196V5H-164.188V7ZM-154.203 7H-149.211V5H-154.203V7ZM-144.219 7H-139.227V5H-144.219V7ZM-134.235 7H-129.243V5H-134.235V7ZM-124.251 7H-119.259V5H-124.251V7ZM-114.267 7H-109.275V5H-114.267V7ZM-104.283 7H-99.2913V5H-104.283V7ZM-94.2992 7H-89.3072V5H-94.2992V7ZM-84.3152 7H-79.3232V5H-84.3152V7ZM-74.3312 7H-69.3391V5H-74.3312V7ZM-64.3471 7H-59.3551V5H-64.3471V7ZM-54.3631 7H-49.3711V5H-54.3631V7ZM-44.379 7H-39.387V5H-44.379V7ZM-34.395 7H-29.403V5H-34.395V7ZM-24.4109 7H-19.4189V5H-24.4109V7ZM-14.4269 7H-9.43486V5H-14.4269V7ZM-4.44281 7H0.549238V5H-4.44281V7ZM5.54126 7H10.5333V5H5.54126V7ZM15.5253 7H20.5174V5H15.5253V7ZM25.5094 7H30.5014V5H25.5094V7ZM35.4935 7H40.4855V5H35.4935V7ZM45.4775 7H50.4696V5H45.4775V7ZM55.4616 7H60.4537V5H55.4616V7ZM65.4457 7H70.4377V5H65.4457V7ZM75.4297 7H80.4218V5H75.4297V7ZM85.4138 7H90.4059V5H85.4138V7ZM95.3979 7H100.39V5H95.3979V7ZM105.382 7H110.374V5H105.382V7ZM115.366 7H120.358V5H115.366V7ZM125.35 7H130.342V5H125.35V7ZM135.334 7H140.326V5H135.334V7ZM145.318 7H150.31V5H145.318V7ZM155.302 7H160.294V5H155.302V7ZM165.286 7H170.278V5H165.286V7ZM175.27 7H180.262V5H175.27V7ZM185.255 7H190.247V5H185.255V7ZM195.239 7H200.231V5H195.239V7ZM205.223 7H210.215V5H205.223V7ZM215.207 7H220.199V5H215.207V7ZM225.191 7H230.183V5H225.191V7ZM235.175 7H240.167V5H235.175V7ZM245.159 7H250.151V5H245.159V7ZM255.143 7H260.135V5H255.143V7ZM265.127 7H270.119V5H265.127V7ZM275.111 7H280.103V5H275.111V7ZM285.095 7H290.087V5H285.095V7ZM295.079 7H300.071V5H295.079V7ZM305.063 7H310.055V5H305.063V7ZM315.047 7H320.039V5H315.047V7ZM325.031 7H330.023V5H325.031V7ZM335.015 7H340.007V5H335.015V7ZM344.999 7H349.991V5H344.999V7ZM354.983 7H359.975V5H354.983V7ZM364.967 7H369.959V5H364.967V7ZM374.951 7H379.943V5H374.951V7ZM384.935 7H389.927V5H384.935V7ZM394.919 7H399.911V5H394.919V7ZM404.903 7H409.895V5H404.903V7ZM414.887 7H419.879V5H414.887V7ZM424.871 7H429.863V5H424.871V7ZM434.855 7H439.847V5H434.855V7ZM444.839 7H449.831V5H444.839V7ZM454.823 7H459.815V5H454.823V7ZM464.807 7H469.799V5H464.807V7ZM474.791 7H479.783V5H474.791V7ZM484.775 7H489.767V5H484.775V7ZM494.759 7H499.751V5H494.759V7ZM504.743 7H509.735V5H504.743V7ZM514.727 7H519.719V5H514.727V7ZM524.711 7H529.703V5H524.711V7ZM534.695 7H539.687V5H534.695V7ZM544.679 7H549.671V5H544.679V7ZM554.663 7H559.655V5H554.663V7ZM564.647 7H569.639V5H564.647V7ZM574.631 7H579.623V5H574.631V7ZM584.615 7H589.607V5H584.615V7ZM594.599 7H599.591V5H594.599V7ZM604.583 7H609.575V5H604.583V7ZM614.567 7H619.559V5H614.567V7ZM624.551 7H629.543V5H624.551V7ZM634.535 7H639.527V5H634.535V7ZM644.519 7H649.511V5H644.519V7Z" fill="#00BF95"></path> </svg> 