<svg width="113" height="173" viewBox="0 0 113 173" fill="none" xmlns="http://www.w3.org/2000/svg">
<path d="M74.2322 82.5184H60.7774V159.321H74.2322V82.5184Z" fill="#E9E9E9"/>
<path d="M69.2273 108.961H51.9716V157.089H69.2273V108.961Z" fill="#E9E9E9"/>
<path d="M76.7914 99.77H56.9007V158.575H76.7914V99.77Z" fill="#E9E9E9"/>
<path d="M56.4086 172.177C87.5622 172.177 112.817 169.814 112.817 166.899C112.817 163.984 87.5622 161.621 56.4086 161.621C25.255 161.621 0 163.984 0 166.899C0 169.814 25.255 172.177 56.4086 172.177Z" fill="#E9E9E9"/>
<path d="M56.4086 171.423C83.3805 171.423 105.246 169.567 105.246 167.276C105.246 164.986 83.3805 163.129 56.4086 163.129C29.4367 163.129 7.57166 164.986 7.57166 167.276C7.57166 169.567 29.4367 171.423 56.4086 171.423Z" fill="#D3D3D3"/>
<path d="M27.8787 71.819C35.803 71.819 42.2269 65.4219 42.2269 57.5306C42.2269 49.6393 35.803 43.2422 27.8787 43.2422C19.9544 43.2422 13.5305 49.6393 13.5305 57.5306C13.5305 65.4219 19.9544 71.819 27.8787 71.819Z" fill="#E9E9E9"/>
<path d="M26.0312 2.23761e-06H89.4587C92.8431 0.00200121 96.0882 1.34224 98.4806 3.72608C100.873 6.10993 102.217 9.34227 102.217 12.7125V156.403C102.217 158.073 101.887 159.726 101.245 161.268C100.604 162.811 99.6633 164.212 98.4779 165.393C97.2925 166.573 95.8852 167.509 94.3364 168.148C92.7876 168.787 91.1276 169.116 89.4511 169.116H26.0312C22.6455 169.116 19.3985 167.777 17.0045 165.393C14.6104 163.008 13.2655 159.775 13.2655 156.403V12.705C13.2655 11.0359 13.5957 9.3832 14.2374 7.84126C14.879 6.29933 15.8194 4.89841 17.0049 3.71854C18.1904 2.53868 19.5978 1.60299 21.1466 0.964947C22.6953 0.326905 24.3552 -0.000988313 26.0312 2.23761e-06Z" fill="#333333"/>
<path d="M97.5225 13.723V155.167C97.5225 156.315 97.2953 157.452 96.8538 158.513C96.4123 159.574 95.7652 160.537 94.9495 161.349C94.1338 162.16 93.1656 162.804 92.1 163.243C91.0344 163.681 89.8925 163.907 88.7394 163.906H26.743C24.4156 163.906 22.1835 162.985 20.5378 161.346C18.892 159.707 17.9675 157.485 17.9675 155.167V13.723C17.9675 11.4052 18.892 9.18246 20.5378 7.5436C22.1835 5.90473 24.4156 4.98403 26.743 4.98403H88.7394C90.5725 4.98048 92.3609 5.54768 93.8543 6.60627C95.3477 7.66487 96.4714 9.16189 97.0682 10.8879C97.3739 11.8019 97.5274 12.7596 97.5225 13.723Z" fill="#E6E7E8"/>
<path d="M54.8867 114.541L42.6737 130.745C42.6737 130.745 38.1307 154.564 37.949 154.933C37.949 155.144 37.8884 158.839 37.8127 163.906H26.743C24.4156 163.906 22.1835 162.985 20.5378 161.346C18.892 159.707 17.9675 157.485 17.9675 155.167V80.5203L54.8867 114.541Z" fill="#B7EAD1"/>
<path d="M75.6632 32.1886L97.0531 10.8879C96.4562 9.16189 95.3325 7.66487 93.8391 6.60627C92.3457 5.54768 90.5574 4.98048 88.7243 4.98403H82.0234L65.1917 21.7682L48.3372 4.98403H44.6726L43.3475 6.32616L62.0192 24.9275L44.93 41.9454L17.9675 15.0802V35.9435L34.4585 52.3657L17.9675 68.7955V84.1018L48.1858 114.194L46.3611 116.011C41.2651 121.058 37.2252 127.062 34.475 133.674C31.7249 140.286 30.3193 147.376 30.3395 154.534V163.906H45.142V154.534C45.127 149.314 46.1518 144.143 48.1573 139.321C50.1627 134.498 53.1088 130.12 56.825 126.439L58.6574 124.615L75.5497 141.444L60.0278 156.894L67.0694 163.906H73.4448L66.4031 156.894L78.7449 144.603L80.3274 146.179L97.5452 129.033V116.396L80.3274 133.542L65.0024 118.296L80.0396 103.299C83.5499 99.7972 85.5214 95.0516 85.5214 90.1037C85.5214 85.1559 83.5499 80.4103 80.0396 76.9086L76.0494 72.935L93.131 55.9096L97.5149 60.2753V53.9567L75.6632 32.1886ZM72.4907 35.3478L55.4016 52.3657L72.8769 69.7682L89.966 52.7804L72.4907 35.3478ZM69.5681 87.329L44.93 62.7936L27.0988 80.5505L54.5157 107.876L69.5529 92.9011C70.2961 92.1637 70.7151 91.1629 70.718 90.1182C70.7208 89.0735 70.3072 88.0703 69.5681 87.329Z" fill="white"/>
<path d="M75.6632 32.1886L97.0531 10.8879C96.4562 9.16189 95.3325 7.66487 93.8391 6.60627C92.3457 5.54768 90.5574 4.98048 88.7243 4.98403H82.0234L65.1917 21.7682L48.3372 4.98403H44.6726L43.3475 6.32616L62.0192 24.9275L44.93 41.9454L17.9675 15.0802V35.9435L34.4585 52.3657L17.9675 68.7955V84.1018L48.1858 114.194L46.3611 116.011C41.2651 121.058 37.2252 127.062 34.475 133.674C31.7249 140.286 30.3193 147.376 30.3395 154.534V163.906H45.142V154.534C45.127 149.314 46.1518 144.143 48.1573 139.321C50.1627 134.498 53.1088 130.12 56.825 126.439L58.6574 124.615L75.5497 141.444L60.0278 156.894L67.0694 163.906H73.4448L66.4031 156.894L78.7449 144.603L80.3274 146.179L97.5452 129.033V116.396L80.3274 133.542L65.0024 118.296L80.0396 103.299C83.5499 99.7972 85.5214 95.0516 85.5214 90.1037C85.5214 85.1559 83.5499 80.4103 80.0396 76.9086L76.0494 72.935L93.131 55.9096L97.5149 60.2753V53.9567L75.6632 32.1886ZM72.4907 35.3478L55.4016 52.3657L72.8769 69.7682L89.966 52.7804L72.4907 35.3478ZM69.5681 87.329L44.93 62.7936L27.0988 80.5505L54.5157 107.876L69.5529 92.9011C70.2961 92.1637 70.7151 91.1629 70.718 90.1182C70.7208 89.0735 70.3072 88.0703 69.5681 87.329Z" fill="white"/>
<path d="M73.5129 2.04333H41.9771C40.4968 2.04333 39.2967 3.23668 39.2967 4.70875C39.2967 6.18081 40.4968 7.37416 41.9771 7.37416H73.5129C74.9932 7.37416 76.1932 6.18081 76.1932 4.70875C76.1932 3.23668 74.9932 2.04333 73.5129 2.04333Z" fill="#333333"/>
<path d="M83.1743 56.6635V56.5504C83.1744 52.5903 82.2366 48.686 80.4372 45.1545C78.6378 41.6229 76.0274 38.5638 72.818 36.2254C69.6086 33.887 65.8907 32.3352 61.9661 31.6962C58.0415 31.0571 54.0209 31.3487 50.2307 32.5473C46.4405 33.746 42.9876 35.8178 40.1524 38.5946C37.3171 41.3714 35.1794 44.775 33.9128 48.5289C32.6462 52.2828 32.2865 56.2812 32.8628 60.1996C33.4391 64.1179 34.9352 67.8456 37.2297 71.0801C41.8105 77.5193 52.9181 87.9925 57.885 98.3525H58.0062C62.9656 87.9925 74.0807 77.5193 78.6616 71.0801C81.5426 67.0385 83.1265 62.2225 83.2046 57.2667V56.656L83.1743 56.6635Z" fill="black"/>
<path d="M58.25 39C48.7231 39 41 46.7231 41 56.25C41 70.625 58.25 80.6875 58.25 80.6875C58.25 80.6875 75.5 70.625 75.5 56.25C75.5 46.7231 67.7769 39 58.25 39ZM58.25 62C55.0744 62 52.5 59.4256 52.5 56.25C52.5 53.0742 55.0744 50.5 58.25 50.5C61.4256 50.5 64 53.0742 64 56.25C64 59.4256 61.4256 62 58.25 62Z" fill="url(#paint0_linear_138_507)"/>
<path d="M58.25 70.7241C66.1344 70.7241 72.5259 64.3326 72.5259 56.4482C72.5259 48.5638 66.1344 42.1723 58.25 42.1723C50.3657 42.1723 43.9741 48.5638 43.9741 56.4482C43.9741 64.3326 50.3657 70.7241 58.25 70.7241Z" fill="white"/>
<path d="M68.924 56.4478C68.7664 54.5536 68.507 54.1847 68.4089 54.0459C68.1836 53.7253 67.823 53.5158 67.4415 53.2959C67.4199 53.2837 67.4013 53.2663 67.3871 53.245C67.3729 53.2238 67.3634 53.1993 67.3596 53.1735C67.3557 53.1476 67.3575 53.1212 67.3648 53.0963C67.3721 53.0713 67.3847 53.0485 67.4017 53.0297C67.4723 52.9529 67.5266 52.8607 67.5609 52.7593C67.5951 52.6579 67.6084 52.5498 67.5999 52.4423C67.5834 52.2518 67.5007 52.0749 67.3682 51.9467C67.2357 51.8185 67.063 51.7482 66.8845 51.75H66.2019C66.1726 51.7502 66.1434 51.7522 66.1144 51.7561C66.0944 51.7468 66.0738 51.7395 66.0527 51.7341C65.6484 50.8186 65.0948 49.5652 63.9475 48.9534C62.2459 48.0469 59.1111 48 58.4985 48C57.886 48 54.7512 48.0469 53.0517 48.952C51.9045 49.5637 51.3509 50.8172 50.9466 51.7327L50.9431 51.7402C50.923 51.7432 50.9032 51.7485 50.8841 51.7561C50.855 51.7522 50.8258 51.7502 50.7965 51.75H50.1126C49.9341 51.7482 49.7614 51.8185 49.6289 51.9467C49.4964 52.0749 49.4137 52.2518 49.3972 52.4423C49.3894 52.5495 49.4034 52.6572 49.438 52.7581C49.4727 52.859 49.5273 52.9507 49.5981 53.0269C49.615 53.0457 49.6276 53.0685 49.6349 53.0934C49.6422 53.1184 49.644 53.1448 49.6401 53.1706C49.6363 53.1965 49.6269 53.221 49.6127 53.2422C49.5984 53.2635 49.5798 53.2809 49.5582 53.2931C49.1767 53.5144 48.8144 53.7239 48.5908 54.0431C48.4928 54.1837 48.2337 54.5508 48.0758 56.445C47.9883 57.5109 47.9751 58.6144 48.0438 59.325C48.1878 60.8016 48.4578 61.6941 48.4691 61.7311C48.5106 61.8659 48.5868 61.9853 48.6891 62.0754C48.7913 62.1656 48.9153 62.2229 49.0467 62.2406V62.25C49.0467 62.4489 49.1205 62.6397 49.2518 62.7803C49.3831 62.921 49.5612 63 49.7468 63H52.1972C52.3829 63 52.5609 62.921 52.6922 62.7803C52.8235 62.6397 52.8973 62.4489 52.8973 62.25C53.274 62.25 53.5361 62.1778 53.814 62.1009C54.2151 61.9852 54.6252 61.9082 55.0392 61.8708C56.3742 61.7344 57.7017 61.6875 58.4985 61.6875C59.2792 61.6875 60.6654 61.7344 62.0026 61.8708C62.4182 61.9082 62.8299 61.9855 63.2326 62.1019C63.4986 62.175 63.7511 62.2425 64.1007 62.2495C64.1007 62.4484 64.1744 62.6392 64.3057 62.7799C64.437 62.9205 64.6151 62.9995 64.8008 62.9995H67.2511C67.4368 62.9995 67.6149 62.9205 67.7462 62.7799C67.8775 62.6392 67.9513 62.4484 67.9513 62.2495V62.2439C68.083 62.2265 68.2074 62.1694 68.3099 62.0792C68.4125 61.989 68.489 61.8694 68.5306 61.7344C68.542 61.6973 68.8119 60.8048 68.9559 59.3283C69.0246 58.6172 69.0123 57.5156 68.924 56.4478ZM52.2121 52.3739C52.5621 51.577 52.9625 50.6752 53.6753 50.295C54.7053 49.7456 56.8402 49.4981 58.4985 49.4981C60.1569 49.4981 62.2918 49.7438 63.3218 50.295C64.0346 50.6752 64.4332 51.5775 64.785 52.3739L64.8288 52.4756C64.8544 52.5335 64.8657 52.5975 64.8616 52.6614C64.8576 52.7253 64.8383 52.7871 64.8057 52.8408C64.773 52.8944 64.7281 52.9383 64.6752 52.9681C64.6222 52.9979 64.563 53.0126 64.5032 53.0109C63.0492 52.9687 59.9863 52.8337 58.4985 52.8337C57.0108 52.8337 53.9479 52.972 52.4917 53.0142C52.4319 53.0159 52.3727 53.0011 52.3197 52.9713C52.2668 52.9416 52.2219 52.8977 52.1892 52.844C52.1566 52.7904 52.1373 52.7286 52.1333 52.6647C52.1292 52.6008 52.1405 52.5368 52.1661 52.4789C52.1814 52.4442 52.1976 52.4091 52.2121 52.3739ZM52.7341 56.1066C51.9814 56.2036 51.2239 56.2515 50.4657 56.25C50.0019 56.25 49.5237 56.1094 49.4348 55.6669C49.374 55.3692 49.3806 55.2019 49.4134 55.0336C49.441 54.8906 49.4847 54.7866 49.7035 54.75C50.2723 54.6562 50.5904 54.7739 51.5216 55.0678C52.139 55.2623 52.5844 55.5216 52.8382 55.7269C52.9655 55.8281 52.8977 56.0925 52.7341 56.1066ZM62.4209 59.9503C61.845 60.0206 60.6934 59.9948 58.5117 59.9948C56.33 59.9948 55.1787 60.0206 54.6029 59.9503C54.0087 59.8795 53.2513 59.2777 53.7685 58.7414C54.1128 58.388 54.9162 58.1236 55.9861 57.975C57.0559 57.8264 57.5088 57.75 58.5073 57.75C59.5058 57.75 59.9128 57.7969 61.0285 57.9755C62.1443 58.1541 62.9875 58.4217 63.2461 58.7419C63.7178 59.3156 63.0147 59.8758 62.4209 59.9531V59.9503ZM67.5623 55.6664C67.4747 56.1108 66.9934 56.2495 66.5314 56.2495C65.7587 56.2497 64.9867 56.2018 64.2193 56.1061C64.0854 56.0925 64.0232 55.8408 64.1589 55.7264C64.4087 55.5159 64.859 55.2619 65.4755 55.0673C66.4066 54.7734 66.9435 54.6558 67.4047 54.7537C67.5172 54.7777 67.5767 54.907 67.5837 54.9881C67.6146 55.2139 67.6073 55.4434 67.5623 55.6664Z" fill="url(#paint1_linear_138_507)"/>
<defs>
<linearGradient id="paint0_linear_138_507" x1="45" y1="43" x2="69" y2="77.5" gradientUnits="userSpaceOnUse">
<stop stop-color="#FF4883"/>
<stop offset="1" stop-color="#0F6EFF"/>
</linearGradient>
<linearGradient id="paint1_linear_138_507" x1="58.5" y1="48" x2="58.5" y2="63" gradientUnits="userSpaceOnUse">
<stop stop-color="#EA4C8E"/>
<stop offset="1" stop-color="#2A6AF1"/>
</linearGradient>
</defs>
</svg>
