<?xml version="1.0" encoding="UTF-8"?> <svg xmlns="http://www.w3.org/2000/svg" width="209" height="187" viewBox="0 0 209 187" fill="none"> <path d="M121.237 34.9999L103.5 21.9999L125.5 15.9999L121.808 22.7708C145.495 30.06 165.031 49.0077 171.921 74.7232L167.091 76.0173C160.752 52.3592 142.942 34.8354 121.237 27.8334V34.9999Z" fill="black"></path> <path d="M81.9935 153.539L100.098 166.023L78.2792 172.654L81.7753 165.779C57.8878 159.175 37.8155 140.797 30.1882 115.29L34.9786 113.858C41.9957 137.324 60.3031 154.328 82.1996 160.703L81.9935 153.539Z" fill="black"></path> <path d="M12.8247 68.7928C10.1925 72.595 9.25921 74.9341 9.10654 77.3832C9.39328 77.5417 9.6425 77.76 9.83745 78.0233C10.0324 78.2866 10.1686 78.5889 10.2367 78.9098L11.6784 85.4869C11.7491 85.8216 11.7513 86.1674 11.685 86.5035C11.6186 86.8397 11.4852 87.1592 11.2925 87.443L11.7154 88.1618L28.4287 102.847L29.1912 103.169C29.4498 102.939 29.7525 102.764 30.0806 102.655C30.4086 102.546 30.7553 102.504 31.0993 102.534L37.8072 103.117C38.1342 103.144 38.4515 103.24 38.7377 103.399C39.0239 103.559 39.2725 103.778 39.4666 104.042C41.8546 103.599 44.0542 102.372 47.5071 99.249C56.5802 91.0443 67.4026 75.1365 70.5489 71.642C87.3409 53.0009 97.5769 41.6679 99.8237 36.5954C100.238 35.5163 100.252 34.3255 99.8612 33.2406C99.5767 33.1547 99.3153 33.0061 99.0962 32.8056C97.6681 31.5509 97.7749 29.9508 95.9271 28.8185C94.706 28.0674 95.1122 26.8659 95.5439 26.1442C94.7262 25.1547 93.8707 24.2083 93.0329 23.3282C92.8646 23.3678 92.6895 23.367 92.5219 23.3258C92.3543 23.2845 92.199 23.204 92.0689 23.0909L82.6387 14.8053C82.5079 14.6911 82.4066 14.5471 82.3432 14.3853C82.2799 14.2235 82.2563 14.0487 82.2747 13.8756C81.5441 13.3438 80.7724 12.8013 79.9701 12.2742C79.3284 12.803 78.1086 13.5097 77.1489 12.3363C75.7793 10.6501 74.2391 10.9822 72.7824 9.70237C72.4202 9.40456 72.1912 8.97493 72.1453 8.50739C70.6442 8.17094 69.2975 8.21568 68.2618 8.84717C63.5248 11.7232 53.5988 23.337 37.2734 42.388C34.1811 45.9553 19.8117 58.7382 12.8247 68.7928Z" fill="url(#paint0_linear)"></path> <g style="mix-blend-mode:screen"> <path d="M59.2653 31.5764C61.4928 29.0412 64.6322 27.4911 67.9928 27.2671C71.3534 27.0432 74.6599 28.1638 77.1849 30.3823C79.7099 32.6009 81.2466 35.7357 81.4569 39.0972C81.6673 42.4587 80.534 45.7714 78.3064 48.3067L62.3482 66.4692C60.1207 69.0044 56.9813 70.5545 53.6207 70.7785C50.2601 71.0024 46.9536 69.8818 44.4286 67.6632C41.9036 65.4447 40.3669 62.3099 40.1565 58.9484C39.9462 55.5869 41.0795 52.2742 43.307 49.7389L59.2653 31.5764Z" fill="#333333"></path> </g> <path d="M24.3356 62.1625C24.2651 62.4732 24.4124 62.9584 24.7748 63.7172C25.9612 66.2506 27.405 68.6544 29.0834 70.8907C32.9648 75.959 37.8054 80.2121 43.331 83.4091C45.7649 84.7854 48.3344 85.9079 50.9992 86.7589C51.7936 87.0164 52.2984 87.1043 52.5975 86.9944C52.9864 86.6539 53.3058 86.2414 53.5381 85.7797L53.5717 85.7415L60.88 73.7756L61.7613 72.331C59.2351 71.5892 56.836 70.4719 54.6441 69.0164C50.029 65.7411 45.7665 61.9959 41.9246 57.8406C40.1974 55.8574 38.7779 53.6253 37.7134 51.2186L36.3942 52.2784L25.4681 61.0656L25.4345 61.1038C25.0039 61.3831 24.6308 61.7425 24.3356 62.1625Z" fill="black"></path> <path d="M62.3045 24.5749C62.0002 25.1036 61.7108 25.6539 61.444 26.2071C61.444 26.2071 61.6725 26.2639 62.1048 26.4151C63.7053 26.9744 68.0689 28.8435 74.0288 34.0801C77.6508 37.1692 80.7337 40.8396 83.1523 44.942C83.3704 45.337 83.4687 45.5419 83.4687 45.5419C83.9699 45.2115 84.4568 44.8686 84.9294 44.5131C87.8807 42.2422 90.5069 39.5764 92.7336 36.591C91.5436 34.1614 90.0924 31.8697 88.4056 29.7562C86.1884 26.9611 79.5525 21.1307 76.5049 19.2998C74.1935 17.9004 71.7357 16.7576 69.1749 15.8915C66.4988 18.4585 64.1869 21.3804 62.3045 24.5749Z" fill="black"></path> <path d="M73.8138 64.0763L72.1476 61.1725L63.1332 72.2576L54.2374 86.9617C54.2374 86.9617 57.2966 83.8735 61.2086 79.0275C63.6801 75.965 66.9016 71.588 69.2072 68.964C71.4005 66.487 72.9733 64.8793 73.8138 64.0763Z" fill="black"></path> <path d="M44.3238 38.1653L47.4178 39.4441L37.5931 49.8002L24.1433 60.5285C24.1433 60.5285 26.8122 57.0973 31.1145 52.5943C33.8384 49.7535 37.7597 45.9913 40.0652 43.3673C42.2532 40.8772 43.6919 39.0669 44.3238 38.1653Z" fill="black"></path> <path d="M74.7545 63.1496L73.212 59.9226L80.8207 50.7445C81.9801 49.9415 83.234 49.2851 84.5537 48.7904C87.4403 47.6171 88.5138 47.5185 88.5138 47.5185C88.5138 47.5185 77.9781 60.028 74.7545 63.1496Z" fill="black"></path> <path d="M45.1218 37.1132L48.4989 38.2426L56.6533 29.5187C57.3028 28.2676 57.794 26.9409 58.1157 25.5694C58.903 22.5516 58.8626 21.4743 58.8626 21.4743C58.8626 21.4743 47.8074 33.5189 45.1218 37.1132Z" fill="black"></path> <path d="M37.815 103.099L31.0993 102.534C30.7583 102.507 30.415 102.549 30.0902 102.658C29.7654 102.767 29.4657 102.941 29.2091 103.168C30.5519 103.744 31.9834 104.089 33.443 104.187C35.9 104.27 37.7365 104.359 39.4671 104.051C39.2765 103.782 39.0303 103.559 38.7453 103.394C38.4603 103.23 38.143 103.129 37.815 103.099Z" fill="#D2D6D5"></path> <path d="M11.6915 85.4815L10.2498 78.9044C10.1816 78.5836 10.0455 78.2813 9.85051 78.018C9.65556 77.7546 9.40634 77.5364 9.1196 77.3778C9.02707 79.1344 9.34391 80.9627 9.75991 83.3694C10.0453 84.8061 10.5725 86.183 11.3193 87.4412C11.5101 87.156 11.6414 86.8354 11.7054 86.4986C11.7693 86.1619 11.7646 85.8159 11.6915 85.4815Z" fill="#D2D6D5"></path> <path d="M95.893 28.8478C97.7414 29.989 97.6102 31.5592 99.0621 32.8349C99.2812 33.0353 99.5426 33.184 99.8271 33.2699C99.1913 31.0174 97.4506 28.5055 95.5098 26.1735C95.0918 26.8988 94.6719 28.0967 95.893 28.8478Z" fill="#93091A"></path> <path d="M77.1326 12.3643C78.0881 13.5425 79.3038 12.8406 79.9539 12.3023C77.3685 10.5981 74.5365 9.04995 72.1137 8.50493C72.1595 8.97247 72.3886 9.4021 72.7508 9.69991C74.2228 11.0102 75.763 10.6781 77.1326 12.3643Z" fill="#93091A"></path> <g style="mix-blend-mode:multiply"> <path d="M84.0175 19.6587C75.309 12.4814 69.4366 11.5902 69.4366 11.5902L69.3274 15.0938C77.2282 16.7678 83.4993 23.311 83.4993 23.311C83.4993 23.311 90.816 28.6641 93.4716 36.3078L96.932 35.7487C96.932 35.7487 95.2807 30.063 87.0546 22.3271C86.6119 21.9382 85.5571 20.969 85.5571 20.969C84.9858 20.4671 84.477 20.0285 84.0175 19.6587Z" fill="#C2C2C2"></path> </g> <path d="M22.4543 53.0905C22.3972 53.7602 24.3875 57.0249 24.3875 57.0249C24.4568 57.1519 24.5599 57.2572 24.6854 57.3291C23.9211 58.4869 24.9357 59.8188 24.9357 59.8188C25.4542 59.4782 26.707 57.8603 27.9971 56.3344C28.9504 55.2495 27.3752 55.5254 26.0604 56.225L23.2606 52.1728C23.1439 52.2181 23.0329 52.2769 22.9297 52.3478C22.7991 52.4272 22.6883 52.5354 22.6059 52.6642C22.5235 52.7929 22.4716 52.9388 22.4543 53.0905Z" fill="#595959"></path> <path d="M54.7589 86.1664C54.7589 86.1664 56.2774 87.0687 57.3422 86.1833C57.4173 86.2542 57.5047 86.3109 57.6001 86.3506C57.6001 86.3506 61.0937 87.9042 61.7506 87.7614C61.91 87.7197 62.0573 87.6406 62.1803 87.5307C62.3033 87.4208 62.3984 87.2832 62.4578 87.1293C62.4992 87.0372 62.5324 86.9417 62.5569 86.8437L58.2616 84.6281C58.7539 83.2229 58.7933 81.6228 57.8204 82.6821C56.4933 84.1924 55.0394 85.6168 54.7589 86.1664Z" fill="#595959"></path> <path d="M82.6176 14.8291L92.0383 23.1064C92.1684 23.2195 92.3237 23.3 92.4913 23.3412C92.6589 23.3825 92.834 23.3833 93.0023 23.3436C90.2813 20.4786 87.8206 18.3927 87.8206 18.3927C87.8206 18.3927 85.4401 16.225 82.2536 13.8994C82.2353 14.0725 82.2588 14.2473 82.3221 14.4091C82.3855 14.5709 82.4868 14.715 82.6176 14.8291Z" fill="#595959"></path> <path d="M195.119 100.453L195.709 99.7409C192.091 94.1768 184.727 88.0653 178.586 85.5306L177.995 86.2427L195.119 100.453Z" fill="#595959"></path> <path d="M195.182 119.044C197.694 115.183 198.555 112.826 198.634 110.379C198.343 110.228 198.088 110.017 197.885 109.759C197.683 109.502 197.538 109.204 197.46 108.886L195.817 102.4C195.737 102.068 195.724 101.723 195.78 101.386C195.836 101.049 195.96 100.727 196.143 100.439L195.7 99.7327L178.581 85.5265L177.81 85.2246C177.561 85.4583 177.267 85.6392 176.946 85.7564C176.626 85.8737 176.284 85.9248 175.943 85.9068L169.231 85.5003C168.903 85.4825 168.584 85.3949 168.293 85.2434C168.003 85.0918 167.748 84.8798 167.547 84.6216C165.177 85.1255 163.018 86.4064 159.666 89.6121C150.858 98.0328 140.536 114.183 137.501 117.75C121.303 136.782 112.706 146.815 110.616 151.933C110.235 153.02 110.258 154.208 110.68 155.28C110.967 155.358 111.232 155.5 111.457 155.694C112.92 156.908 112.861 158.507 114.74 159.588C115.981 160.305 115.612 161.514 115.203 162.245C116.049 163.211 116.931 164.133 117.794 164.989C117.961 164.945 118.135 164.941 118.304 164.978C118.472 165.014 118.63 165.091 118.763 165.2L128.415 173.21C128.549 173.32 128.654 173.461 128.722 173.621C128.791 173.781 128.819 173.954 128.806 174.127C129.551 174.639 130.338 175.16 131.155 175.664C131.779 175.12 132.975 174.383 133.968 175.529C135.386 177.175 136.913 176.803 138.406 178.042C138.776 178.329 139.018 178.752 139.078 179.217C140.586 179.513 141.929 179.433 142.943 178.777C147.584 175.784 155.864 165.48 171.584 146.051C174.579 142.393 188.554 129.274 195.182 119.044Z" fill="url(#paint1_linear)"></path> <g style="mix-blend-mode:screen"> <path d="M149.965 157.414C147.818 160.001 144.732 161.629 141.384 161.94C138.037 162.251 134.703 161.22 132.116 159.073C129.529 156.926 127.901 153.84 127.59 150.492C127.279 147.145 128.31 143.811 130.457 141.224L145.837 122.691C147.984 120.104 151.07 118.476 154.417 118.165C157.765 117.854 161.099 118.885 163.686 121.032C166.273 123.179 167.901 126.265 168.212 129.613C168.523 132.96 167.492 136.294 165.345 138.881L149.965 157.414Z" fill="#333333"></path> </g> <path d="M183.917 125.979C183.978 125.667 183.817 125.187 183.432 124.439C182.172 121.943 180.658 119.584 178.916 117.397C174.889 112.443 169.93 108.328 164.319 105.283C161.848 103.974 159.25 102.922 156.564 102.143C155.764 101.906 155.257 101.832 154.962 101.949C154.584 102.299 154.278 102.719 154.06 103.186L154.028 103.225L147.094 115.351L146.258 116.815C148.799 117.492 151.225 118.547 153.453 119.944C158.158 123.091 162.525 126.715 166.485 130.759C168.268 132.692 169.752 134.881 170.887 137.254L172.172 136.162L182.812 127.112L182.844 127.073C183.27 126.781 183.634 126.409 183.917 125.979Z" fill="black"></path> <path d="M148.432 162.923C148.72 162.388 148.992 161.831 149.242 161.273C149.242 161.273 149.012 161.222 148.576 161.082C146.962 160.566 142.55 158.816 136.444 153.749C132.739 150.761 129.555 147.181 127.02 143.153C126.79 142.764 126.686 142.563 126.686 142.563C126.196 142.905 125.72 143.26 125.259 143.627C122.382 145.969 119.841 148.697 117.709 151.733C118.97 154.125 120.487 156.373 122.234 158.437C124.532 161.167 131.33 166.809 134.427 168.555C136.785 169.891 139.281 170.966 141.872 171.76C144.453 169.129 146.66 166.155 148.432 162.923Z" fill="black"></path> <path d="M153.861 157.92L161.765 148.971L171.112 138.354L183.958 127.573L176.933 136.037C176.294 136.807 171.12 142.259 169.523 144.183C168.246 145.722 166.088 148.708 165.169 150.009C162.585 153.679 151.898 166.001 151.898 166.001C151.898 166.001 151.825 164.928 152.52 161.897C152.8 160.521 153.25 159.185 153.861 157.92Z" fill="black"></path> <path d="M153.861 157.92L161.765 148.971L171.112 138.354L183.958 127.573L176.933 136.037C176.294 136.807 171.12 142.259 169.523 144.183C168.246 145.722 166.088 148.708 165.169 150.009C162.585 153.679 151.898 166.001 151.898 166.001C151.898 166.001 151.825 164.928 152.52 161.897C152.8 160.521 153.25 159.185 153.861 157.92Z" fill="black"></path> <path d="M128.919 137.222L136.257 127.803L144.969 116.659L153.198 102.046L146.173 110.511C145.534 111.28 141.13 117.371 139.533 119.295C138.256 120.834 135.718 123.505 134.609 124.648C131.479 127.865 121.338 140.64 121.338 140.64C121.338 140.64 122.407 140.514 125.257 139.272C126.558 138.744 127.789 138.055 128.919 137.222Z" fill="black"></path> <path d="M128.919 137.222L136.257 127.803L144.969 116.659L153.198 102.046L146.173 110.511C145.534 111.28 141.13 117.371 139.533 119.295C138.256 120.834 135.718 123.505 134.609 124.648C131.479 127.865 121.338 140.64 121.338 140.64C121.338 140.64 122.407 140.514 125.257 139.272C126.558 138.744 127.789 138.055 128.919 137.222Z" fill="black"></path> <path d="M169.231 85.5002L175.943 85.9068C176.284 85.9248 176.626 85.8736 176.947 85.7564C177.267 85.6392 177.561 85.4583 177.811 85.2246C176.453 84.685 175.014 84.379 173.554 84.3196C171.099 84.3003 169.264 84.2594 167.546 84.6127C167.747 84.8726 168.001 85.0864 168.292 85.2395C168.583 85.3926 168.903 85.4815 169.231 85.5002Z" fill="#D2D6D5"></path> <path d="M195.817 102.4L197.454 108.922C197.532 109.24 197.677 109.538 197.88 109.796C198.082 110.053 198.337 110.265 198.628 110.415C198.668 108.661 198.296 106.846 197.809 104.456C197.481 103.03 196.913 101.671 196.13 100.435C195.948 100.725 195.826 101.048 195.773 101.386C195.719 101.723 195.734 102.068 195.817 102.4Z" fill="#D2D6D5"></path> <path d="M114.78 159.539C112.901 158.449 112.985 156.88 111.497 155.645C111.272 155.451 111.007 155.31 110.721 155.231C111.423 157.461 113.236 159.921 115.243 162.197C115.639 161.462 116.017 160.252 114.78 159.539Z" fill="#93091A"></path> <path d="M134.001 175.49C133.012 174.34 131.82 175.071 131.187 175.625C133.819 177.258 136.692 178.728 139.126 179.208C139.066 178.743 138.825 178.32 138.454 178.033C136.962 176.745 135.445 177.133 134.001 175.49Z" fill="#93091A"></path> <g style="mix-blend-mode:multiply"> <path d="M126.905 168.399C135.813 175.33 141.701 176.066 141.701 176.066L141.708 172.563C133.773 171.1 127.317 164.738 127.317 164.738C127.317 164.738 119.853 159.59 116.972 152.035L113.535 152.683C113.535 152.683 115.355 158.311 123.798 165.812C124.251 166.189 125.333 167.128 125.333 167.128C125.935 167.594 126.447 168.019 126.905 168.399Z" fill="#C2C2C2"></path> </g> <path d="M186.073 134.982C186.11 134.313 184.025 131.109 184.025 131.109C183.952 130.984 183.846 130.881 183.719 130.813C184.447 129.638 183.394 128.336 183.394 128.336C182.887 128.689 181.685 130.336 180.443 131.892C179.525 132.999 181.089 132.682 182.38 131.95L185.296 135.919C185.411 135.87 185.52 135.809 185.621 135.735C185.749 135.653 185.856 135.542 185.935 135.411C186.013 135.281 186.061 135.134 186.073 134.982Z" fill="#595959"></path> <path d="M152.81 102.816C152.81 102.816 151.268 101.955 150.232 102.866C150.155 102.798 150.066 102.743 149.969 102.706C149.969 102.706 146.436 101.248 145.784 101.408C145.626 101.453 145.482 101.536 145.362 101.649C145.243 101.762 145.152 101.902 145.097 102.057C145.059 102.149 145.029 102.246 145.007 102.344L149.361 104.442C148.912 105.856 148.921 107.453 149.86 106.371C151.165 104.868 152.562 103.383 152.81 102.816Z" fill="#595959"></path> <path d="M128.455 173.161L118.804 165.151C118.67 165.042 118.513 164.966 118.344 164.929C118.176 164.892 118.001 164.896 117.834 164.94C120.636 167.726 123.155 169.742 123.155 169.742C123.155 169.742 125.596 171.842 128.847 174.079C128.86 173.906 128.831 173.732 128.763 173.572C128.695 173.412 128.589 173.271 128.455 173.161Z" fill="#595959"></path> <defs> <linearGradient id="paint0_linear" x1="40.4388" y1="23.4535" x2="88.6411" y2="139.895" gradientUnits="userSpaceOnUse"> <stop stop-color="#FF7C28"></stop> <stop offset="1" stop-color="#F7CD21"></stop> </linearGradient> <linearGradient id="paint1_linear" x1="123.414" y1="115.333" x2="176.129" y2="142.707" gradientUnits="userSpaceOnUse"> <stop stop-color="#00BF95"></stop> <stop offset="1" stop-color="#3CFDBA"></stop> </linearGradient> </defs> </svg> 