<?xml version="1.0" encoding="UTF-8"?> <svg xmlns="http://www.w3.org/2000/svg" width="178" height="200" viewBox="0 0 178 200" fill="none"> <g clip-path="url(#clip0)"> <path opacity="0.72" d="M89.0001 21.9922C71.3975 21.9922 54.1903 27.2122 39.5543 36.9921C24.9184 46.7719 13.511 60.6724 6.77476 76.9358C0.0385642 93.1991 -1.72394 111.095 1.71015 128.36C5.14423 145.625 13.6207 161.484 26.0676 173.931C38.5144 186.379 54.3727 194.856 71.637 198.29C88.9013 201.724 106.796 199.961 123.059 193.225C139.321 186.489 153.221 175.081 163.001 160.444C172.78 145.807 178 128.599 178 110.996C178 87.3908 168.623 64.7523 151.932 48.0608C135.242 31.3694 112.604 21.9922 89.0001 21.9922ZM89.0001 174.231C76.4874 174.231 64.2556 170.521 53.8517 163.569C43.4477 156.617 35.3388 146.736 30.5504 135.175C25.762 123.614 24.5091 110.893 26.9502 98.6201C29.3914 86.3473 35.4168 75.074 44.2646 66.2257C53.1125 57.3775 64.3853 51.3518 76.6576 48.9106C88.9299 46.4694 101.65 47.7223 113.211 52.5109C124.771 57.2995 134.652 65.4088 141.603 75.8132C148.555 86.2176 152.265 98.4498 152.265 110.963C152.268 119.273 150.634 127.503 147.455 135.181C144.277 142.859 139.617 149.836 133.742 155.713C127.867 161.59 120.892 166.253 113.215 169.433C105.538 172.614 97.3099 174.251 89.0001 174.251V174.231Z" fill="#E9E9E9"></path> <path d="M137.308 54.5295C138.635 50.2729 137.089 46.0045 133.854 44.9956C130.619 43.9868 126.921 46.6196 125.593 50.8762C124.266 55.1328 125.812 59.4012 129.047 60.4101C132.282 61.4189 135.98 58.7861 137.308 54.5295Z" fill="url(#paint0_linear)"></path> <path d="M138.612 54.9408C139.939 50.6842 138.393 46.4158 135.158 45.407C131.923 44.3981 128.225 47.031 126.897 51.2875C125.57 55.5441 127.116 59.8126 130.351 60.8214C133.586 61.8302 137.284 59.1974 138.612 54.9408Z" fill="url(#paint1_linear)"></path> <path d="M138.612 54.9408C139.939 50.6842 138.393 46.4158 135.158 45.407C131.923 44.3981 128.225 47.031 126.897 51.2875C125.57 55.5441 127.116 59.8126 130.351 60.8214C133.586 61.8302 137.284 59.1974 138.612 54.9408Z" fill="url(#paint2_linear)"></path> <path d="M166.05 66.6145C169.872 62.3812 170.209 56.456 166.803 53.3801C163.396 50.3041 157.536 51.2423 153.714 55.4756C149.892 59.7088 149.555 65.6341 152.961 68.71C156.368 71.7859 162.228 70.8477 166.05 66.6145Z" fill="url(#paint3_linear)"></path> <path d="M164.658 65.3598C168.48 61.1266 168.818 55.2013 165.411 52.1254C162.005 49.0495 156.145 49.9877 152.323 54.2209C148.5 58.4541 148.163 64.3794 151.57 67.4553C154.976 70.5313 160.836 69.5931 164.658 65.3598Z" fill="url(#paint4_linear)"></path> <path d="M38.2227 48.3212C38.2227 47.7676 38.2227 47.2184 38.2227 46.6736" stroke="black" stroke-width="2" stroke-linecap="round" stroke-linejoin="round"></path> <path d="M38.5654 43.4112C41.6298 23.0665 64.5042 13.0358 74.9364 27.8248C87.3852 45.474 46.5263 54.7006 62.5601 20.6016C82.1394 -21.0499 169.881 5.16683 140.772 74.7553" stroke="black" stroke-width="2" stroke-linecap="round" stroke-linejoin="round" stroke-dasharray="4.97 4.97"></path> <path d="M40.5294 59.9268L42.9414 48.3145L38.3678 52.5521L32.2324 52.0644C32.2324 52.0644 40.2394 59.1623 40.5294 59.9268Z" fill="black"></path> <path d="M114.535 76.1855L155.314 85.3458C156.009 85.5021 156.615 85.9284 156.996 86.5309C157.378 87.1335 157.504 87.8629 157.348 88.5587L148.628 127.378C148.472 128.074 148.046 128.679 147.443 129.06C146.841 129.442 146.111 129.568 145.416 129.412L95.5967 118.221L103.462 83.202C104.001 80.8042 105.47 78.7186 107.546 77.4039C109.622 76.0893 112.136 75.6533 114.534 76.1919L114.535 76.1855Z" fill="url(#paint5_linear)"></path> <path d="M129.601 92.5589C135.822 92.2732 140.634 86.9983 140.348 80.7772C140.062 74.556 134.788 69.7444 128.567 70.0302C122.346 70.316 117.534 75.5909 117.82 81.812C118.106 88.0331 123.381 92.8447 129.601 92.5589Z" fill="url(#paint6_linear)"></path> <path d="M129.601 92.5589C135.822 92.2732 140.634 86.9983 140.348 80.7772C140.062 74.556 134.788 69.7444 128.567 70.0302C122.346 70.316 117.534 75.5909 117.82 81.812C118.106 88.0331 123.381 92.8447 129.601 92.5589Z" fill="url(#paint7_linear)"></path> <path d="M127.992 92.3366C134.285 92.0475 139.153 86.711 138.864 80.4171C138.575 74.1233 133.238 69.2554 126.945 69.5445C120.651 69.8336 115.783 75.1702 116.073 81.464C116.362 87.7579 121.698 92.6257 127.992 92.3366Z" fill="url(#paint8_linear)"></path> <path d="M154.295 101.345C157.026 95.7482 154.704 88.9966 149.108 86.2646C143.512 83.5326 136.761 85.8547 134.029 91.4512C131.297 97.0477 133.619 103.799 139.215 106.531C144.811 109.263 151.563 106.941 154.295 101.345Z" fill="url(#paint9_linear)"></path> <path d="M154.295 101.345C157.026 95.7482 154.704 88.9966 149.108 86.2646C143.512 83.5326 136.761 85.8547 134.029 91.4512C131.297 97.0477 133.619 103.799 139.215 106.531C144.811 109.263 151.563 106.941 154.295 101.345Z" fill="#FF7C28" fill-opacity="0.6"></path> <path d="M142.598 98.9422L142.94 98.237C142.562 98.0509 142.243 97.7634 142.018 97.4066L142.413 97.0178C142.618 97.361 142.918 97.6378 143.276 97.8152C143.371 97.8778 143.477 97.9202 143.589 97.9398C143.7 97.9594 143.815 97.9558 143.925 97.9292C144.035 97.9026 144.138 97.8536 144.228 97.7852C144.319 97.7168 144.394 97.6306 144.449 97.5319C144.641 97.143 144.449 96.774 144.067 96.3126C143.487 95.6536 143.204 95.1461 143.5 94.5332C143.644 94.2492 143.889 94.029 144.186 93.9157C144.483 93.8024 144.812 93.804 145.108 93.9203L145.458 93.2085L145.893 93.4194L145.563 94.0785C145.878 94.2287 146.15 94.4553 146.354 94.7375L145.952 95.1132C145.762 94.8283 145.497 94.6005 145.188 94.4541C145.105 94.3953 145.011 94.3548 144.912 94.3351C144.813 94.3155 144.71 94.3173 144.612 94.3404C144.513 94.3635 144.421 94.4073 144.34 94.469C144.26 94.5306 144.194 94.6087 144.146 94.698C143.968 95.0604 144.146 95.357 144.627 95.9238C145.108 96.4906 145.392 97.1167 145.089 97.7362C144.938 98.0359 144.681 98.2692 144.368 98.3909C144.056 98.5126 143.709 98.5141 143.395 98.3952L143.039 99.1267L142.598 98.9422Z" fill="url(#paint10_linear)"></path> <path d="M103.71 82.1038L162.023 95.203C162.775 95.3719 163.429 95.8327 163.842 96.484C164.254 97.1352 164.391 97.9236 164.222 98.6757L155.596 137.077C155.427 137.829 154.967 138.483 154.315 138.896C153.664 139.308 152.876 139.445 152.124 139.276L103.578 128.371C100.989 127.789 98.7377 126.203 97.3184 123.961C95.8991 121.719 95.4284 119.006 96.0099 116.417L103.717 82.1052L103.71 82.1038Z" fill="url(#paint11_linear)"></path> <path d="M163.39 122.839L154.625 120.862C154.1 120.744 153.604 120.525 153.165 120.215C152.725 119.906 152.351 119.513 152.063 119.059C151.776 118.605 151.58 118.098 151.488 117.569C151.396 117.039 151.41 116.496 151.527 115.972C151.645 115.447 151.865 114.951 152.174 114.512C152.484 114.072 152.877 113.698 153.331 113.41C153.785 113.123 154.291 112.927 154.821 112.835C155.35 112.743 155.893 112.757 156.417 112.874L165.182 114.852C165.707 114.969 166.203 115.189 166.642 115.498C167.082 115.808 167.456 116.201 167.744 116.655C168.031 117.109 168.227 117.615 168.319 118.145C168.411 118.675 168.397 119.217 168.28 119.742C168.162 120.266 167.942 120.762 167.633 121.202C167.323 121.641 166.93 122.016 166.476 122.303C166.022 122.591 165.516 122.786 164.986 122.878C164.457 122.97 163.914 122.957 163.39 122.839Z" fill="url(#paint12_linear)"></path> <path d="M166.223 119.292C166.401 118.5 165.903 117.714 165.111 117.536C164.319 117.358 163.533 117.856 163.355 118.648C163.178 119.44 163.675 120.226 164.467 120.404C165.259 120.582 166.045 120.084 166.223 119.292Z" fill="white"></path> <path d="M76.1761 50.7598L29.1475 66.159C23.921 67.8704 21.0714 73.4948 22.7827 78.7215L57.8166 185.723C59.5279 190.95 65.1521 193.799 70.3785 192.088L117.407 176.689C122.634 174.977 125.483 169.353 123.772 164.126L88.738 57.1248C87.0267 51.8981 81.4026 49.0484 76.1761 50.7598Z" fill="#333333"></path> <path d="M85.5072 59.0107L119.994 164.333C120.273 165.188 120.382 166.09 120.313 166.987C120.245 167.884 120 168.758 119.593 169.561C119.186 170.363 118.625 171.078 117.941 171.663C117.258 172.248 116.466 172.693 115.611 172.973L69.6447 188.025C68.7901 188.305 67.8887 188.414 66.992 188.346C66.0952 188.278 65.2207 188.033 64.4184 187.627C63.6161 187.221 62.9018 186.66 62.3161 185.978C61.7304 185.295 61.2849 184.504 61.005 183.649L26.5188 78.3273C26.2387 77.4727 26.1297 76.5712 26.198 75.6744C26.2664 74.7777 26.5107 73.9031 26.917 73.1008C27.3234 72.2985 27.8838 71.5841 28.5663 70.9983C29.2488 70.4126 30.0399 69.9671 30.8946 69.6873L76.861 54.6347C78.2185 54.1901 79.681 54.1804 81.0443 54.6069C82.4076 55.0334 83.6038 55.8748 84.466 57.0138C84.9198 57.6182 85.2715 58.2927 85.5072 59.0107Z" fill="white"></path> <path d="M64.8514 56.1461L41.4655 63.8036C40.369 64.1627 39.7712 65.3427 40.1302 66.4392C40.4892 67.5357 41.6692 68.1336 42.7656 67.7745L66.1516 60.117C67.2481 59.7579 67.8459 58.5779 67.4869 57.4814C67.1278 56.3849 65.9479 55.787 64.8514 56.1461Z" fill="#333333"></path> <path d="M92.7829 96.53C92.4115 96.6481 92.1022 96.9088 91.923 97.2548C91.7438 97.6009 91.7094 98.0039 91.8273 98.3754L93.8044 104.617C94.0113 105.272 93.9499 105.983 93.6337 106.593C93.3174 107.203 92.7721 107.663 92.1173 107.872C91.9217 107.92 91.738 108.008 91.5777 108.13C91.4174 108.252 91.2838 108.405 91.1853 108.581C91.0868 108.757 91.0255 108.951 91.0051 109.151C90.9847 109.351 91.0057 109.554 91.0668 109.746C91.1279 109.937 91.2278 110.115 91.3603 110.266C91.4927 110.418 91.655 110.541 91.8369 110.627C92.0188 110.714 92.2166 110.762 92.4178 110.769C92.6191 110.775 92.8196 110.741 93.007 110.667C94.4033 110.22 95.5657 109.238 96.239 107.936C96.9123 106.634 97.0416 105.118 96.5986 103.72L94.6215 97.4791C94.5021 97.1104 94.2419 96.8039 93.8975 96.6261C93.5532 96.4484 93.1526 96.4139 92.7829 96.53Z" fill="url(#paint13_linear)"></path> <path d="M85.0133 98.9881C84.6419 99.1062 84.3326 99.3669 84.1534 99.7129C83.9742 100.059 83.9398 100.462 84.0577 100.834L86.0348 107.075C86.481 108.471 87.463 109.634 88.7651 110.307C90.0673 110.98 91.5834 111.11 92.9808 110.667C93.1764 110.619 93.36 110.531 93.5203 110.409C93.6807 110.287 93.8142 110.134 93.9127 109.958C94.0112 109.782 94.0726 109.588 94.093 109.388C94.1134 109.188 94.0923 108.985 94.0312 108.793C93.9701 108.601 93.8703 108.424 93.7378 108.272C93.6053 108.121 93.4431 107.998 93.2611 107.912C93.0792 107.825 92.8815 107.777 92.6802 107.77C92.4789 107.764 92.2784 107.798 92.0911 107.872C91.4357 108.079 90.7249 108.018 90.1146 107.702C89.5044 107.385 89.0444 106.84 88.8356 106.185L86.8585 99.9437C86.7405 99.5724 86.4798 99.263 86.1338 99.0838C85.7877 98.9046 85.3847 98.8702 85.0133 98.9881Z" fill="url(#paint14_linear)"></path> <path d="M94.6279 97.4857C94.5396 97.2072 94.3706 96.9611 94.1423 96.7787C93.914 96.5963 93.6367 96.4858 93.3456 96.4611C93.0544 96.4364 92.7625 96.4987 92.5068 96.6401C92.251 96.7814 92.043 96.9955 91.909 97.2551C91.775 97.5148 91.7211 97.8084 91.7541 98.0987C91.7871 98.3891 91.9055 98.6631 92.0943 98.8861C92.2831 99.1091 92.5339 99.271 92.8148 99.3514C93.0957 99.4318 93.3942 99.427 93.6724 99.3376C94.0442 99.2181 94.3536 98.9562 94.5327 98.6091C94.7118 98.2619 94.746 97.858 94.6279 97.4857Z" fill="#FDC000"></path> <path d="M93.9624 108.802C93.874 108.523 93.705 108.277 93.4767 108.095C93.2484 107.912 92.9712 107.802 92.68 107.777C92.3889 107.752 92.0969 107.815 91.8412 107.956C91.5855 108.097 91.3775 108.311 91.2435 108.571C91.1095 108.831 91.0556 109.124 91.0885 109.415C91.1215 109.705 91.2399 109.979 91.4288 110.202C91.6176 110.425 91.8683 110.587 92.1492 110.667C92.4302 110.748 92.7286 110.743 93.0068 110.654C93.3787 110.534 93.688 110.272 93.8671 109.925C94.0462 109.578 94.0805 109.174 93.9624 108.802Z" fill="#50FFAA"></path> <path d="M48.8396 124.322L46.1311 125.179C46.122 125.182 46.1124 125.183 46.1028 125.183C46.0932 125.182 46.0839 125.179 46.0753 125.175C46.0667 125.171 46.0591 125.165 46.0528 125.158C46.0466 125.15 46.0418 125.142 46.0388 125.133L43.271 116.321C43.2679 116.312 43.2666 116.303 43.2673 116.293C43.2679 116.283 43.2705 116.274 43.2747 116.266C43.279 116.257 43.285 116.249 43.2923 116.243C43.2995 116.237 43.308 116.232 43.3171 116.229L45.9861 115.379C45.9952 115.376 46.0048 115.375 46.0144 115.375C46.0239 115.376 46.0333 115.378 46.0419 115.383C46.0504 115.387 46.0581 115.393 46.0644 115.4C46.0706 115.407 46.0754 115.416 46.0784 115.425L48.8792 124.23C48.8834 124.238 48.8858 124.248 48.886 124.257C48.8863 124.267 48.8845 124.276 48.8807 124.285C48.877 124.294 48.8713 124.302 48.8642 124.308C48.8572 124.315 48.8488 124.319 48.8396 124.322Z" fill="black"></path> <path d="M52.0623 109.79L46.7507 111.477C46.7327 111.483 46.7159 111.491 46.7014 111.503C46.6869 111.515 46.675 111.53 46.6664 111.547C46.6578 111.563 46.6526 111.581 46.6512 111.6C46.6499 111.619 46.6523 111.638 46.6584 111.655L50.4741 123.65C50.4793 123.668 50.4881 123.685 50.5 123.699C50.5119 123.714 50.5266 123.725 50.5433 123.734C50.5599 123.743 50.5781 123.748 50.5968 123.749C50.6155 123.751 50.6343 123.748 50.652 123.742L53.1958 122.931C53.2138 122.926 53.2306 122.917 53.2451 122.906C53.2595 122.894 53.2715 122.879 53.2801 122.862C53.2887 122.846 53.2939 122.827 53.2952 122.809C53.2966 122.79 53.2942 122.771 53.2881 122.754L51.9701 118.516L54.6061 117.679C55.1369 117.533 55.6316 117.278 56.0594 116.932C56.4871 116.585 56.8386 116.154 57.0917 115.665C57.3448 115.176 57.4941 114.64 57.5302 114.091C57.5663 113.541 57.4884 112.99 57.3015 112.472C57.1486 111.946 56.8901 111.456 56.5419 111.033C56.1936 110.609 55.7629 110.261 55.2758 110.01C54.7888 109.758 54.2556 109.609 53.7088 109.57C53.162 109.531 52.613 109.604 52.0953 109.784L52.0623 109.79ZM53.5187 115.24L51.1199 115.992L50.2171 113.158L52.5632 112.413C52.9398 112.293 53.3486 112.328 53.6996 112.51C54.0506 112.692 54.315 113.005 54.4348 113.382C54.5545 113.759 54.5197 114.167 54.338 114.518C54.1563 114.869 53.8427 115.134 53.466 115.254" fill="black"></path> <path d="M72.3796 111.477C72.2592 111.078 72.3002 110.647 72.4936 110.278C72.687 109.908 73.0175 109.629 73.4142 109.5L75.1079 108.96C75.1259 108.955 75.1426 108.946 75.1571 108.934C75.1716 108.922 75.1835 108.907 75.1922 108.891C75.2008 108.874 75.2059 108.856 75.2073 108.837C75.2087 108.818 75.2063 108.8 75.2002 108.782L74.4687 106.462C74.4634 106.444 74.4546 106.427 74.4427 106.413C74.4308 106.398 74.4161 106.386 74.3995 106.378C74.3828 106.369 74.3646 106.364 74.3459 106.363C74.3272 106.361 74.3084 106.364 74.2907 106.37L72.9727 106.791C72.489 106.946 72.0749 107.266 71.8027 107.695C71.5305 108.123 71.4175 108.634 71.4833 109.138L70.9825 107.576C70.9772 107.558 70.9684 107.541 70.9565 107.527C70.9446 107.512 70.9299 107.5 70.9133 107.492C70.8966 107.483 70.8784 107.478 70.8597 107.476C70.841 107.475 70.8223 107.477 70.8045 107.483L68.3991 108.248C68.3811 108.253 68.3644 108.262 68.3499 108.274C68.3354 108.286 68.3235 108.301 68.3149 108.317C68.3062 108.334 68.3011 108.352 68.2997 108.371C68.2983 108.389 68.3008 108.408 68.3069 108.426L71.0681 117.106C71.0734 117.124 71.0822 117.14 71.0941 117.155C71.106 117.169 71.1207 117.181 71.1373 117.19C71.154 117.198 71.1722 117.204 71.1909 117.205C71.2096 117.206 71.2284 117.204 71.2461 117.198L73.8096 116.387C73.8276 116.382 73.8444 116.373 73.8589 116.361C73.8734 116.349 73.8853 116.335 73.8939 116.318C73.9025 116.301 73.9077 116.283 73.9091 116.264C73.9104 116.246 73.908 116.227 73.9019 116.209L72.3993 111.484L72.3796 111.477Z" fill="black"></path> <path d="M74.4162 102.673L76.8743 101.888C76.892 101.882 76.9108 101.88 76.9295 101.881C76.9482 101.882 76.9664 101.888 76.983 101.896C76.9997 101.905 77.0144 101.917 77.0263 101.931C77.0382 101.946 77.047 101.963 77.0522 101.981L79.0293 108.09L80.835 104.439C80.8397 104.43 80.8463 104.423 80.8543 104.417C80.8623 104.411 80.8714 104.408 80.8811 104.406L83.7874 103.483C83.8005 103.48 83.8145 103.48 83.8276 103.484C83.8407 103.488 83.8524 103.495 83.8613 103.506C83.8703 103.516 83.8762 103.529 83.8782 103.542C83.8803 103.556 83.8785 103.569 83.873 103.582L81.8037 107.727L87.1154 112.11C87.1263 112.116 87.1354 112.126 87.1417 112.137C87.148 112.148 87.1513 112.16 87.1513 112.173C87.1513 112.185 87.148 112.198 87.1417 112.209C87.1354 112.22 87.1263 112.229 87.1154 112.235L84.1103 113.191C84.0991 113.197 84.0866 113.2 84.074 113.2C84.0614 113.2 84.049 113.197 84.0378 113.191L80.5977 110.199L80.0639 111.266L80.9602 114.074C80.9663 114.092 80.9687 114.111 80.9673 114.129C80.966 114.148 80.9608 114.166 80.9522 114.183C80.9436 114.199 80.9316 114.214 80.9171 114.226C80.9027 114.238 80.8859 114.247 80.8679 114.252L78.4098 115.036C78.3921 115.042 78.3733 115.045 78.3546 115.043C78.3359 115.042 78.3177 115.037 78.3011 115.028C78.2844 115.02 78.2697 115.008 78.2578 114.993C78.2459 114.979 78.2371 114.962 78.2319 114.944L74.3898 102.87C74.3825 102.853 74.379 102.834 74.3794 102.814C74.3798 102.795 74.3842 102.777 74.3922 102.759C74.4003 102.742 74.4118 102.726 74.4261 102.714C74.4405 102.701 74.4573 102.692 74.4755 102.686" fill="black"></path> <path d="M63.8784 109.836L64.1816 110.785C63.7227 110.484 63.2026 110.289 62.6589 110.213C62.1151 110.138 61.5615 110.185 61.0381 110.35C58.659 111.108 57.4069 113.817 58.2307 116.414C59.0544 119.01 61.6509 120.493 64.0234 119.709C64.5496 119.549 65.032 119.271 65.4332 118.895C65.8344 118.519 66.1435 118.055 66.3366 117.541L66.6397 118.49C66.6449 118.508 66.6538 118.524 66.6656 118.539C66.6775 118.553 66.6923 118.565 66.7089 118.574C66.7255 118.582 66.7437 118.588 66.7624 118.589C66.7811 118.59 66.7999 118.588 66.8176 118.582L69.3614 117.771C69.3794 117.766 69.3962 117.757 69.4107 117.745C69.4252 117.733 69.4371 117.719 69.4457 117.702C69.4543 117.685 69.4595 117.667 69.4609 117.648C69.4622 117.63 69.4598 117.611 69.4537 117.593L66.6924 108.92C66.6872 108.902 66.6784 108.885 66.6665 108.871C66.6546 108.857 66.6399 108.845 66.6232 108.836C66.6066 108.827 66.5884 108.822 66.5697 108.821C66.551 108.819 66.5322 108.822 66.5145 108.828L63.9707 109.639C63.9527 109.644 63.9359 109.653 63.9214 109.665C63.907 109.676 63.8951 109.691 63.8864 109.708C63.8778 109.724 63.8726 109.743 63.8713 109.761C63.8699 109.78 63.8723 109.799 63.8784 109.817V109.836ZM63.8455 117C63.416 117.138 62.9553 117.145 62.5218 117.02C62.0882 116.896 61.7013 116.646 61.4099 116.302C61.1184 115.958 60.9356 115.535 60.8845 115.087C60.8334 114.639 60.9163 114.185 61.1228 113.785C61.3293 113.384 61.65 113.053 62.0445 112.834C62.4389 112.615 62.8893 112.519 63.3388 112.556C63.7882 112.593 64.2165 112.763 64.5694 113.044C64.9224 113.325 65.1842 113.704 65.3217 114.133C65.5042 114.709 65.4514 115.334 65.1748 115.871C64.8982 116.408 64.4203 116.814 63.8455 117Z" fill="black"></path> <path d="M45.3603 113.164C45.272 112.886 45.1029 112.64 44.8747 112.457C44.6464 112.275 44.3691 112.164 44.078 112.14C43.7868 112.115 43.4949 112.177 43.2392 112.319C42.9834 112.46 42.7754 112.674 42.6414 112.934C42.5074 113.193 42.4535 113.487 42.4865 113.777C42.5195 114.068 42.6379 114.342 42.8267 114.565C43.0155 114.788 43.2663 114.95 43.5472 115.03C43.8281 115.11 44.1266 115.106 44.4048 115.016C44.7766 114.897 45.086 114.635 45.2651 114.288C45.4442 113.941 45.4784 113.537 45.3603 113.164Z" fill="#FDC000"></path> <path d="M97.928 142.55L66.0714 153.056C61.9892 154.402 59.7711 158.802 61.1173 162.885L61.1193 162.891C62.4654 166.973 66.8659 169.192 70.9481 167.845L102.805 157.34C106.887 155.994 109.105 151.593 107.759 147.511L107.757 147.505C106.411 143.422 102.01 141.204 97.928 142.55Z" fill="#50FFAA"></path> <path d="M72.399 160.926L70.2374 161.624L70.8964 163.733L69.295 164.254L68.636 162.145L66.4876 162.837L66 161.321L68.1484 160.629L67.4893 158.52L69.0907 158L69.7498 160.109L71.9113 159.41L72.399 160.926Z" fill="black"></path> <path d="M96.9145 152.739L97.1386 153.431L99.8205 152.561L100.157 153.589L97.4747 154.459L97.8371 155.579L95.814 156.238L95.4515 155.118L94.2455 155.507L93.9094 154.479L95.1154 154.09L93 147.546L96.7629 146.326C97.7263 145.951 98.7855 145.898 99.7815 146.175C100.183 146.343 100.543 146.595 100.837 146.915C101.131 147.236 101.353 147.615 101.487 148.029C101.621 148.443 101.664 148.88 101.613 149.312C101.562 149.744 101.419 150.16 101.192 150.531C100.545 151.337 99.6545 151.913 98.6545 152.172L96.9145 152.739ZM98.6875 147.888C98.2225 147.767 97.7306 147.797 97.2836 147.974L95.5569 148.534L96.4071 151.17L98.1337 150.61C98.6005 150.492 99.0165 150.226 99.3195 149.852C99.4325 149.688 99.5035 149.499 99.5265 149.302C99.5495 149.104 99.5235 148.904 99.4515 148.719C99.4035 148.528 99.3085 148.352 99.1745 148.207C99.0415 148.062 98.8735 147.952 98.6875 147.888Z" fill="black"></path> <path d="M83.9538 158.795L82.4391 159.298L83.0875 161.251L80.9882 161.948L80.3397 159.995L75.3306 161.658L74.8498 160.21L77.2759 152.855L79.5347 152.105L77.326 159.048L79.8239 158.219L79.2461 156.479L81.279 155.804L81.8568 157.544L83.3715 157.041L83.9538 158.795ZM85.322 150.007C86.6242 149.574 87.7751 149.635 88.775 150.188C89.772 150.732 90.5174 151.748 91.0115 153.236C91.3614 154.291 91.4621 155.26 91.3134 156.146C91.1736 157.028 90.8097 157.783 90.2216 158.411C89.6335 159.039 88.8699 159.509 87.931 159.82C87.4349 159.985 86.9434 160.089 86.4564 160.133C85.9664 160.168 85.5281 160.136 85.1416 160.038L85.4139 158.193C85.9686 158.353 86.6002 158.315 87.3089 158.08C88.0972 157.818 88.6453 157.38 88.953 156.767C89.2577 156.144 89.2822 155.389 89.0266 154.5C88.6538 155.244 87.9758 155.778 86.9925 156.105C86.399 156.302 85.819 156.362 85.2524 156.284C84.6858 156.207 84.1888 155.998 83.7612 155.658C83.3307 155.309 83.0199 154.847 82.8288 154.271C82.6229 153.651 82.5971 153.055 82.7512 152.483C82.9054 151.91 83.2071 151.412 83.6562 150.987C84.1113 150.551 84.6665 150.224 85.322 150.007ZM86.9371 154.338C87.4066 154.182 87.7448 153.928 87.9519 153.574C88.1648 153.208 88.2037 152.821 88.0684 152.414C87.9331 152.006 87.6767 151.723 87.2991 151.563C86.9304 151.4 86.4935 151.403 85.9886 151.57C85.528 151.723 85.1927 151.972 84.9828 152.317C84.7816 152.659 84.7517 153.043 84.8928 153.468C85.034 153.893 85.2889 154.187 85.6576 154.35C86.0323 154.501 86.4588 154.497 86.9371 154.338Z" fill="black"></path> </g> <defs> <linearGradient id="paint0_linear" x1="131" y1="96.9998" x2="123.001" y2="42.9997" gradientUnits="userSpaceOnUse"> <stop stop-color="#FF7C28"></stop> <stop offset="1" stop-color="#F7CD21"></stop> </linearGradient> <linearGradient id="paint1_linear" x1="3938.82" y1="1518.19" x2="3431.3" y2="763.786" gradientUnits="userSpaceOnUse"> <stop stop-color="#FF7C28"></stop> <stop offset="1" stop-color="#F7CD21"></stop> </linearGradient> <linearGradient id="paint2_linear" x1="135.5" y1="40.5" x2="139.501" y2="78.4999" gradientUnits="userSpaceOnUse"> <stop stop-color="#FF7C28"></stop> <stop offset="1" stop-color="#F7CD21"></stop> </linearGradient> <linearGradient id="paint3_linear" x1="160" y1="58.4999" x2="165.001" y2="79.9997" gradientUnits="userSpaceOnUse"> <stop stop-color="#F7CD21"></stop> <stop offset="1" stop-color="#FF7C28"></stop> </linearGradient> <linearGradient id="paint4_linear" x1="5983.2" y1="2119.48" x2="5032.17" y2="1171.97" gradientUnits="userSpaceOnUse"> <stop stop-color="#FF7C28"></stop> <stop offset="1" stop-color="#F7CD21"></stop> </linearGradient> <linearGradient id="paint5_linear" x1="126.378" y1="102.138" x2="138.933" y2="184.742" gradientUnits="userSpaceOnUse"> <stop stop-color="#00BF95"></stop> <stop offset="1" stop-color="#3CFDBA"></stop> </linearGradient> <linearGradient id="paint6_linear" x1="4543.77" y1="2874.43" x2="4316.21" y2="2282.88" gradientUnits="userSpaceOnUse"> <stop stop-color="#FF7C28"></stop> <stop offset="1" stop-color="#F7CD21"></stop> </linearGradient> <linearGradient id="paint7_linear" x1="128.567" y1="70.0302" x2="129.602" y2="92.5589" gradientUnits="userSpaceOnUse"> <stop stop-color="#F7CD21"></stop> <stop offset="1" stop-color="#FF7C28"></stop> </linearGradient> <linearGradient id="paint8_linear" x1="4487.66" y1="3539.64" x2="4537.86" y2="2727.61" gradientUnits="userSpaceOnUse"> <stop stop-color="#FF7C28"></stop> <stop offset="1" stop-color="#F7CD21"></stop> </linearGradient> <linearGradient id="paint9_linear" x1="141" y1="78.4999" x2="136.001" y2="105.5" gradientUnits="userSpaceOnUse"> <stop stop-color="#F7CD21"></stop> <stop offset="1" stop-color="#FF7C28"></stop> </linearGradient> <linearGradient id="paint10_linear" x1="3868.47" y1="-8477.58" x2="3689.78" y2="-8185.66" gradientUnits="userSpaceOnUse"> <stop stop-color="#FF7C28"></stop> <stop offset="1" stop-color="#F7CD21"></stop> </linearGradient> <linearGradient id="paint11_linear" x1="10492.2" y1="9399.03" x2="13607.5" y2="3871.82" gradientUnits="userSpaceOnUse"> <stop stop-color="#00BF95"></stop> <stop offset="1" stop-color="#3CFDBA"></stop> </linearGradient> <linearGradient id="paint12_linear" x1="4445.8" y1="2150.89" x2="4329.1" y2="1756.19" gradientUnits="userSpaceOnUse"> <stop stop-color="#00BF95"></stop> <stop offset="1" stop-color="#3CFDBA"></stop> </linearGradient> <linearGradient id="paint13_linear" x1="236.092" y1="-2459.45" x2="289.53" y2="-2290.24" gradientUnits="userSpaceOnUse"> <stop stop-color="#FF7C28"></stop> <stop offset="1" stop-color="#F7CD21"></stop> </linearGradient> <linearGradient id="paint14_linear" x1="1078.81" y1="-2085.86" x2="983.722" y2="-2114.06" gradientUnits="userSpaceOnUse"> <stop stop-color="#00BF95"></stop> <stop offset="1" stop-color="#3CFDBA"></stop> </linearGradient> <clipPath id="clip0"> <rect width="178" height="200" fill="white"></rect> </clipPath> </defs> </svg> 