<svg width="178" height="200" viewBox="0 0 178 200" fill="none" xmlns="http://www.w3.org/2000/svg">
<g clip-path="url(#clip0_137_246)">
<mask id="mask0_137_246" style="mask-type:luminance" maskUnits="userSpaceOnUse" x="0" y="0" width="178" height="200">
<path d="M178 0H0V200H178V0Z" fill="white"/>
</mask>
<g mask="url(#mask0_137_246)">
<path opacity="0.72" d="M89.0001 21.9922C71.3975 21.9922 54.1903 27.2122 39.5543 36.9921C24.9184 46.7719 13.511 60.6724 6.77476 76.9358C0.0385661 93.1991 -1.72394 111.095 1.71015 128.36C5.14423 145.625 13.6207 161.484 26.0676 173.931C38.5144 186.379 54.3727 194.856 71.637 198.29C88.9013 201.724 106.796 199.961 123.059 193.225C139.321 186.489 153.221 175.081 163.001 160.444C172.78 145.807 178 128.599 178 110.996C178 87.3908 168.623 64.7523 151.932 48.0608C135.242 31.3694 112.604 21.9922 89.0001 21.9922ZM89.0001 174.231C76.4874 174.231 64.2556 170.521 53.8517 163.569C43.4477 156.617 35.3388 146.736 30.5504 135.175C25.762 123.614 24.5091 110.893 26.9502 98.6201C29.3914 86.3473 35.4168 75.074 44.2646 66.2257C53.1125 57.3775 64.3853 51.3518 76.6576 48.9106C88.9299 46.4694 101.65 47.7223 113.211 52.5109C124.771 57.2995 134.652 65.4088 141.603 75.8132C148.555 86.2176 152.265 98.4498 152.265 110.963C152.268 119.273 150.634 127.503 147.455 135.181C144.277 142.859 139.617 149.836 133.742 155.713C127.867 161.59 120.892 166.253 113.215 169.433C105.538 172.614 97.3099 174.251 89.0001 174.251V174.231Z" fill="#E9E9E9"/>
<path d="M137.308 54.5295C138.635 50.2729 137.089 46.0045 133.854 44.9956C130.619 43.9868 126.921 46.6196 125.593 50.8762C124.266 55.1328 125.812 59.4012 129.047 60.4101C132.282 61.4189 135.98 58.7861 137.308 54.5295Z" fill="url(#paint0_linear_137_246)"/>
<path d="M138.612 54.9408C139.939 50.6842 138.393 46.4158 135.158 45.407C131.923 44.3981 128.225 47.031 126.897 51.2875C125.57 55.5441 127.116 59.8126 130.351 60.8214C133.586 61.8302 137.284 59.1974 138.612 54.9408Z" fill="url(#paint1_linear_137_246)"/>
<path d="M138.612 54.9408C139.939 50.6842 138.393 46.4158 135.158 45.407C131.923 44.3981 128.225 47.031 126.897 51.2875C125.57 55.5441 127.116 59.8126 130.351 60.8214C133.586 61.8302 137.284 59.1974 138.612 54.9408Z" fill="url(#paint2_linear_137_246)"/>
<path d="M166.05 66.6145C169.872 62.3812 170.209 56.456 166.803 53.3801C163.396 50.3041 157.536 51.2423 153.714 55.4756C149.892 59.7088 149.555 65.6341 152.961 68.71C156.368 71.7859 162.228 70.8477 166.05 66.6145Z" fill="url(#paint3_linear_137_246)"/>
<path d="M164.658 65.3598C168.48 61.1266 168.818 55.2013 165.411 52.1254C162.005 49.0495 156.145 49.9877 152.323 54.2209C148.5 58.4541 148.163 64.3794 151.57 67.4553C154.976 70.5313 160.836 69.5931 164.658 65.3598Z" fill="url(#paint4_linear_137_246)"/>
<path d="M38.2227 48.3212C38.2227 47.7676 38.2227 47.2184 38.2227 46.6736" stroke="black" stroke-width="2" stroke-linecap="round" stroke-linejoin="round"/>
<path d="M38.5654 43.4112C41.6298 23.0665 64.5042 13.0358 74.9364 27.8248C87.3852 45.474 46.5263 54.7006 62.5601 20.6016C82.1394 -21.0499 169.881 5.16682 140.772 74.7553" stroke="black" stroke-width="2" stroke-linecap="round" stroke-linejoin="round" stroke-dasharray="4.97 4.97"/>
<path d="M40.5294 59.9268L42.9414 48.3145L38.3678 52.5521L32.2324 52.0644C32.2324 52.0644 40.2394 59.1623 40.5294 59.9268Z" fill="black"/>
<path d="M114.535 76.1855L155.314 85.3458C156.009 85.5021 156.615 85.9284 156.996 86.5309C157.378 87.1335 157.504 87.8629 157.348 88.5587L148.628 127.378C148.472 128.074 148.046 128.679 147.443 129.06C146.841 129.442 146.111 129.568 145.416 129.412L95.5967 118.221L103.462 83.202C104.001 80.8042 105.47 78.7186 107.546 77.4039C109.622 76.0893 112.136 75.6533 114.534 76.1919L114.535 76.1855Z" fill="url(#paint5_linear_137_246)"/>
<path d="M129.601 92.5589C135.822 92.2732 140.634 86.9983 140.348 80.7772C140.062 74.556 134.788 69.7444 128.567 70.0302C122.346 70.316 117.534 75.5909 117.82 81.812C118.106 88.0331 123.381 92.8447 129.601 92.5589Z" fill="url(#paint6_linear_137_246)"/>
<path d="M129.601 92.5589C135.822 92.2732 140.634 86.9983 140.348 80.7772C140.062 74.556 134.788 69.7444 128.567 70.0302C122.346 70.316 117.534 75.5909 117.82 81.812C118.106 88.0331 123.381 92.8447 129.601 92.5589Z" fill="url(#paint7_linear_137_246)"/>
<path d="M127.992 92.3366C134.285 92.0475 139.153 86.711 138.864 80.4171C138.575 74.1233 133.238 69.2554 126.945 69.5445C120.651 69.8336 115.783 75.1702 116.073 81.464C116.362 87.7579 121.698 92.6257 127.992 92.3366Z" fill="url(#paint8_linear_137_246)"/>
<path d="M154.295 101.345C157.026 95.7482 154.704 88.9966 149.108 86.2646C143.512 83.5326 136.761 85.8547 134.029 91.4512C131.297 97.0477 133.619 103.799 139.215 106.531C144.811 109.263 151.563 106.941 154.295 101.345Z" fill="url(#paint9_linear_137_246)"/>
<path d="M154.295 101.345C157.026 95.7482 154.704 88.9966 149.108 86.2646C143.512 83.5326 136.761 85.8547 134.029 91.4512C131.297 97.0477 133.619 103.799 139.215 106.531C144.811 109.263 151.563 106.941 154.295 101.345Z" fill="#FF7C28" fill-opacity="0.6"/>
<path d="M142.598 98.9422L142.94 98.237C142.562 98.0509 142.243 97.7634 142.018 97.4066L142.413 97.0178C142.618 97.361 142.918 97.6378 143.276 97.8152C143.371 97.8778 143.477 97.9202 143.589 97.9398C143.7 97.9594 143.815 97.9558 143.925 97.9292C144.035 97.9026 144.138 97.8536 144.228 97.7852C144.319 97.7168 144.394 97.6306 144.449 97.5319C144.641 97.143 144.449 96.774 144.067 96.3126C143.487 95.6536 143.204 95.1461 143.5 94.5332C143.644 94.2492 143.889 94.029 144.186 93.9157C144.483 93.8024 144.812 93.804 145.108 93.9203L145.458 93.2085L145.893 93.4194L145.563 94.0785C145.878 94.2287 146.15 94.4553 146.354 94.7375L145.952 95.1132C145.762 94.8283 145.497 94.6005 145.188 94.4541C145.105 94.3953 145.011 94.3548 144.912 94.3351C144.813 94.3155 144.71 94.3173 144.612 94.3404C144.513 94.3635 144.421 94.4073 144.34 94.469C144.26 94.5306 144.194 94.6087 144.146 94.698C143.968 95.0604 144.146 95.357 144.627 95.9238C145.108 96.4906 145.392 97.1167 145.089 97.7362C144.938 98.0359 144.681 98.2692 144.368 98.3909C144.056 98.5126 143.709 98.5141 143.395 98.3952L143.039 99.1267L142.598 98.9422Z" fill="url(#paint10_linear_137_246)"/>
<path d="M103.71 82.1038L162.023 95.203C162.775 95.3719 163.429 95.8327 163.842 96.484C164.254 97.1352 164.391 97.9236 164.222 98.6757L155.596 137.077C155.427 137.829 154.967 138.483 154.315 138.896C153.664 139.308 152.876 139.445 152.124 139.276L103.578 128.371C100.989 127.789 98.7377 126.203 97.3184 123.961C95.8991 121.719 95.4284 119.006 96.0099 116.417L103.717 82.1052L103.71 82.1038Z" fill="url(#paint11_linear_137_246)"/>
<path d="M163.39 122.839L154.625 120.862C154.1 120.744 153.604 120.525 153.165 120.215C152.725 119.906 152.351 119.513 152.063 119.059C151.776 118.605 151.58 118.098 151.488 117.569C151.396 117.039 151.41 116.496 151.527 115.972C151.645 115.447 151.865 114.951 152.174 114.512C152.484 114.072 152.877 113.698 153.331 113.41C153.785 113.123 154.291 112.927 154.821 112.835C155.35 112.743 155.893 112.757 156.417 112.874L165.182 114.852C165.707 114.969 166.203 115.189 166.642 115.498C167.082 115.808 167.456 116.201 167.744 116.655C168.031 117.109 168.227 117.615 168.319 118.145C168.411 118.675 168.397 119.217 168.28 119.742C168.162 120.266 167.942 120.762 167.633 121.202C167.323 121.641 166.93 122.016 166.476 122.303C166.022 122.591 165.516 122.786 164.986 122.878C164.457 122.97 163.914 122.957 163.39 122.839Z" fill="url(#paint12_linear_137_246)"/>
<path d="M166.223 119.292C166.401 118.5 165.903 117.714 165.111 117.536C164.319 117.358 163.533 117.856 163.355 118.648C163.178 119.44 163.675 120.226 164.467 120.404C165.259 120.582 166.045 120.084 166.223 119.292Z" fill="white"/>
<path d="M76.1761 50.7598L29.1475 66.159C23.921 67.8704 21.0714 73.4948 22.7827 78.7215L57.8166 185.723C59.5279 190.95 65.1521 193.799 70.3785 192.088L117.407 176.689C122.634 174.977 125.483 169.353 123.772 164.126L88.738 57.1248C87.0267 51.8981 81.4026 49.0484 76.1761 50.7598Z" fill="#333333"/>
<path d="M85.5072 59.0107L119.994 164.333C120.273 165.188 120.382 166.09 120.313 166.987C120.245 167.884 120 168.758 119.593 169.561C119.186 170.363 118.625 171.078 117.941 171.663C117.258 172.248 116.466 172.693 115.611 172.973L69.6447 188.025C68.7901 188.305 67.8887 188.414 66.992 188.346C66.0952 188.278 65.2207 188.033 64.4184 187.627C63.6161 187.221 62.9018 186.66 62.3161 185.978C61.7304 185.295 61.2849 184.504 61.005 183.649L26.5188 78.3273C26.2387 77.4727 26.1297 76.5712 26.198 75.6744C26.2664 74.7777 26.5107 73.9031 26.917 73.1008C27.3234 72.2985 27.8838 71.5841 28.5663 70.9983C29.2488 70.4126 30.0399 69.9671 30.8946 69.6873L76.861 54.6347C78.2185 54.1901 79.681 54.1804 81.0443 54.6069C82.4076 55.0334 83.6038 55.8748 84.466 57.0138C84.9198 57.6182 85.2715 58.2927 85.5072 59.0107Z" fill="white"/>
<path d="M64.8514 56.1461L41.4655 63.8036C40.369 64.1627 39.7712 65.3427 40.1302 66.4392C40.4892 67.5357 41.6692 68.1336 42.7656 67.7745L66.1516 60.117C67.2481 59.7579 67.8459 58.5779 67.4869 57.4814C67.1278 56.3849 65.9479 55.787 64.8514 56.1461Z" fill="#333333"/>
<path opacity="0.43" d="M97.928 142.55L66.0714 153.056C61.9892 154.402 59.7711 158.802 61.1173 162.885L61.1193 162.891C62.4654 166.973 66.8659 169.192 70.9481 167.845L102.805 157.34C106.887 155.994 109.105 151.593 107.759 147.511L107.757 147.505C106.411 143.422 102.01 141.204 97.928 142.55Z" fill="#0F6EFF"/>
<path d="M72.399 160.926L70.2374 161.624L70.8964 163.733L69.295 164.254L68.636 162.145L66.4876 162.837L66 161.321L68.1484 160.629L67.4893 158.52L69.0907 158L69.7498 160.109L71.9113 159.41L72.399 160.926Z" fill="black"/>
<path d="M83.9538 158.056L82.4391 158.518L83.0875 160.312L80.9882 160.952L80.3397 159.158L75.3306 160.686L74.8498 159.356L77.2759 152.6L79.5347 151.911L77.326 158.288L79.8239 157.527L79.2461 155.929L81.279 155.309L81.8568 156.907L83.3715 156.445L83.9538 158.056ZM85.322 149.984C86.6242 149.586 87.7751 149.642 88.775 150.15C89.772 150.65 90.5174 151.583 91.0115 152.95C91.3614 153.919 91.4621 154.809 91.3134 155.623C91.1736 156.433 90.8097 157.126 90.2216 157.703C89.6335 158.28 88.8699 158.712 87.931 158.998C87.4349 159.149 86.9434 159.245 86.4564 159.285C85.9664 159.317 85.5281 159.288 85.1416 159.198L85.4139 157.503C85.9686 157.65 86.6002 157.615 87.3089 157.399C88.0972 157.159 88.6453 156.756 88.953 156.193C89.2577 155.621 89.2822 154.927 89.0266 154.111C88.6538 154.794 87.9758 155.285 86.9925 155.585C86.399 155.766 85.819 155.821 85.2524 155.75C84.6858 155.679 84.1888 155.487 83.7612 155.175C83.3307 154.854 83.0199 154.43 82.8288 153.9C82.6229 153.331 82.5971 152.784 82.7512 152.258C82.9054 151.732 83.2071 151.274 83.6562 150.884C84.1113 150.483 84.6665 150.183 85.322 149.984ZM86.9371 153.962C87.4066 153.819 87.7448 153.585 87.9519 153.26C88.1648 152.924 88.2037 152.569 88.0684 152.195C87.9331 151.82 87.6767 151.56 87.2991 151.413C86.9304 151.263 86.4935 151.266 85.9886 151.419C85.528 151.56 85.1927 151.789 84.9828 152.106C84.7816 152.42 84.7517 152.772 84.8928 153.163C85.034 153.553 85.2889 153.823 85.6576 153.973C86.0323 154.112 86.4588 154.108 86.9371 153.962Z" fill="black"/>
</g>
<path d="M93.0864 105.929C93.2747 106.458 93.5434 106.836 93.8926 107.062C94.2445 107.282 94.6323 107.33 95.056 107.207C95.357 107.12 95.6446 106.986 95.9188 106.807C96.1957 106.622 96.4191 106.452 96.5891 106.298C96.7618 106.139 96.8701 106.032 96.9141 105.976L97.7615 106.94C97.7665 106.957 97.6565 107.11 97.4312 107.399C97.2086 107.682 96.9155 107.967 96.5521 108.253C96.1913 108.533 95.7793 108.741 95.316 108.876C94.2864 109.175 93.4106 109.088 92.6888 108.615C91.9669 108.141 91.4379 107.327 91.1018 106.172C90.8752 105.393 90.8053 104.673 90.8921 104.012C90.9816 103.345 91.2234 102.781 91.6176 102.32C92.0104 101.854 92.5415 101.524 93.2107 101.329C94.1017 101.07 94.8669 101.154 95.5063 101.58C96.1458 102.006 96.6074 102.707 96.8913 103.683C96.9537 103.898 97.0043 104.108 97.043 104.315C97.0818 104.522 97.1048 104.653 97.1122 104.708L93.0864 105.929ZM93.5598 102.972C93.2271 103.069 92.9922 103.273 92.8549 103.583C92.7163 103.889 92.6798 104.251 92.7454 104.669L94.9492 104.027C94.832 103.625 94.6566 103.325 94.423 103.127C94.1881 102.925 93.9003 102.873 93.5598 102.972Z" fill="black"/>
<path d="M84.464 105.02C84.4589 105.003 84.5564 104.865 84.7563 104.608C84.9603 104.349 85.2049 104.098 85.4903 103.853C85.7744 103.604 86.0789 103.433 86.4036 103.338C86.9857 103.169 87.5008 103.249 87.9491 103.579C88.3973 103.909 88.7296 104.446 88.946 105.19L89.9829 108.754L90.9356 108.84L91.2488 109.917L87.8987 110.891L87.5855 109.815L88.1593 109.285L87.2294 106.088C87.1377 105.773 86.9874 105.537 86.7783 105.379C86.5693 105.222 86.34 105.179 86.0905 105.252C85.8648 105.318 85.6715 105.436 85.5106 105.606C85.3523 105.771 85.2276 105.94 85.1364 106.113C85.0478 106.282 85.0061 106.374 85.0112 106.392L86.0328 109.903L86.7955 110.045L87.1087 111.121L83.6457 112.129L83.3325 111.052L84.2093 110.434L82.9375 106.063L81.866 106.011L81.5528 104.935L84.1116 104.119L84.464 105.02Z" fill="black"/>
<path d="M79.8677 112.281C79.8728 112.298 79.7965 112.427 79.6388 112.668C79.4811 112.908 79.2774 113.146 79.0276 113.38C78.7766 113.609 78.4967 113.769 78.1878 113.859C77.5938 114.032 77.0757 113.985 76.6334 113.72C76.1938 113.449 75.876 112.977 75.68 112.303C75.4559 111.533 75.5418 110.898 75.9376 110.399C76.3335 109.899 77.0086 109.51 77.9629 109.233L78.8183 108.984L78.6025 108.242C78.4115 107.586 78.0038 107.351 77.3794 107.537C77.1933 107.591 77.0255 107.657 76.876 107.733C76.7265 107.81 76.6094 107.88 76.5245 107.942C76.4424 108 76.3907 108.036 76.3694 108.052L76.4316 108.952L75.3387 109.27L74.6769 107.305C74.7406 107.258 74.8983 107.151 75.15 106.983C75.4057 106.813 75.7161 106.633 76.0813 106.441C76.4504 106.248 76.8092 106.101 77.1577 106C77.7833 105.818 78.3058 105.761 78.725 105.829C79.1429 105.892 79.4937 106.094 79.7772 106.434C80.0595 106.769 80.2955 107.263 80.4852 107.915L81.4515 111.236L82.4369 111.213L82.7501 112.29L80.3414 113.09L79.8677 112.281ZM77.3849 111.586C77.4613 111.849 77.5813 112.032 77.7447 112.137C77.9109 112.236 78.1089 112.251 78.3385 112.185C78.5326 112.128 78.7081 112.015 78.8651 111.846C79.0208 111.673 79.1461 111.506 79.2412 111.345C79.3349 111.18 79.3919 111.074 79.4121 111.025L79.1505 110.126L78.4556 110.328C77.9843 110.465 77.6661 110.634 77.5009 110.834C77.3358 111.034 77.2971 111.284 77.3849 111.586Z" fill="black"/>
<path d="M70.3244 111.063L70.7509 109.451L70.1609 109.416L69.8478 108.34L72.9709 107.36L73.3032 108.502L72.4994 108.928L71.8826 111.016L74.0525 113.403L75.0727 113.455L75.3858 114.532L73.1346 115.187L70.6711 112.344L69.8929 112.57L70.4372 114.441L71.2058 114.58L71.5189 115.657L68.05 116.666L67.7369 115.589L68.6136 114.971L66.4157 107.416L65.3632 107.431L65.0501 106.354L67.8172 105.435L69.5225 111.297L70.3244 111.063Z" fill="black"/>
<path d="M62.5169 111.405C62.5118 111.388 62.5769 111.257 62.7122 111.014C62.8476 110.77 63.0177 110.536 63.2226 110.31C63.4302 110.079 63.6568 109.928 63.9023 109.856C64.0963 109.8 64.2836 109.764 64.4641 109.75C64.6445 109.735 64.788 109.734 64.8945 109.745C65.0049 109.756 65.0733 109.762 65.0996 109.764L65.757 112.378L64.664 112.696L64.1476 111.607C63.9377 111.668 63.7504 111.785 63.5855 111.956C63.4232 112.122 63.2926 112.293 63.1934 112.469C63.097 112.639 63.05 112.729 63.0526 112.737L64.0857 116.288L65.4008 116.269L65.7139 117.345L61.6985 118.514L61.3854 117.437L62.2621 116.819L60.9903 112.448L59.9188 112.396L59.6056 111.32L62.1407 110.511L62.5169 111.405Z" fill="black"/>
<path d="M57.9205 118.666C57.9256 118.683 57.8493 118.812 57.6916 119.053C57.5339 119.293 57.3302 119.531 57.0805 119.765C56.8294 119.994 56.5495 120.154 56.2406 120.244C55.6466 120.417 55.1285 120.37 54.6862 120.105C54.2467 119.834 53.9288 119.362 53.7328 118.688C53.5087 117.918 53.5946 117.283 53.9905 116.784C54.3863 116.284 55.0614 115.895 56.0157 115.618L56.8711 115.369L56.6553 114.627C56.4643 113.971 56.0567 113.736 55.4323 113.922C55.2461 113.976 55.0783 114.042 54.9289 114.118C54.7794 114.195 54.6622 114.265 54.5773 114.327C54.4952 114.385 54.4435 114.421 54.4223 114.437L54.4845 115.337L53.3915 115.655L52.7298 113.69C52.7934 113.643 52.9511 113.536 53.2028 113.368C53.4585 113.198 53.7689 113.018 54.1341 112.826C54.5032 112.633 54.862 112.486 55.2105 112.385C55.8362 112.203 56.3586 112.146 56.7778 112.214C57.1957 112.277 57.5465 112.479 57.8301 112.819C58.1124 113.154 58.3484 113.648 58.5381 114.3L59.5043 117.621L60.4897 117.598L60.8029 118.675L58.3942 119.475L57.9205 118.666ZM55.4378 117.971C55.5141 118.234 55.6341 118.417 55.7976 118.522C55.9638 118.621 56.1617 118.637 56.3914 118.57C56.5854 118.513 56.7609 118.4 56.9179 118.231C57.0736 118.058 57.199 117.891 57.294 117.73C57.3878 117.566 57.4447 117.459 57.465 117.41L57.2034 116.511L56.5084 116.713C56.0371 116.85 55.7189 117.019 55.5538 117.219C55.3886 117.419 55.3499 117.67 55.4378 117.971Z" fill="black"/>
<path d="M46.1983 121.784L46.9887 121.113L45.1516 114.799L44.1244 114.656L43.7922 113.514L46.5708 112.634L47.7231 112.299C48.6458 112.031 49.4417 112.072 50.1108 112.423C50.7839 112.773 51.2477 113.386 51.5023 114.261C51.8257 115.372 51.7705 116.297 51.3368 117.036C50.907 117.773 50.1318 118.305 49.0111 118.631L48.3696 118.818L48.8776 120.563L49.9048 120.706L50.237 121.848L46.5305 122.926L46.1983 121.784ZM48.5547 117.062C49.0656 116.914 49.42 116.67 49.6182 116.333C49.815 115.991 49.8415 115.572 49.6977 115.078C49.5678 114.632 49.3552 114.307 49.0597 114.103C48.7669 113.894 48.4186 113.848 48.0147 113.966L47.0405 114.249L47.9132 117.249L48.5547 117.062Z" fill="black"/>
<path d="M104.21 149.121C104.059 149.046 103.863 149.104 103.777 149.25L103.642 149.482L103.584 149.287C102.956 147.172 100.613 145.997 98.3608 146.666C97.1164 147.035 96.1095 147.906 95.6011 149.049C95.5315 149.203 95.6065 149.381 95.7707 149.44C95.9297 149.497 96.1158 149.421 96.1855 149.267C96.6195 148.292 97.4748 147.554 98.5315 147.24C100.445 146.672 102.438 147.672 102.972 149.468L103.029 149.66L102.789 149.54C102.638 149.464 102.442 149.522 102.356 149.668C102.271 149.814 102.326 149.998 102.477 150.074L103.385 150.53C103.422 150.548 103.46 150.557 103.501 150.562C103.542 150.566 103.585 150.562 103.626 150.55C103.667 150.538 103.702 150.519 103.738 150.492C103.77 150.465 103.797 150.436 103.817 150.401L104.329 149.524C104.416 149.381 104.361 149.197 104.21 149.121Z" fill="url(#paint13_linear_137_246)"/>
<path d="M103.229 151.56C103.069 151.499 102.879 151.576 102.815 151.733C102.381 152.708 101.525 153.446 100.468 153.76C98.555 154.328 96.5617 153.328 96.028 151.532L95.9711 151.34L96.2111 151.46C96.2894 151.5 96.3748 151.504 96.4524 151.481C96.5299 151.457 96.5983 151.404 96.6384 151.329C96.7237 151.183 96.669 150.999 96.5177 150.923L95.6139 150.467C95.5785 150.452 95.5349 150.44 95.4937 150.436C95.4111 150.427 95.3254 150.452 95.2611 150.505C95.2289 150.531 95.2031 150.564 95.1814 150.595L94.6695 151.472C94.5842 151.619 94.6388 151.803 94.7901 151.879C94.9415 151.954 95.1373 151.896 95.2226 151.75L95.3579 151.518L95.416 151.713C96.0442 153.828 98.3871 155.003 100.639 154.334C101.884 153.965 102.89 153.094 103.399 151.951C103.469 151.797 103.394 151.619 103.229 151.56Z" fill="url(#paint14_linear_137_246)"/>
<path d="M101.409 149.23C101.507 149.203 101.566 149.105 101.54 149.012C101.514 148.919 101.413 148.867 101.314 148.895L99.8312 149.313C99.7325 149.341 99.6735 149.438 99.6994 149.531C99.7254 149.624 99.8265 149.677 99.9252 149.649L101.409 149.23Z" fill="url(#paint15_linear_137_246)"/>
<path d="M99.3298 153.279L98.6604 153.478L97.7466 150.402C97.5904 149.876 97.6181 149.422 97.8298 149.039C98.0462 148.654 98.4037 148.388 98.9022 148.24C99.4339 148.082 99.887 148.103 100.261 148.302C100.64 148.5 100.896 148.819 101.027 149.261C101.109 149.537 101.126 149.794 101.077 150.031C101.034 150.267 100.938 150.468 100.791 150.633C100.644 150.798 100.476 150.938 100.288 151.052C100.1 151.166 99.8938 151.256 99.6707 151.322L99.1366 151.481L98.9618 150.893L99.5742 150.711C99.8923 150.616 100.115 150.453 100.243 150.221C100.373 149.983 100.398 149.729 100.318 149.457C100.238 149.189 100.088 148.996 99.8666 148.878C99.6488 148.753 99.3832 148.737 99.0699 148.831C98.766 148.921 98.5554 149.09 98.438 149.338C98.324 149.581 98.3141 149.86 98.4081 150.177L99.3298 153.279Z" fill="url(#paint16_linear_137_246)"/>
<path d="M101.415 149.775C101.514 149.747 101.573 149.649 101.547 149.556C101.521 149.464 101.42 149.411 101.321 149.439L99.8021 149.867C99.7034 149.895 99.6444 149.993 99.6704 150.086C99.6964 150.178 99.7974 150.231 99.8962 150.203L101.415 149.775Z" fill="url(#paint17_linear_137_246)"/>
<path d="M101.444 149.22C101.543 149.193 101.602 149.095 101.576 149.002C101.55 148.909 101.449 148.857 101.35 148.885L99.8312 149.313C99.7324 149.341 99.6735 149.438 99.6994 149.531C99.7254 149.624 99.8265 149.677 99.9252 149.649L101.444 149.22Z" fill="url(#paint18_linear_137_246)"/>
</g>
<defs>
<linearGradient id="paint0_linear_137_246" x1="131" y1="96.9998" x2="123.001" y2="42.9997" gradientUnits="userSpaceOnUse">
<stop stop-color="#FF7C28"/>
<stop offset="1" stop-color="#F7CD21"/>
</linearGradient>
<linearGradient id="paint1_linear_137_246" x1="3938.82" y1="1518.19" x2="3431.3" y2="763.786" gradientUnits="userSpaceOnUse">
<stop stop-color="#FF7C28"/>
<stop offset="1" stop-color="#F7CD21"/>
</linearGradient>
<linearGradient id="paint2_linear_137_246" x1="135.5" y1="40.5" x2="139.501" y2="78.4999" gradientUnits="userSpaceOnUse">
<stop stop-color="#FF7C28"/>
<stop offset="1" stop-color="#F7CD21"/>
</linearGradient>
<linearGradient id="paint3_linear_137_246" x1="160" y1="58.4999" x2="165.001" y2="79.9997" gradientUnits="userSpaceOnUse">
<stop stop-color="#F7CD21"/>
<stop offset="1" stop-color="#FF7C28"/>
</linearGradient>
<linearGradient id="paint4_linear_137_246" x1="5983.2" y1="2119.48" x2="5032.17" y2="1171.97" gradientUnits="userSpaceOnUse">
<stop stop-color="#FF7C28"/>
<stop offset="1" stop-color="#F7CD21"/>
</linearGradient>
<linearGradient id="paint5_linear_137_246" x1="126.378" y1="102.138" x2="138.933" y2="184.742" gradientUnits="userSpaceOnUse">
<stop stop-color="#0F6EFF"/>
<stop offset="1" stop-color="#3CFDBA"/>
</linearGradient>
<linearGradient id="paint6_linear_137_246" x1="4543.77" y1="2874.43" x2="4316.21" y2="2282.88" gradientUnits="userSpaceOnUse">
<stop stop-color="#FF7C28"/>
<stop offset="1" stop-color="#F7CD21"/>
</linearGradient>
<linearGradient id="paint7_linear_137_246" x1="128.567" y1="70.0302" x2="129.602" y2="92.5589" gradientUnits="userSpaceOnUse">
<stop stop-color="#F7CD21"/>
<stop offset="1" stop-color="#FF7C28"/>
</linearGradient>
<linearGradient id="paint8_linear_137_246" x1="4487.66" y1="3539.64" x2="4537.86" y2="2727.61" gradientUnits="userSpaceOnUse">
<stop stop-color="#FF7C28"/>
<stop offset="1" stop-color="#F7CD21"/>
</linearGradient>
<linearGradient id="paint9_linear_137_246" x1="141" y1="78.4999" x2="136.001" y2="105.5" gradientUnits="userSpaceOnUse">
<stop stop-color="#F7CD21"/>
<stop offset="1" stop-color="#FF7C28"/>
</linearGradient>
<linearGradient id="paint10_linear_137_246" x1="3868.47" y1="-8477.58" x2="3689.78" y2="-8185.66" gradientUnits="userSpaceOnUse">
<stop stop-color="#FF7C28"/>
<stop offset="1" stop-color="#F7CD21"/>
</linearGradient>
<linearGradient id="paint11_linear_137_246" x1="10492.2" y1="9399.03" x2="13607.5" y2="3871.82" gradientUnits="userSpaceOnUse">
<stop offset="0.394231" stop-color="#0F6EFF"/>
<stop offset="1" stop-color="#FF4883"/>
</linearGradient>
<linearGradient id="paint12_linear_137_246" x1="4445.8" y1="2150.89" x2="4329.1" y2="1756.19" gradientUnits="userSpaceOnUse">
<stop offset="0.2" stop-color="#FF4883"/>
<stop offset="0.6" stop-color="#0F6EFF"/>
</linearGradient>
<linearGradient id="paint13_linear_137_246" x1="95.4345" y1="149.207" x2="103.815" y2="151.127" gradientUnits="userSpaceOnUse">
<stop stop-color="#0F6EFF"/>
<stop offset="1" stop-color="#FF4883"/>
</linearGradient>
<linearGradient id="paint14_linear_137_246" x1="95.9859" y1="151.226" x2="102.771" y2="153.1" gradientUnits="userSpaceOnUse">
<stop stop-color="#0F6EFF"/>
<stop offset="1" stop-color="#FF4883"/>
</linearGradient>
<linearGradient id="paint15_linear_137_246" x1="100.733" y1="149.27" x2="99.8361" y2="149.761" gradientUnits="userSpaceOnUse">
<stop offset="0.0432692" stop-color="#FF4883"/>
<stop offset="1" stop-color="#0F6EFF"/>
</linearGradient>
<linearGradient id="paint16_linear_137_246" x1="101.281" y1="150.116" x2="97.9552" y2="151.104" gradientUnits="userSpaceOnUse">
<stop stop-color="#FF4883"/>
<stop offset="0.956731" stop-color="#0F6EFF"/>
</linearGradient>
<linearGradient id="paint17_linear_137_246" x1="101.537" y1="149.531" x2="99.6678" y2="150.086" gradientUnits="userSpaceOnUse">
<stop stop-color="#FF4883"/>
<stop offset="0.32771" stop-color="#F24A8A"/>
<stop offset="0.473684" stop-color="#D84F97"/>
<stop offset="0.956731" stop-color="#8E5ABD"/>
</linearGradient>
<linearGradient id="paint18_linear_137_246" x1="101.566" y1="148.977" x2="99.6968" y2="149.532" gradientUnits="userSpaceOnUse">
<stop stop-color="#FF4883"/>
<stop offset="0.364974" stop-color="#F24A8A"/>
<stop offset="0.552885" stop-color="#D84F97"/>
<stop offset="0.956731" stop-color="#8E5ABD"/>
</linearGradient>
<clipPath id="clip0_137_246">
<rect width="178" height="200" fill="white"/>
</clipPath>
</defs>
</svg>
