<svg width="193" height="170" viewBox="0 0 193 170" fill="none" xmlns="http://www.w3.org/2000/svg">
<g clip-path="url(#clip0_137_287)">
<path d="M147.156 131.378H143.467V22.1283H4.34768V131.378H0.659119V18.4397H147.156V131.378Z" fill="#333333"/>
<path d="M74.5952 19.4347H70.9066V131.188H74.5952V19.4347Z" fill="#333333"/>
<path d="M147.023 6.96204H0V10.6506H147.023V6.96204Z" fill="#333333"/>
<path d="M119.27 65.0031V64.0778C112.932 62.1067 103.362 62.1067 97.0181 64.0778V65.0031H119.27Z" fill="#595959"/>
<path d="M131.191 79.2693C130.659 74.6935 129.816 72.3295 128.314 70.3965C127.994 70.4664 127.662 70.4669 127.342 70.398C127.022 70.3292 126.72 70.1925 126.457 69.9972L121.051 66.0551C120.777 65.8511 120.547 65.5938 120.375 65.2986C120.203 65.0035 120.092 64.6766 120.049 64.3376L119.257 64.0778H97.0118L96.2259 64.3376C96.1833 64.6766 96.0727 65.0035 95.9006 65.2986C95.7285 65.5938 95.4985 65.8511 95.2245 66.0551L89.7994 70.0289C89.5363 70.2242 89.2345 70.3609 88.9142 70.4297C88.5939 70.4986 88.2625 70.4981 87.9425 70.4282C86.4404 72.3295 85.5975 74.6935 85.0651 79.301C83.6645 91.4061 86.0348 110.426 85.9778 115.109C85.6672 140.099 85.4581 153.31 87.1186 158.582C87.5194 159.663 88.2955 160.563 89.3051 161.118C89.5755 160.995 89.8701 160.934 90.167 160.94C92.0683 160.94 93.0443 162.208 95.1801 161.84C96.5935 161.599 97.0815 162.765 97.2336 163.589C98.5011 163.792 99.7687 163.938 100.979 164.046C101.079 163.905 101.212 163.791 101.365 163.711C101.518 163.632 101.688 163.59 101.86 163.589H114.403C114.576 163.589 114.747 163.63 114.902 163.709C115.056 163.789 115.189 163.904 115.29 164.046C116.19 163.963 117.128 163.862 118.078 163.729C118.211 162.911 118.661 161.58 120.157 161.827C122.299 162.189 123.237 160.927 125.177 160.927C125.645 160.912 126.101 161.083 126.444 161.403C127.794 160.668 128.777 159.749 129.138 158.595C130.798 153.329 130.589 140.112 130.279 115.122C130.247 110.394 132.624 91.3744 131.191 79.2693Z" fill="url(#paint0_linear_137_287)"/>
<g style="mix-blend-mode:screen">
<path d="M120.899 137.672C120.899 141.033 119.563 144.257 117.186 146.635C114.809 149.012 111.585 150.347 108.223 150.347C104.861 150.347 101.637 149.012 99.2603 146.635C96.8832 144.257 95.5477 141.033 95.5477 137.672V113.588C95.5477 110.226 96.8832 107.002 99.2603 104.625C101.637 102.248 104.861 100.913 108.223 100.913C111.585 100.913 114.809 102.248 117.186 104.625C119.563 107.002 120.899 110.226 120.899 113.588V137.672Z" fill="#333333"/>
</g>
<path d="M126.951 91.799C126.799 91.5201 126.368 91.2539 125.595 90.9244C123.031 89.8086 120.359 88.9591 117.622 88.3893C111.36 87.1486 104.915 87.1486 98.6532 88.3893C95.9159 88.9596 93.2443 89.809 90.6803 90.9244C89.9135 91.2539 89.4762 91.5201 89.3241 91.799C89.2566 92.3095 89.2889 92.8282 89.4191 93.3264V93.3771L91.8275 107.136L92.119 108.797C94.5074 107.695 97.0475 106.958 99.6546 106.61C105.284 106.027 110.959 106.027 116.589 106.61C119.196 106.959 121.736 107.696 124.125 108.797L124.416 107.136L126.824 93.3771V93.3264C126.965 92.8303 127.008 92.3115 126.951 91.799Z" fill="black"/>
<path d="M123.237 142.89C123.117 142.295 122.971 141.692 122.806 141.103C122.806 141.103 122.597 141.211 122.173 141.382C120.601 142.016 116.088 143.486 108.153 143.486C103.395 143.553 98.6574 142.831 94.1344 141.35C93.7098 141.198 93.5006 141.109 93.5006 141.109C93.3422 141.686 93.2027 142.263 93.0823 142.84C92.364 146.479 92.1507 150.201 92.4486 153.899C94.9465 154.935 97.5498 155.695 100.212 156.168C103.723 156.802 112.558 156.802 116.057 156.168C118.724 155.691 121.332 154.923 123.833 153.88C124.138 150.207 123.938 146.509 123.237 142.89Z" fill="black"/>
<path d="M124.22 135.573L124.587 123.639L125 109.5L128 93V104C128 105 127.5 112.5 127.5 115C127.5 117 127.747 120.676 127.87 122.264C128.225 126.738 127.87 143.045 127.87 143.045C127.87 143.045 127.129 142.266 125.728 139.49C125.064 138.252 124.558 136.937 124.22 135.573Z" fill="black"/>
<path d="M124.22 135.573L124.587 123.639L125 109.5L128 93V104C128 105 127.5 112.5 127.5 115C127.5 117 127.747 120.676 127.87 122.264C128.225 126.738 127.87 143.045 127.87 143.045C127.87 143.045 127.129 142.266 125.728 139.49C125.064 138.252 124.558 136.937 124.22 135.573Z" fill="black"/>
<path d="M91.8082 135.573L91.4406 123.639L91.0278 109.5L88.0278 93V104C88.0278 105 88.5278 112.5 88.5278 115C88.5278 117 88.2811 120.676 88.1577 122.264C87.8028 126.738 88.1577 143.045 88.1577 143.045C88.1577 143.045 88.8992 142.266 90.2999 139.49C90.9636 138.252 91.4703 136.937 91.8082 135.573Z" fill="black"/>
<path d="M91.8082 135.573L91.4406 123.639L91.0278 109.5L88.0278 93V104C88.0278 105 88.5278 112.5 88.5278 115C88.5278 117 88.2811 120.676 88.1577 122.264C87.8028 126.738 88.1577 143.045 88.1577 143.045C88.1577 143.045 88.8992 142.266 90.2999 139.49C90.9636 138.252 91.4703 136.937 91.8082 135.573Z" fill="black"/>
<path d="M89.7995 70.0288L95.2246 66.0551C95.4986 65.851 95.7286 65.5937 95.9006 65.2985C96.0727 65.0034 96.1834 64.6765 96.2259 64.3375C94.8366 64.7892 93.5338 65.4728 92.3726 66.3593C90.4713 67.912 89.0326 69.0528 87.9362 70.4218C88.2568 70.4935 88.589 70.4955 88.9105 70.4277C89.232 70.3599 89.5351 70.2239 89.7995 70.0288Z" fill="#D2D6D5"/>
<path d="M121.051 66.0551L126.476 70.0288C126.739 70.2241 127.041 70.3608 127.361 70.4297C127.681 70.4985 128.013 70.498 128.333 70.4281C127.243 69.0528 125.798 67.893 123.896 66.3656C122.734 65.4781 121.428 64.7945 120.037 64.3439C120.082 64.6827 120.195 65.009 120.369 65.3031C120.543 65.5971 120.775 65.8529 121.051 66.0551Z" fill="#D2D6D5"/>
<path d="M95.1801 161.777C93.038 162.138 92.1 160.877 90.167 160.877C89.87 160.871 89.5755 160.931 89.3051 161.054C91.2698 162.322 94.2358 163.057 97.2336 163.526C97.0688 162.708 96.5871 161.536 95.1801 161.777Z" fill="#93091A"/>
<path d="M120.157 161.777C118.661 161.523 118.211 162.848 118.078 163.678C121.146 163.253 124.296 162.55 126.476 161.365C126.133 161.045 125.677 160.874 125.208 160.889C123.237 160.851 122.318 162.119 120.157 161.777Z" fill="#93091A"/>
<g style="mix-blend-mode:multiply">
<path d="M110.169 160.851C121.45 160.497 126.451 157.302 126.451 157.302L124.22 154.602C117.178 158.544 108.147 157.771 108.147 157.771C108.147 157.771 99.1159 158.576 92.0746 154.602L89.8438 157.296C89.8438 157.296 94.8379 160.465 106.125 160.845C106.715 160.845 108.147 160.877 108.147 160.877C108.908 160.851 109.573 160.851 110.169 160.851Z" fill="#C2C2C2"/>
</g>
<path d="M134.36 97.3509C133.961 96.8122 130.31 95.6777 130.31 95.6777C130.174 95.6283 130.027 95.6173 129.886 95.646C129.695 94.2771 128.054 93.9475 128.054 93.9475C127.889 94.5433 128.016 96.5777 128.054 98.5677C128.054 100.006 129.055 98.7642 129.581 97.3762L134.36 98.5677C134.418 98.4571 134.462 98.3401 134.493 98.2191C134.539 98.0739 134.551 97.9201 134.528 97.7695C134.505 97.619 134.447 97.4758 134.36 97.3509Z" fill="#595959"/>
<path d="M88.2213 93.8397C88.2213 93.8397 86.4848 94.1629 86.2693 95.5256C86.1661 95.5219 86.063 95.5369 85.9651 95.5699C85.9651 95.5699 82.3146 96.7044 81.9153 97.2431C81.8231 97.3791 81.7646 97.5351 81.7447 97.6983C81.7249 97.8614 81.7443 98.0269 81.8012 98.1811C81.8309 98.2772 81.8691 98.3705 81.9153 98.4599L86.6052 97.2938C87.1629 98.6691 88.1897 99.8923 88.2213 98.4599C88.2657 96.4699 88.3925 94.4355 88.2213 93.8397Z" fill="#595959"/>
<path d="M114.403 163.526H101.86C101.688 163.527 101.518 163.569 101.365 163.648C101.212 163.727 101.08 163.842 100.979 163.982C104.915 164.337 108.141 164.28 108.141 164.28C108.141 164.28 111.36 164.337 115.29 163.982C115.189 163.841 115.056 163.725 114.902 163.646C114.747 163.566 114.576 163.525 114.403 163.526Z" fill="#595959"/>
<path d="M49.4344 33.4157V32.5031C43.1917 30.5637 33.7801 30.5637 27.5375 32.5031V33.4094L49.4344 33.4157Z" fill="#595959"/>
<path d="M61.1845 47.4539C60.6585 42.9541 59.8346 40.6282 58.3516 38.7522C58.0359 38.8213 57.7091 38.822 57.3932 38.7542C57.0772 38.6864 56.7795 38.5517 56.52 38.3592L51.1836 34.4489C50.9133 34.2485 50.6867 33.9951 50.5178 33.7041C50.3489 33.4131 50.2412 33.0907 50.2012 32.7567L49.4344 32.5032H27.5185L26.7453 32.7567C26.7046 33.0905 26.5965 33.4127 26.4277 33.7035C26.2588 33.9944 26.0327 34.248 25.7629 34.4489L20.4202 38.3592C20.1609 38.5521 19.8631 38.687 19.5471 38.7548C19.2311 38.8226 18.9042 38.8217 18.5886 38.7522C17.1119 40.6535 16.2817 42.9541 15.7556 47.4539C14.3803 59.3625 16.7126 78.0779 16.6556 82.6917C16.3514 107.282 16.1486 122.252 17.7774 127.436C18.1799 128.486 18.944 129.358 19.9322 129.895C20.1989 129.775 20.4891 129.717 20.7814 129.724C22.6828 129.724 23.6081 130.992 25.7185 130.611C27.1065 130.377 27.5755 131.524 27.7403 132.335C29.0078 132.532 30.2437 132.677 31.4288 132.785C31.5275 132.647 31.6576 132.534 31.8086 132.455C31.9596 132.377 32.1271 132.336 32.2971 132.335H44.6367C44.8068 132.335 44.9745 132.376 45.1255 132.455C45.2766 132.533 45.4067 132.646 45.505 132.785C46.3922 132.703 47.3176 132.601 48.2492 132.475C48.3823 131.67 48.8259 130.364 50.2963 130.611C52.4004 130.966 53.3321 129.724 55.2334 129.724C55.4653 129.714 55.6968 129.75 55.9145 129.831C56.1321 129.911 56.3315 130.034 56.5009 130.193C57.8319 129.471 58.7952 128.564 59.1501 127.43C60.7852 122.246 60.5761 107.276 60.2719 82.6854C60.2085 78.0778 62.5598 59.3625 61.1845 47.4539Z" fill="#CECECE"/>
<path opacity="0.3" d="M51.0251 104.924C51.0251 108.227 49.713 111.395 47.3775 113.731C45.042 116.066 41.8744 117.378 38.5715 117.378C36.936 117.378 35.3166 117.056 33.8056 116.43C32.2947 115.804 30.9218 114.887 29.7654 113.731C27.4299 111.395 26.1178 108.227 26.1178 104.924V81.2087C26.1178 77.9057 27.4299 74.7381 29.7654 72.4026C32.1009 70.0671 35.2685 68.755 38.5715 68.755C41.8744 68.755 45.042 70.0671 47.3775 72.4026C49.713 74.7381 51.0251 77.9057 51.0251 81.2087V104.924Z" fill="white"/>
<path d="M56.9826 59.7807C56.8368 59.5018 56.4058 59.2483 55.6517 58.9188C53.1301 57.807 50.5009 56.9575 47.8055 56.3837C41.6438 55.1638 35.3026 55.1638 29.1409 56.3837C26.4478 56.9583 23.8208 57.8078 21.3011 58.9188C20.5469 59.2483 20.116 59.5082 19.9702 59.7807C19.9045 60.2828 19.9368 60.7929 20.0653 61.2827V61.3334L22.4356 74.8709L22.7271 76.506C25.0775 75.4232 27.577 74.699 30.1423 74.3575C35.6835 73.7832 41.2693 73.7832 46.8105 74.3575C49.3756 74.6994 51.8751 75.4236 54.2257 76.506L54.5109 74.8709L56.8812 61.3334V61.2827C57.0118 60.7933 57.0462 60.2832 56.9826 59.7807Z" fill="#646868"/>
<path d="M53.3257 112.029C53.2053 111.44 53.0659 110.85 52.9011 110.267C52.9011 110.267 52.6919 110.375 52.2673 110.54C50.7209 111.174 46.2781 112.606 38.4701 112.606C33.7884 112.671 29.1284 111.96 24.6791 110.502C24.2608 110.356 24.0454 110.261 24.0454 110.261C23.8869 110.825 23.7538 111.395 23.6334 111.966C22.9339 115.548 22.7313 119.21 23.0313 122.848C25.4883 123.868 28.0491 124.618 30.6683 125.085C34.1224 125.719 42.8177 125.719 46.2718 125.085C48.8804 124.616 51.4304 123.866 53.8771 122.848C54.1894 119.233 54.0039 115.593 53.3257 112.029Z" fill="#646868"/>
<path d="M19.1527 90.3857L22.2708 91.4441L21.7321 77.444L18.7597 60.8645C18.7597 60.8645 18.4999 65.1171 18.7597 71.214C18.9245 75.0737 19.3935 80.3784 19.3935 83.8008C19.3681 87.052 19.2541 89.2512 19.1527 90.3857Z" fill="#646868"/>
<path d="M57.7875 90.3857L54.6693 91.4441L55.208 77.444L58.1868 60.8582C58.1868 60.8582 58.4466 65.1108 58.1868 71.2077C58.022 75.0674 57.553 80.372 57.553 83.7944C57.572 87.052 57.6734 89.2829 57.7875 90.3857Z" fill="#646868"/>
<path d="M19.0639 91.6786L22.2962 93.0285L22.6574 104.734C22.3222 106.075 21.8219 107.37 21.1681 108.588C20.6135 109.836 19.9068 111.011 19.0639 112.086C19.0639 112.086 18.7027 96.0643 19.0639 91.6786Z" fill="#646868"/>
<path d="M57.8826 91.6786L54.6503 93.0285L54.2891 104.734C54.6213 106.075 55.1195 107.37 55.7721 108.588C56.327 109.836 57.0337 111.011 57.8762 112.086C57.8762 112.086 58.2375 96.0643 57.8826 91.6786Z" fill="#646868"/>
<path d="M20.4202 38.3591L25.7629 34.4488C26.0327 34.2479 26.2589 33.9943 26.4277 33.7035C26.5966 33.4126 26.7046 33.0905 26.7453 32.7566C25.3744 33.2002 24.0886 33.8731 22.9426 34.7466C21.3517 35.9215 19.89 37.2621 18.5823 38.7458C18.8984 38.8171 19.2262 38.8195 19.5434 38.7528C19.8605 38.6861 20.1596 38.5518 20.4202 38.3591Z" fill="#D2D6D5"/>
<path d="M51.1835 34.4488L56.5262 38.3592C56.7858 38.5516 57.0835 38.6863 57.3995 38.7541C57.7154 38.8219 58.0422 38.8212 58.3578 38.7521C57.0526 37.2682 55.5931 35.9276 54.0038 34.753C52.8582 33.8789 51.5723 33.206 50.2012 32.7629C50.242 33.0959 50.3501 33.4171 50.519 33.7069C50.6878 33.9967 50.914 34.2491 51.1835 34.4488Z" fill="#D2D6D5"/>
<path d="M25.7122 130.618C23.6081 130.973 22.6764 129.73 20.7751 129.73C20.4828 129.723 20.1926 129.782 19.9258 129.901C21.8589 131.118 24.7742 131.872 27.7276 132.335C27.5755 131.53 27.1065 130.383 25.7122 130.618Z" fill="#93091A"/>
<path d="M50.29 130.618C48.8197 130.371 48.3887 131.676 48.2429 132.481C51.266 132.069 54.3588 131.372 56.482 130.199C56.3126 130.041 56.1132 129.918 55.8955 129.837C55.6778 129.757 55.4463 129.72 55.2144 129.73C53.3258 129.73 52.4005 130.973 50.29 130.618Z" fill="#93091A"/>
<g style="mix-blend-mode:multiply">
<path d="M40.4665 129.699C51.5702 129.35 56.4883 126.207 56.4883 126.207L54.2891 123.557C47.3556 127.436 38.4447 126.644 38.4447 126.644C38.4447 126.644 29.5719 127.436 22.6004 123.557L20.4012 126.207C20.4012 126.207 25.3193 129.375 36.423 129.699C36.9997 129.699 38.413 129.73 38.413 129.73C39.2243 129.73 39.8834 129.718 40.4665 129.699Z" fill="#C2C2C2"/>
</g>
<path d="M64.2583 65.2503C63.8653 64.7179 60.2718 63.6024 60.2718 63.6024C60.138 63.5535 59.9932 63.5426 59.8535 63.5707C59.6634 62.2208 58.0473 61.8976 58.0473 61.8976C57.8825 62.487 58.0093 64.4834 58.0473 66.4481C58.0473 67.8677 59.036 66.6446 59.5493 65.2756L64.2519 66.4481C64.3099 66.3375 64.3545 66.2205 64.385 66.0995C64.4296 65.9576 64.4413 65.8074 64.4193 65.6603C64.3974 65.5132 64.3423 65.373 64.2583 65.2503Z" fill="#595959"/>
<path d="M18.8675 61.7898C18.8675 61.7898 17.1626 62.113 16.9661 63.4503C16.865 63.4471 16.7641 63.4621 16.6683 63.4946C16.6683 63.4946 13.0557 64.6164 12.6755 65.1425C12.5849 65.2756 12.5273 65.4284 12.5074 65.5882C12.4876 65.748 12.5061 65.9102 12.5614 66.0614C12.5909 66.1576 12.6291 66.251 12.6755 66.3403L17.2894 65.1932C17.8407 66.5494 18.8484 67.7283 18.8801 66.3403C18.9118 64.3756 19.0132 62.3792 18.8675 61.7898Z" fill="#595959"/>
<path d="M44.6367 132.342H32.2908C32.1207 132.342 31.9533 132.383 31.8023 132.462C31.6513 132.54 31.5211 132.653 31.4225 132.792C35.2948 133.14 38.47 133.089 38.47 133.089C38.47 133.089 41.6389 133.146 45.5049 132.798C45.4074 132.658 45.2776 132.543 45.1265 132.464C44.9754 132.384 44.8074 132.342 44.6367 132.342Z" fill="#595959"/>
<path opacity="0.72" d="M108 0C91.1886 0 74.7547 4.98516 60.7766 14.3251C46.7984 23.665 35.9037 36.9402 29.4703 52.4719C23.0368 68.0036 21.3535 85.0943 24.6333 101.583C27.913 118.071 36.0085 133.217 47.896 145.104C59.7834 156.992 74.929 165.087 91.4174 168.367C107.906 171.646 124.996 169.963 140.528 163.53C156.06 157.096 169.335 146.202 178.675 132.223C188.015 118.245 193 101.811 193 85C193 62.4566 184.045 40.8365 168.104 24.8959C152.163 8.95533 130.543 0 108 0ZM108 145.379C96.0581 145.379 84.3844 141.838 74.4551 135.204C64.5258 128.569 56.7868 119.139 52.2168 108.106C47.6469 97.0733 46.4511 84.933 48.7809 73.2206C51.1106 61.5081 56.8612 50.7496 65.3054 42.3054C73.7496 33.8612 84.5082 28.1106 96.2206 25.7809C107.933 23.4511 120.073 24.6468 131.106 29.2168C142.139 33.7868 151.569 41.5257 158.204 51.455C164.838 61.3844 168.379 73.0581 168.379 85C168.379 101.014 162.018 116.371 150.695 127.695C139.371 139.018 124.014 145.379 108 145.379Z" fill="#0F6EFF" fill-opacity="0.5"/>
<path d="M101.778 48.4488V62.7341H114.491V48.4488H121.805L114.967 39.7471L108.134 31.0454L101.296 39.7471L94.464 48.4488H101.778Z" fill="black"/>
</g>
<defs>
<linearGradient id="paint0_linear_137_287" x1="73.5938" y1="122.246" x2="131.641" y2="109.646" gradientUnits="userSpaceOnUse">
<stop stop-color="#0F6EFF"/>
<stop offset="1" stop-color="#0F6EFF"/>
</linearGradient>
<clipPath id="clip0_137_287">
<rect width="193" height="170" fill="white"/>
</clipPath>
</defs>
</svg>
