<?xml version="1.0" encoding="UTF-8"?> <svg xmlns="http://www.w3.org/2000/svg" width="251" height="185" viewBox="0 0 251 185" fill="none"> <path d="M157.399 27.3931H134.964V159.314H157.399V27.3931Z" fill="#E9E9E9"></path> <path d="M220.221 94.9218H187.466V141.534H220.221V94.9218Z" fill="#E9E9E9"></path> <path d="M191.305 76.5844H173.246V159.314H191.305V76.5844Z" fill="#E9E9E9"></path> <path d="M197.816 133.21H184.634V159.314H197.816V133.21Z" fill="#E9E9E9"></path> <path d="M179.75 107.107H153.469V159.314H179.75V107.107Z" fill="#E9E9E9"></path> <path d="M137.811 89.425H79.5626V159.314H137.811V89.425Z" fill="#E9E9E9"></path> <path d="M53.9251 159.314H237.681V148.004H65.2901C62.2779 148.004 59.3891 149.195 57.2592 151.316C55.1292 153.437 53.9327 156.314 53.9327 159.314H53.9251Z" fill="#E9E9E9"></path> <path d="M82.296 129.697H79.5626V159.314H82.296V129.697Z" fill="#E9E9E9"></path> <path d="M74.2322 82.5184H60.7774V159.321H74.2322V82.5184Z" fill="#E9E9E9"></path> <path d="M94.6983 54.771H73.6492V159.314H94.6983V54.771Z" fill="#E9E9E9"></path> <path d="M69.2273 108.961H51.9716V157.089H69.2273V108.961Z" fill="#E9E9E9"></path> <path d="M76.7914 99.77H56.9007V158.575H76.7914V99.77Z" fill="#E9E9E9"></path> <path d="M127.862 15.344H115.785V159.314H127.862V15.344Z" fill="#E9E9E9"></path> <path d="M94.0925 112.965H83.9996V159.314H94.0925V112.965Z" fill="#E9E9E9"></path> <path d="M91.6015 122.511H81.4479V159.314H91.6015V122.511Z" fill="#A2D4DC"></path> <path d="M112.757 89.885H97.9692V159.321H112.757V89.885Z" fill="#D3D3D3"></path> <path d="M143.391 45.64H124.576V159.321H143.391V45.64Z" fill="#D3D3D3"></path> <path d="M170.377 93.9038H147.442V159.314H170.377V93.9038Z" fill="#A2D4DC"></path> <path d="M121.812 132.554H85.3928V159.321H121.812V132.554Z" fill="#A2D4DC"></path> <path d="M131.231 111.812H112.764V159.314H131.231V111.812Z" fill="#A2D4DC"></path> <path d="M94.8119 146.247H76.3447V159.314H94.8119V146.247Z" fill="#A2D4DC"></path> <path d="M151.448 129.335H124.576V159.314H151.448V129.335Z" fill="#A2D4DC"></path> <path d="M227.028 119.186H167.469V159.314H227.028V119.186Z" fill="#D3D3D3"></path> <path d="M227.02 142.311V159.314H237.916V153.154C237.914 150.277 236.765 147.519 234.722 145.486C232.679 143.453 229.908 142.311 227.02 142.311Z" fill="#D3D3D3"></path> <path d="M222.477 132.698H212.157V159.314H222.477V132.698Z" fill="#D3D3D3"></path> <path d="M56.4086 172.177C87.5622 172.177 112.817 169.814 112.817 166.899C112.817 163.984 87.5622 161.621 56.4086 161.621C25.255 161.621 0 163.984 0 166.899C0 169.814 25.255 172.177 56.4086 172.177Z" fill="#E9E9E9"></path> <path d="M56.4086 171.423C83.3805 171.423 105.246 169.567 105.246 167.276C105.246 164.986 83.3805 163.129 56.4086 163.129C29.4367 163.129 7.57162 164.986 7.57162 167.276C7.57162 169.567 29.4367 171.423 56.4086 171.423Z" fill="#D3D3D3"></path> <path d="M27.8787 71.819C35.803 71.819 42.2269 65.4219 42.2269 57.5306C42.2269 49.6393 35.803 43.2422 27.8787 43.2422C19.9544 43.2422 13.5305 49.6393 13.5305 57.5306C13.5305 65.4219 19.9544 71.819 27.8787 71.819Z" fill="#E9E9E9"></path> <path d="M182.567 42.4883C180.101 42.4883 177.736 43.4638 175.992 45.2002C174.249 46.9367 173.269 49.2918 173.269 51.7475C173.269 56.8596 182.567 67.7098 182.567 67.7098C182.567 67.7098 191.865 56.8672 191.865 51.7475C191.865 49.2918 190.885 46.9367 189.142 45.2002C187.398 43.4638 185.033 42.4883 182.567 42.4883ZM182.567 56.9049C181.544 56.8989 180.546 56.5914 179.698 56.0211C178.85 55.4508 178.191 54.6432 177.804 53.7003C177.416 52.7574 177.318 51.7214 177.521 50.723C177.725 49.7245 178.22 48.8084 178.946 48.0901C179.671 47.3719 180.594 46.8836 181.598 46.6871C182.602 46.4905 183.641 46.5944 184.586 46.9856C185.531 47.3768 186.338 48.0379 186.905 48.8853C187.473 49.7328 187.776 50.7287 187.776 51.7475C187.776 52.4273 187.641 53.1004 187.379 53.7281C187.117 54.3558 186.733 54.9257 186.249 55.405C185.764 55.8843 185.19 56.2636 184.558 56.521C183.926 56.7784 183.25 56.9088 182.567 56.9049Z" fill="#E9E9E9"></path> <path d="M98.628 102.967C101.931 102.967 104.61 100.3 104.61 97.0104C104.61 93.7206 101.931 91.0537 98.628 91.0537C95.3244 91.0537 92.6464 93.7206 92.6464 97.0104C92.6464 100.3 95.3244 102.967 98.628 102.967Z" fill="#A6A8AB"></path> <path d="M26.0312 2.23761e-06H89.4587C92.8431 0.00200121 96.0882 1.34224 98.4806 3.72608C100.873 6.10993 102.217 9.34227 102.217 12.7125V156.403C102.217 158.073 101.887 159.726 101.245 161.268C100.604 162.811 99.6633 164.212 98.4779 165.393C97.2925 166.573 95.8852 167.509 94.3364 168.148C92.7876 168.787 91.1276 169.116 89.4511 169.116H26.0312C22.6455 169.116 19.3985 167.777 17.0045 165.393C14.6104 163.008 13.2655 159.775 13.2655 156.403V12.705C13.2655 11.0359 13.5957 9.3832 14.2374 7.84126C14.879 6.29933 15.8194 4.89841 17.0049 3.71854C18.1904 2.53868 19.5978 1.60299 21.1466 0.964947C22.6953 0.326905 24.3552 -0.000988313 26.0312 2.23761e-06Z" fill="#333333"></path> <path d="M97.5225 13.723V155.167C97.5225 156.315 97.2953 157.452 96.8538 158.513C96.4123 159.574 95.7652 160.537 94.9495 161.349C94.1338 162.16 93.1656 162.804 92.1 163.243C91.0344 163.681 89.8925 163.907 88.7394 163.906H26.743C24.4156 163.906 22.1835 162.985 20.5378 161.346C18.892 159.707 17.9675 157.485 17.9675 155.167V13.723C17.9675 11.4052 18.892 9.18246 20.5378 7.5436C22.1835 5.90473 24.4156 4.98403 26.743 4.98403H88.7394C90.5725 4.98048 92.3609 5.54768 93.8543 6.60627C95.3477 7.66487 96.4714 9.16189 97.0682 10.8879C97.3739 11.8019 97.5274 12.7596 97.5225 13.723Z" fill="#E6E7E8"></path> <path d="M97.5225 13.7229V56.2035L69.8103 29.5268C69.8103 29.5268 83.2121 15.6833 92.7978 5.97168C94.2247 6.70635 95.4206 7.81852 96.2542 9.18596C97.0877 10.5534 97.5265 12.1232 97.5225 13.7229Z" fill="#B7EAD1"></path> <path d="M54.8867 114.541L42.6737 130.745C42.6737 130.745 38.1307 154.564 37.949 154.933C37.949 155.144 37.8884 158.839 37.8127 163.906H26.743C24.4156 163.906 22.1835 162.985 20.5378 161.346C18.892 159.707 17.9675 157.485 17.9675 155.167V80.5203L54.8867 114.541Z" fill="#B7EAD1"></path> <path d="M75.6632 32.1886L97.0531 10.8879C96.4562 9.16189 95.3325 7.66487 93.8391 6.60627C92.3457 5.54768 90.5574 4.98048 88.7243 4.98403H82.0234L65.1917 21.7682L48.3372 4.98403H44.6726L43.3475 6.32616L62.0192 24.9275L44.93 41.9454L17.9675 15.0802V35.9435L34.4585 52.3657L17.9675 68.7955V84.1018L48.1858 114.194L46.3611 116.011C41.2651 121.058 37.2252 127.062 34.475 133.674C31.7249 140.286 30.3193 147.376 30.3395 154.534V163.906H45.142V154.534C45.127 149.314 46.1518 144.143 48.1573 139.321C50.1627 134.498 53.1088 130.12 56.825 126.439L58.6574 124.615L75.5497 141.444L60.0278 156.894L67.0694 163.906H73.4448L66.4031 156.894L78.7449 144.603L80.3274 146.179L97.5452 129.033V116.396L80.3274 133.542L65.0024 118.296L80.0396 103.299C83.5499 99.7972 85.5214 95.0516 85.5214 90.1037C85.5214 85.1559 83.5499 80.4103 80.0396 76.9086L76.0494 72.935L93.131 55.9096L97.5149 60.2753V53.9567L75.6632 32.1886ZM72.4907 35.3478L55.4016 52.3657L72.8769 69.7682L89.966 52.7804L72.4907 35.3478ZM69.5681 87.329L44.93 62.7936L27.0988 80.5505L54.5157 107.876L69.5529 92.9011C70.2961 92.1637 70.7151 91.1629 70.718 90.1182C70.7208 89.0735 70.3072 88.0703 69.5681 87.329Z" fill="white"></path> <path d="M73.5129 2.04333H41.9771C40.4968 2.04333 39.2967 3.23668 39.2967 4.70875C39.2967 6.18081 40.4968 7.37416 41.9771 7.37416H73.5129C74.9932 7.37416 76.1932 6.18081 76.1932 4.70875C76.1932 3.23668 74.9932 2.04333 73.5129 2.04333Z" fill="#333333"></path> <path d="M83.1743 56.6635V56.5504C83.1744 52.5903 82.2366 48.686 80.4372 45.1545C78.6378 41.6229 76.0274 38.5638 72.818 36.2254C69.6086 33.887 65.8907 32.3352 61.9661 31.6962C58.0415 31.0571 54.0209 31.3487 50.2307 32.5473C46.4405 33.746 42.9876 35.8178 40.1524 38.5946C37.3171 41.3714 35.1794 44.775 33.9128 48.5289C32.6462 52.2828 32.2865 56.2812 32.8628 60.1996C33.4391 64.1179 34.9352 67.8456 37.2297 71.0801C41.8105 77.5193 52.9181 87.9925 57.885 98.3525H58.0062C62.9656 87.9925 74.0807 77.5193 78.6616 71.0801C81.5426 67.0385 83.1265 62.2225 83.2046 57.2667V56.656L83.1743 56.6635Z" fill="black"></path> <path d="M48.6855 52.6372V68.0642H54.7428V52.6372C54.7448 51.398 55.2401 50.2101 56.12 49.3338C56.9999 48.4575 58.1928 47.9644 59.4372 47.9624C60.0542 47.9577 60.6658 48.0768 61.2356 48.3126C61.8054 48.5483 62.3216 48.8959 62.7536 49.3347L67.0619 45.0444C65.5524 43.5528 63.6338 42.5391 61.5473 42.1306C59.4607 41.7221 57.2995 41.9372 55.3354 42.7487C53.3713 43.5603 51.6921 44.932 50.5088 46.6915C49.3256 48.451 48.6912 50.5196 48.6855 52.6372Z" fill="url(#paint0_linear)"></path> <path d="M62.799 45.0443C62.514 45.3248 62.2877 45.6588 62.1333 46.0271C61.9789 46.3953 61.8993 46.7904 61.8993 47.1894C61.8993 47.5885 61.9789 47.9836 62.1333 48.3518C62.2877 48.72 62.514 49.0541 62.799 49.3346C63.2382 49.7658 63.5863 50.2801 63.823 50.8473C64.0596 51.4144 64.18 52.023 64.1771 52.6371C64.1751 53.8764 63.6798 55.0643 62.7999 55.9405C61.92 56.8168 60.7271 57.31 59.4827 57.312C56.6251 57.312 53.8846 58.4424 51.864 60.4546C49.8434 62.4667 48.7083 65.1958 48.7083 68.0415C48.7083 68.8464 49.0293 69.6183 49.6009 70.1874C50.1724 70.7566 50.9476 71.0763 51.7558 71.0763C52.5641 71.0763 53.3393 70.7566 53.9108 70.1874C54.4823 69.6183 54.8034 68.8464 54.8034 68.0415C54.8054 66.8022 55.3006 65.6143 56.1806 64.7381C57.0605 63.8618 58.2534 63.3686 59.4978 63.3666C61.6295 63.3669 63.7135 62.7378 65.4864 61.559C67.2592 60.3801 68.6414 58.7044 69.4582 56.7436C70.275 54.7827 70.4897 52.6248 70.0753 50.5424C69.6609 48.46 68.636 46.5467 67.13 45.0443C66.8479 44.757 66.5111 44.5288 66.1392 44.3729C65.7674 44.2171 65.368 44.1368 64.9645 44.1368C64.5611 44.1368 64.1617 44.2171 63.7898 44.3729C63.4179 44.5288 63.0811 44.757 62.799 45.0443Z" fill="url(#paint1_linear)"></path> <path d="M54.8867 68.0415C54.8867 67.436 54.7064 66.8442 54.3686 66.3407C54.0308 65.8373 53.5507 65.445 52.989 65.2133C52.4273 64.9816 51.8092 64.9209 51.2129 65.039C50.6166 65.1572 50.0688 65.4487 49.6389 65.8769C49.209 66.305 48.9162 66.8504 48.7976 67.4443C48.679 68.0381 48.7399 68.6536 48.9725 69.213C49.2052 69.7724 49.5992 70.2505 50.1047 70.5868C50.6103 70.9232 51.2046 71.1028 51.8126 71.1028C52.6273 71.1008 53.408 70.7776 53.9841 70.2039C54.5602 69.6303 54.8847 68.8528 54.8867 68.0415Z" fill="#FDC000"></path> <path d="M68.0462 47.1933C68.0462 46.5833 67.8645 45.9871 67.5243 45.4799C67.184 44.9728 66.7003 44.5775 66.1345 44.3441C65.5686 44.1107 64.9459 44.0496 64.3452 44.1686C63.7445 44.2876 63.1927 44.5813 62.7596 45.0126C62.3265 45.4439 62.0316 45.9934 61.9121 46.5916C61.7926 47.1898 61.8539 47.8099 62.0883 48.3734C62.3227 48.9369 62.7196 49.4186 63.2289 49.7574C63.7381 50.0963 64.3369 50.2771 64.9494 50.2771C65.7664 50.2636 66.5462 49.9343 67.124 49.3589C67.7019 48.7835 68.0325 48.0069 68.0462 47.1933Z" fill="#50FFAA"></path> <path d="M250.288 162.262C250.704 162.315 251.219 162.662 248.531 163.385C234.084 167.254 195.204 176.302 180.386 179.604C162.366 183.623 149.456 184.008 134.578 184.008C119.7 184.008 75.0953 180.019 68.3339 178.873C61.5724 177.727 74.9666 172.516 92.7524 170.85C110.538 169.184 188.791 157.715 188.791 157.715C188.791 157.715 247.963 161.975 250.288 162.262Z" fill="#E9E9E9"></path> <path d="M234.152 162.194C234.486 162.232 234.91 162.518 232.729 163.107C221.001 166.243 189.442 173.587 177.456 176.271C162.828 179.536 152.356 179.845 140.272 179.845C128.188 179.845 89.542 177.131 84.0526 176.204C78.5632 175.276 91.8892 170.518 106.321 169.169C120.752 167.819 184.308 158.507 184.308 158.507C184.308 158.507 232.26 161.96 234.152 162.194Z" fill="#C5C5C5"></path> <path d="M234.266 147.581L219.577 154.624L186.724 158.975L161.942 160.196L123.327 158.273L134.57 129.387L229.163 131.996C229.163 131.996 233.176 135.012 234.137 138.782C235.099 142.552 234.266 147.581 234.266 147.581Z" fill="#151717"></path> <path d="M167.855 174.59C172.183 174.59 175.692 166.65 175.692 156.856C175.692 147.061 172.183 139.122 167.855 139.122C163.527 139.122 160.019 147.061 160.019 156.856C160.019 166.65 163.527 174.59 167.855 174.59Z" fill="#0C2635"></path> <path d="M167.855 139.122H177.698L177.88 175.035L167.855 174.598V139.122Z" fill="#0C2635"></path> <path d="M177.88 175.035C182.375 175.035 186.02 166.994 186.02 157.074C186.02 147.155 182.375 139.114 177.88 139.114C173.385 139.114 169.741 147.155 169.741 157.074C169.741 166.994 173.385 175.035 177.88 175.035Z" fill="#0C2635"></path> <path d="M178.403 170.82C181.714 170.82 184.399 164.666 184.399 157.075C184.399 149.483 181.714 143.329 178.403 143.329C175.091 143.329 172.406 149.483 172.406 157.075C172.406 164.666 175.091 170.82 178.403 170.82Z" fill="#F0F2F8"></path> <path d="M178.531 169.455C181.446 169.455 183.809 163.912 183.809 157.074C183.809 150.237 181.446 144.694 178.531 144.694C175.617 144.694 173.254 150.237 173.254 157.074C173.254 163.912 175.617 169.455 178.531 169.455Z" fill="#F0F2F8"></path> <path d="M179.266 143.759L178.198 154.963L183.619 150.907L184.036 153.274L178.403 157.542L182.953 165.15L182.257 167.231L177.532 159.404L175.684 169.003L174.692 167.276L176.426 157.512L172.625 154.745L172.936 151.947L176.646 154.775L177.698 143.615L179.266 143.759Z" fill="#F0F2F8"></path> <path d="M177.532 161.056C178.489 161.056 179.266 159.273 179.266 157.074C179.266 154.876 178.489 153.093 177.532 153.093C176.574 153.093 175.798 154.876 175.798 157.074C175.798 159.273 176.574 161.056 177.532 161.056Z" fill="#A6B3C6"></path> <path d="M176.866 158.975C177.321 158.975 177.691 158.124 177.691 157.074C177.691 156.025 177.321 155.174 176.866 155.174C176.41 155.174 176.04 156.025 176.04 157.074C176.04 158.124 176.41 158.975 176.866 158.975Z" fill="#F0F2F8"></path> <path d="M221.796 162.948C224.76 162.948 227.164 156.943 227.164 149.534C227.164 142.126 224.76 136.121 221.796 136.121C218.831 136.121 216.427 142.126 216.427 149.534C216.427 156.943 218.831 162.948 221.796 162.948Z" fill="#0C2635"></path> <path d="M221.796 136.121H228.542L228.663 163.28L221.796 162.948V136.121Z" fill="#0C2635"></path> <path d="M228.663 163.28C231.741 163.28 234.236 157.2 234.236 149.7C234.236 142.2 231.741 136.121 228.663 136.121C225.585 136.121 223.09 142.2 223.09 149.7C223.09 157.2 225.585 163.28 228.663 163.28Z" fill="#0C2635"></path> <path d="M229.026 160.098C231.297 160.098 233.138 155.443 233.138 149.7C233.138 143.958 231.297 139.302 229.026 139.302C226.756 139.302 224.915 143.958 224.915 149.7C224.915 155.443 226.756 160.098 229.026 160.098Z" fill="#F0F2F8"></path> <path d="M229.117 159.065C231.116 159.065 232.737 154.872 232.737 149.7C232.737 144.528 231.116 140.336 229.117 140.336C227.118 140.336 225.498 144.528 225.498 149.7C225.498 154.872 227.118 159.065 229.117 159.065Z" fill="#F0F2F8"></path> <path d="M229.609 139.627L228.883 148.102L232.6 145.033L232.88 146.827L229.026 150.047L232.138 155.808L231.661 157.384L228.428 151.457L227.164 158.726L226.482 157.414L227.671 150.032L225.066 147.936L225.278 145.817L227.823 147.958L228.542 139.521L229.609 139.627Z" fill="#F0F2F8"></path> <path d="M228.421 152.709C229.077 152.709 229.609 151.362 229.609 149.7C229.609 148.039 229.077 146.692 228.421 146.692C227.764 146.692 227.232 148.039 227.232 149.7C227.232 151.362 227.764 152.709 228.421 152.709Z" fill="#A6B3C6"></path> <path d="M227.974 151.133C228.288 151.133 228.542 150.492 228.542 149.7C228.542 148.909 228.288 148.268 227.974 148.268C227.66 148.268 227.406 148.909 227.406 149.7C227.406 150.492 227.66 151.133 227.974 151.133Z" fill="#F0F2F8"></path> <path d="M99.5668 170.699C104.305 170.699 108.145 163.452 108.145 154.511C108.145 145.57 104.305 138.322 99.5668 138.322C94.829 138.322 90.9882 145.57 90.9882 154.511C90.9882 163.452 94.829 170.699 99.5668 170.699Z" fill="#0C2635"></path> <path d="M99.5668 138.322H110.349L110.546 171.099L99.5668 170.699V138.322Z" fill="#0C2635"></path> <path d="M110.546 171.107C115.468 171.107 119.457 163.768 119.457 154.714C119.457 145.661 115.468 138.322 110.546 138.322C105.624 138.322 101.634 145.661 101.634 154.714C101.634 163.768 105.624 171.107 110.546 171.107Z" fill="#0C2635"></path> <path d="M111.121 167.261C114.751 167.261 117.693 161.644 117.693 154.714C117.693 147.785 114.751 142.168 111.121 142.168C107.491 142.168 104.549 147.785 104.549 154.714C104.549 161.644 107.491 167.261 111.121 167.261Z" fill="#56595B"></path> <path d="M111.265 166.009C114.46 166.009 117.05 160.952 117.05 154.714C117.05 148.476 114.46 143.419 111.265 143.419C108.07 143.419 105.48 148.476 105.48 154.714C105.48 160.952 108.07 166.009 111.265 166.009Z" fill="#56595B"></path> <path d="M112.06 142.56L110.894 152.784L116.838 149.082L117.292 151.246L111.121 155.137L116.103 162.081L115.339 163.981L110.16 156.833L108.145 165.595L107.048 164.019L108.956 155.114L104.791 152.588L105.132 150.024L109.198 152.611L110.349 142.424L112.06 142.56Z" fill="#56595B"></path> <path d="M110.16 158.349C111.209 158.349 112.06 156.722 112.06 154.714C112.06 152.707 111.209 151.08 110.16 151.08C109.11 151.08 108.259 152.707 108.259 154.714C108.259 156.722 109.11 158.349 110.16 158.349Z" fill="#A6B3C6"></path> <path d="M109.44 156.449C109.942 156.449 110.349 155.672 110.349 154.714C110.349 153.757 109.942 152.98 109.44 152.98C108.938 152.98 108.532 153.757 108.532 154.714C108.532 155.672 108.938 156.449 109.44 156.449Z" fill="#F0F2F8"></path> <path d="M234.266 147.581V144.452C234.266 144.452 233.092 134.575 229.11 133.972C224.271 133.218 222.583 139.25 221.894 143.774C221.205 148.298 220.327 154.79 217.843 155.159C212.543 155.974 206.365 156.788 200.784 157.308C195.204 157.828 186.656 158.952 186.656 158.952C187.346 157.541 187.716 155.997 187.738 154.428C187.89 151.412 189.336 134.168 178.297 133.218C169.801 132.464 167.144 144.188 166.061 149.203C164.978 154.217 163.539 159.276 161.881 160.204C160.223 161.131 151.955 161.199 145.14 160.837C138.326 160.475 95.7129 158.809 91.3819 158.288C87.0509 157.768 83.0531 156.245 81.7962 151.223C80.5393 146.202 78.6994 139.416 80.0926 136.942C81.4858 134.469 86.0818 115.076 86.0818 115.076L84.7265 112.136C84.7265 112.136 88.8227 109.459 90.2916 108.366C94.9103 105.01 111.492 98.7898 115.619 96.6786C124.008 92.3883 125.348 91.5966 137.205 91.0839C149.081 90.5595 160.977 90.698 172.837 91.4986C184.399 92.2903 197.763 98.0584 204.116 103.759C210.468 109.459 220.463 122.518 220.463 122.518C220.463 122.518 227.012 124.893 229.723 127.314C232.434 129.734 233.039 130.91 233.721 133.595C235.576 140.811 235.296 143.789 234.266 147.581Z" fill="url(#paint2_linear)"></path> <path d="M219.259 122.36C219.259 122.36 182.544 111.231 174.586 109.142C166.826 107.099 164.743 105.614 168.037 102.59C174.7 96.4223 178.569 94.7258 186.262 96.2036C192.478 97.3949 199.497 100.351 204.048 104.498C209.999 109.919 219.259 122.36 219.259 122.36Z" fill="#6C8094"></path> <path d="M174.602 109.142C182.544 111.238 219.274 122.36 219.274 122.36C219.274 122.36 210.007 109.919 204.078 104.505C199.535 100.351 192.501 97.3949 186.292 96.2111C184.764 95.8989 183.21 95.7323 181.651 95.7135C176.737 95.7135 173.246 97.8096 168.067 102.605C164.789 105.614 166.848 107.069 174.602 109.142ZM168.893 103.495C174.253 98.5335 177.35 96.935 181.628 96.935C183.109 96.9538 184.584 97.1129 186.035 97.41C192.622 98.6767 199.202 101.738 203.222 105.41C207.243 109.082 212.831 116.057 215.95 120.068C206.44 117.195 181.295 109.625 174.92 107.943C173.026 107.494 171.172 106.891 169.377 106.141C167.961 105.485 167.817 105.056 167.802 105.01C167.787 104.965 167.719 104.588 168.9 103.495H168.893Z" fill="#0C2635"></path> <path d="M219.259 122.36C219.259 122.36 182.544 111.231 174.586 109.142C166.826 107.099 164.743 105.614 168.037 102.59C180.477 102.085 187.723 104 195.037 106.752C213.179 113.553 219.259 122.36 219.259 122.36Z" fill="#0C2635"></path> <path opacity="0.1" d="M222.901 131.197L223.946 128.935C223.946 128.935 188.647 120.053 175.851 116.871C162.684 113.629 157.255 111.336 145.345 110.884C133.874 110.447 118.397 110.379 109.13 110.718C96.5079 111.178 84.7643 112.151 84.7643 112.151L86.1196 115.091C86.1196 115.091 98.2342 113.96 110.258 113.485C122.282 113.01 147.033 112.965 154.931 114.239C162.828 115.514 221.19 129.689 221.19 129.689L220.493 136.151L222.901 131.197Z" fill="#231F20"></path> <path d="M129.361 119.352L121.146 113.644C121.146 113.644 138.432 113.108 152.432 114.533C158.731 115.174 162.086 119.389 165.788 124.283C156.203 120.875 129.361 119.352 129.361 119.352Z" fill="#0C2635"></path> <path d="M103.156 114.156L95.9779 119.789C92.1033 120.269 88.2586 120.964 84.4614 121.87L86.1196 115.084C86.1196 115.084 87.4674 115.084 90.8065 114.797C96.9168 114.36 103.156 114.156 103.156 114.156Z" fill="#0C2635"></path> <path d="M129.361 119.352C129.361 119.352 118.428 118.899 110.281 119.058C102.611 119.208 95.9855 119.812 95.9855 119.812L103.163 114.179C103.163 114.179 106.427 113.953 111.129 113.817C115.831 113.681 121.184 113.666 121.184 113.666L129.361 119.352Z" fill="#0C2635"></path> <path d="M122.335 126.861H99.4987L100.74 121.003L123.304 120.588L122.335 126.861Z" fill="white"></path> <path opacity="0.4" d="M203.396 149.859C196.733 149.859 187.617 151.193 189.48 152.166C191.342 153.139 201.92 152.92 207.031 152.777C212.142 152.633 221.818 151.962 217.873 151.216C213.101 150.315 208.254 149.861 203.396 149.859Z" fill="white"></path> <path d="M90.3295 108.426C90.3295 108.426 99.4987 107.838 111.931 107.37C125.863 106.85 138.841 106.616 148.139 106.752C156.104 100.675 165.826 91.1215 172.875 91.5589C172.875 91.5589 154.787 90.2544 144.573 90.6239C135.07 90.9707 129.164 91.5287 125.916 91.8906C116.838 92.9236 106.502 99.0311 90.3295 108.426Z" fill="#647A7A"></path> <path d="M90.3295 108.426C90.3295 108.426 99.4987 107.838 111.931 107.37C123.523 106.941 134.449 106.722 143.142 106.722C144.898 106.722 146.571 106.722 148.131 106.722C155.915 100.78 165.387 91.5136 172.36 91.5136H172.837C172.837 91.5136 159.004 90.556 148.684 90.556C147.223 90.556 145.837 90.556 144.565 90.6239C135.063 90.9707 129.157 91.5287 125.908 91.8906C116.838 92.9236 106.502 99.0311 90.3295 108.426ZM111.886 106.164C105.147 106.413 99.3321 106.707 95.4327 106.918C108.865 99.1366 118.102 94.0471 126.06 93.1423C131.14 92.5692 137.417 92.1394 144.618 91.8755C145.814 91.8303 147.185 91.8077 148.692 91.8077C154.12 91.8077 160.602 92.0942 165.478 92.3581C161.283 94.5372 156.831 98.1715 152.477 101.723C150.819 103.073 149.252 104.354 147.73 105.531C146.291 105.531 144.754 105.531 143.187 105.531C134.131 105.493 123.024 105.719 111.878 106.141L111.886 106.164Z" fill="#6C8094"></path> <path opacity="0.4" d="M129.361 119.352L123.417 127.495C123.306 127.649 123.159 127.774 122.989 127.861C122.82 127.947 122.631 127.992 122.441 127.992H99.4457C99.1894 127.993 98.9395 127.912 98.7325 127.762C98.5255 127.611 98.3722 127.399 98.2948 127.156L95.9779 119.796L100.74 121.003L123.107 120.588L129.361 119.352Z" fill="white"></path> <path opacity="0.1" d="M100.74 121.003L95.9779 119.796C100.71 119.065 105.485 118.639 110.273 118.522C116.644 118.448 123.014 118.727 129.354 119.359L123.296 120.596L100.74 121.003Z" fill="#231F20"></path> <path d="M162.033 160.897C163.123 159.686 163.843 158.19 164.107 156.584C164.107 156.584 147.919 156.056 147.056 155.182C145.258 153.269 143.249 151.564 141.067 150.1C139.598 149.15 136.266 148.592 132.39 148.456C128.513 148.32 89.542 146.948 86.1348 147.129C82.7276 147.31 83.3409 153.644 83.3409 154.729C83.3409 155.815 87.0812 158.047 90.337 158.499C99.5063 159.834 127.536 160.98 134.661 161.289C141.786 161.598 162.033 160.897 162.033 160.897Z" fill="#0C2635"></path> <path d="M219.865 153.063C219.865 153.063 211.983 154.043 204.6 154.571C197.218 155.099 187.716 155.114 187.716 155.114C187.716 155.114 187.027 157.851 186.898 158.13C186.807 158.315 186.676 158.479 186.515 158.609C186.355 158.739 186.167 158.833 185.967 158.884L185.914 159.962C185.914 159.962 199.618 157.776 204.6 157.188C215.912 155.853 217.972 156.803 218.699 156.057C219.426 155.31 219.865 153.063 219.865 153.063Z" fill="#0C2635"></path> <g opacity="0.2"> <path opacity="0.2" d="M172.633 134.967C172.633 134.967 168.544 128.498 165.584 123.891" stroke="#404041" stroke-width="0.65" stroke-linejoin="round"></path> <path opacity="0.2" d="M148.131 106.752L144.239 110.892L145.633 114.036C145.633 114.036 144.981 128.912 144.557 132.991C144.255 135.909 143.626 138.405 139.136 138.405C121.169 138.405 93.343 138.119 87.4749 137.704C84.6659 137.508 84.4463 135.6 84.6129 132.516C84.7794 129.433 87.4371 114.843 87.4371 114.843L86.6799 111.887L90.3143 108.426" stroke="#404041" stroke-width="0.65" stroke-linejoin="round"></path> <path opacity="0.2" d="M175.851 96.9048L174.965 109.24L177.532 117.293L177.88 120.581L182.506 134.643" stroke="#404041" stroke-width="0.65" stroke-linejoin="round"></path> <path opacity="0.2" d="M217.01 156.494L218.82 153.063V151.178C218.82 151.178 220.667 136.588 220.917 132.735C220.975 131.219 221.131 129.707 221.387 128.211L219.251 122.3" stroke="#404041" stroke-width="0.65" stroke-linejoin="round"></path> <path opacity="0.2" d="M192.91 98.0659L200.572 116.743L202.488 123.529L202.412 126.884C202.412 126.884 203.73 136.626 203.571 140.456C203.412 144.286 203.003 149.949 203.465 151.186C203.646 151.825 204.045 152.382 204.593 152.761C204.593 152.761 204.903 153.304 204.343 155.152C203.783 156.999 203.677 157.414 203.677 157.414" stroke="#404041" stroke-width="0.65" stroke-linejoin="round"></path> </g> <path opacity="0.4" d="M86.1196 115.106L92.0255 114.729C92.0255 114.729 90.1402 125.376 89.3754 127.992C87.1796 135.472 82.6139 130.767 80.8573 135.095C82.8184 128.739 86.1196 115.106 86.1196 115.106Z" fill="white"></path> <path opacity="0.1" d="M89.2694 136.166C89.4663 133.233 92.0255 114.729 92.0255 114.729C110.606 113.727 124 113.221 145.633 114.036C145.633 114.036 144.769 132.32 144.005 135.713C143.24 139.106 138.705 138.692 139.083 141.987C139.462 145.282 140.84 152.136 142.286 154.247C143.719 156.076 145.547 157.559 147.636 158.587C149.724 159.614 152.018 160.159 154.348 160.181C160.405 160.181 161.919 160.181 161.919 160.181L160.405 160.935C155.514 161.093 140.544 161.546 134.661 161.289C127.536 160.98 99.5063 159.834 90.337 158.499C89.2967 158.334 88.2799 158.046 87.3084 157.64C84.098 155.793 83.6588 146.224 83.6588 141.972C83.6437 138.925 89.0726 139.091 89.2694 136.166Z" fill="#151717"></path> <path opacity="0.1" d="M151.591 138.255C152.848 131.657 153.916 125.354 157.104 123.318C159.882 121.546 172.05 123.687 176.616 124.728C178.69 125.188 219.017 136.324 219.017 136.324C218.492 138.072 218.087 139.853 217.805 141.655C217.487 143.359 217.124 145.93 216.889 147.687C216.73 148.863 216.208 149.67 215.625 149.632H191.918C190.941 149.572 190.055 148.411 189.646 146.616C189.147 144.573 188.503 140.494 187.791 138.247C186.08 132.848 182.817 129.772 179.584 128.927C173.307 127.299 166.712 130.277 161.692 141.866C161.245 142.907 160.859 143.925 160.534 144.882C160.072 146.239 158.429 154.224 157.141 154.187C155.854 154.149 150.07 149.731 150.236 145.184C150.274 143.058 150.796 142.424 151.591 138.255Z" fill="#151717"></path> <path opacity="0.4" d="M107.729 136.897C90.6323 136.965 84.628 136.958 80.9709 137.651C76.1932 138.579 94.1607 139.597 107.282 139.68C129.581 139.823 143.043 140.094 147.843 138.451C153.144 136.664 122.728 136.837 107.729 136.897Z" fill="white"></path> <path opacity="0.4" d="M145.375 110.892C133.904 110.454 84.8022 112.166 84.8022 112.166L90.3673 108.396C90.3673 108.396 111.924 107.265 117.512 107.152C125.204 107.001 148.616 106.111 154.953 107.152C159.239 107.906 182.491 114.209 190.139 116.2C197.127 118.032 215.988 123.28 226.187 126.816C231.01 128.49 232.456 130.194 232.456 130.194C232.456 130.194 225.96 127.427 223.946 128.935C223.946 128.935 188.647 120.053 175.851 116.871C162.684 113.644 157.255 111.352 145.375 110.892Z" fill="white"></path> <path fill-rule="evenodd" clip-rule="evenodd" d="M178.319 117.512L184.558 119.08L184.24 117.828L178.001 116.253L178.319 117.512Z" fill="#0C2635"></path> <path fill-rule="evenodd" clip-rule="evenodd" d="M178.365 117.308L184.604 118.876L184.278 117.625L178.039 116.049L178.365 117.308Z" fill="#F0F2F8"></path> <path fill-rule="evenodd" clip-rule="evenodd" d="M203.381 123.793L209 125.21L208.689 124.011L203.071 122.594L203.381 123.793Z" fill="#0C2635"></path> <path fill-rule="evenodd" clip-rule="evenodd" d="M203.419 123.597L209.037 125.022L208.727 123.815L203.109 122.398L203.419 123.597Z" fill="#F0F2F8"></path> <path d="M217.767 117.022C217.696 116.841 217.671 116.644 217.694 116.451C217.717 116.258 217.788 116.073 217.901 115.914C218.014 115.755 218.164 115.626 218.339 115.539C218.514 115.452 218.708 115.41 218.903 115.416C221.175 115.476 225.013 115.657 225.869 116.253C226.725 116.848 228.792 118.515 227.383 119.517C225.975 120.52 220.735 121.252 220.735 121.252L218.82 123.34C218.53 123.417 218.223 123.388 217.952 123.259C217.682 123.131 217.466 122.911 217.343 122.639C216.988 121.674 218.918 119.962 218.918 119.962L217.767 117.022Z" fill="url(#paint3_linear)"></path> <path opacity="0.1" d="M218.063 116.871C218.008 116.736 217.988 116.59 218.003 116.446C218.018 116.301 218.069 116.163 218.15 116.042C218.232 115.922 218.342 115.823 218.47 115.755C218.599 115.686 218.742 115.65 218.888 115.649C220.948 115.649 224.756 115.763 225.649 116.403C226.543 117.044 228.565 118.492 227.164 119.51C225.763 120.528 220.758 121.237 220.758 121.237L218.82 123.34C218.53 123.417 218.223 123.388 217.952 123.259C217.682 123.131 217.466 122.911 217.343 122.639C218.623 121.697 219.615 120.777 219.615 120.777L218.063 116.871Z" fill="#231F20"></path> <path d="M220.069 120.641L218.366 116.803C218.324 116.709 218.306 116.607 218.314 116.505C218.323 116.402 218.357 116.304 218.413 116.218C218.47 116.133 218.547 116.063 218.638 116.015C218.729 115.967 218.831 115.942 218.933 115.943C220.751 115.943 224.658 116.072 225.748 116.856C227.194 117.881 228.019 119.193 225.748 119.691C223.09 120.241 220.069 120.641 220.069 120.641Z" fill="#0C2635"></path> <path d="M90.3295 108.426C90.3295 108.426 99.4987 107.838 111.931 107.37C125.863 106.85 138.841 106.616 148.139 106.752C157.187 99.2121 166.091 93.0745 172.777 91.5514C164.221 91.0387 116.792 93.0519 90.3295 108.426Z" fill="#0C2635"></path> <defs> <linearGradient id="paint0_linear" x1="68.7503" y1="54.9897" x2="55.4773" y2="54.9897" gradientUnits="userSpaceOnUse"> <stop stop-color="#00BF95"></stop> <stop offset="1" stop-color="#3CFDBA"></stop> </linearGradient> <linearGradient id="paint1_linear" x1="54.4475" y1="70.394" x2="58.5917" y2="62.0634" gradientUnits="userSpaceOnUse"> <stop stop-color="#FF7C28"></stop> <stop offset="1" stop-color="#F7CD21"></stop> </linearGradient> <linearGradient id="paint2_linear" x1="44568" y1="12755.2" x2="18872" y2="5313.34" gradientUnits="userSpaceOnUse"> <stop stop-color="#00BF95"></stop> <stop offset="1" stop-color="#3CFDBA"></stop> </linearGradient> <linearGradient id="paint3_linear" x1="3307.65" y1="1379.29" x2="3154.3" y2="1317.09" gradientUnits="userSpaceOnUse"> <stop stop-color="#00BF95"></stop> <stop offset="1" stop-color="#3CFDBA"></stop> </linearGradient> </defs> </svg> 