<svg width="324" height="187" viewBox="0 0 324 187" fill="none" xmlns="http://www.w3.org/2000/svg">
<g clip-path="url(#clip0_137_153)">
<path fill-rule="evenodd" clip-rule="evenodd" d="M148.771 0H130.297V106.568H126.322V32.4111H103.797V90.1144H96.6607V21.1992H84.5383V90.1144H48.1637V127.587H37.467V155.14H48.1712V155.132H84.5383H96.6607H103.797H106.648H122.384H126.322H130.297V155.14H142.238H148.771H153.674H160.373H166.913V155.132H174.442H202.617V155.14H216.489V155.133H228.672V155.14H237.928H247.176H252.2H258.793H266.623H273.246H279.862V130.854H273.246V96.3776H252.2V122.856H247.176V68.0891H228.672V104.976H216.489V84.5276H202.617V111.772H193.881V42.6392H162.976V130.854H160.373V78.1745H148.771V0Z" fill="#E9E9E9"/>
<path fill-rule="evenodd" clip-rule="evenodd" d="M153.569 42.8118H139.214V90.6628H130.772V50.0436H104.106V84.137H76.9195V153.638H77.523V155.14H104.106H108.768H127.393H130.772H179.36H191.362H196.642H209.308H240.553H254.908V88.7254H240.553V110.999H202.979V127.595H196.642V90.6628H170.315V64.3719H153.569V42.8118ZM52.6295 112.02H62.7679V155.14H52.6295V112.02ZM254.908 127.475H288.688V155.132H254.908V127.475Z" fill="#D3D3D3"/>
<path d="M196.506 186.995C227.544 186.995 252.705 184.642 252.705 181.739C252.705 178.835 227.544 176.482 196.506 176.482C165.468 176.482 140.307 178.835 140.307 181.739C140.307 184.642 165.468 186.995 196.506 186.995Z" fill="#E9E9E9"/>
<path d="M196.506 186.245C223.378 186.245 245.162 184.395 245.162 182.114C245.162 179.833 223.378 177.984 196.506 177.984C169.635 177.984 147.851 179.833 147.851 182.114C147.851 184.395 169.635 186.245 196.506 186.245Z" fill="#C5C5C5"/>
<path d="M62.7001 55.5706C61.4823 55.5706 60.2765 55.8096 59.1516 56.274C58.0267 56.7383 57.0049 57.419 56.1445 58.2769C55.2841 59.1348 54.6021 60.1532 54.1375 61.2737C53.6728 62.3943 53.4347 63.5951 53.4367 64.8074C53.4367 69.8989 62.7001 80.7052 62.7001 80.7052C62.7001 80.7052 71.971 69.8989 71.971 64.8074C71.973 63.5945 71.7346 62.3931 71.2695 61.272C70.8044 60.1509 70.1217 59.1322 69.2605 58.2742C68.3993 57.4162 67.3766 56.7357 66.2508 56.2718C65.1251 55.8079 63.9184 55.5696 62.7001 55.5706ZM62.7001 69.9289C61.6802 69.923 60.685 69.6163 59.8402 69.0476C58.9953 68.479 58.3387 67.6738 57.9532 66.7338C57.5678 65.7939 57.4708 64.7613 57.6745 63.7665C57.8782 62.7716 58.3735 61.8592 59.0978 61.1445C59.8221 60.4297 60.7429 59.9447 61.7439 59.7506C62.745 59.5565 63.7814 59.6621 64.7222 60.0541C65.6629 60.446 66.466 61.1067 67.0298 61.9527C67.5936 62.7987 67.8929 63.7921 67.89 64.8074C67.889 65.4838 67.7538 66.1534 67.4922 66.7777C67.2305 67.402 66.8476 67.9687 66.3654 68.4453C65.8832 68.9219 65.3111 69.2989 64.6821 69.5548C64.0531 69.8107 63.3795 69.9404 62.7001 69.9365V69.9289Z" fill="#E3E3E3"/>
<path d="M168.663 166.712C169.04 166.757 169.523 167.08 167.049 167.741C153.78 171.285 118.092 179.591 104.498 182.625C87.9556 186.312 76.1048 186.665 62.4436 186.665C48.7823 186.665 7.83633 183 1.62804 181.956C-4.58024 180.913 7.84387 177.105 24.0473 174.59C41.1936 171.931 112.223 162.529 112.223 162.529C112.223 162.529 166.528 166.472 168.663 166.712Z" fill="#E9E9E9"/>
<path d="M162.847 166.404C163.164 166.442 163.602 166.712 161.497 167.268C150.363 170.272 120.408 177.211 109.002 179.756C95.1143 182.85 85.172 183.143 73.7059 183.143C62.2398 183.143 25.5483 180.567 20.3358 179.689C15.1232 178.81 27.7736 174.297 41.4575 173.013C55.1414 171.729 115.459 162.89 115.459 162.89C115.459 162.89 161.059 166.187 162.847 166.404Z" fill="#C5C5C5"/>
<path d="M30.8364 175.897C37.0356 175.897 42.0611 169.061 42.0611 160.629C42.0611 152.198 37.0356 145.362 30.8364 145.362C24.6372 145.362 19.6117 152.198 19.6117 160.629C19.6117 169.061 24.6372 175.897 30.8364 175.897Z" fill="#0C2635"/>
<path d="M30.7231 145.362H37.4595L36.69 176.384L30.7231 175.904V145.362Z" fill="#0C2635"/>
<path d="M36.8636 176.377C42.8337 176.377 47.6734 169.458 47.6734 160.922C47.6734 152.387 42.8337 145.468 36.8636 145.468C30.8935 145.468 26.0538 152.387 26.0538 160.922C26.0538 169.458 30.8935 176.377 36.8636 176.377Z" fill="#0C2635"/>
<path d="M37.5576 172.757C41.9571 172.757 45.5235 167.459 45.5235 160.922C45.5235 154.386 41.9571 149.087 37.5576 149.087C33.1582 149.087 29.5917 154.386 29.5917 160.922C29.5917 167.459 33.1582 172.757 37.5576 172.757Z" fill="#F0F2F8"/>
<path d="M37.731 171.578C41.6014 171.578 44.7389 166.807 44.7389 160.922C44.7389 155.037 41.6014 150.266 37.731 150.266C33.8607 150.266 30.7231 155.037 30.7231 160.922C30.7231 166.807 33.8607 171.578 37.731 171.578Z" fill="#0C2635"/>
<path d="M38.6967 149.463L37.8895 159.097L44.4901 155.605L45.0408 157.648L38.1611 161.32L43.6 167.869L42.6721 169.663L36.9919 162.92L33.9518 171.188L32.6242 169.701L35.536 161.298L29.8784 158.917L30.3008 156.499L35.8302 158.94L36.6147 149.335L38.6967 149.463Z" fill="#F0F2F8"/>
<path d="M36.8938 164.347C38.1645 164.347 39.1946 162.814 39.1946 160.922C39.1946 159.031 38.1645 157.498 36.8938 157.498C35.6231 157.498 34.593 159.031 34.593 160.922C34.593 162.814 35.6231 164.347 36.8938 164.347Z" fill="#A6B3C6"/>
<path d="M36.4638 162.552C37.0721 162.552 37.5653 161.822 37.5653 160.922C37.5653 160.022 37.0721 159.293 36.4638 159.293C35.8556 159.293 35.3625 160.022 35.3625 160.922C35.3625 161.822 35.8556 162.552 36.4638 162.552Z" fill="#F0F2F8"/>
<path d="M38.84 122.451C39.8509 123.089 39.7603 125.507 40.4468 126.911C40.4468 126.911 41.616 127.798 41.1408 128.466C41.02 128.662 40.8444 128.819 40.6354 128.918C40.4265 129.017 40.1932 129.053 39.964 129.022C39.5123 128.807 39.1229 128.481 38.8325 128.075C37.5225 127.877 36.2308 127.573 34.9702 127.167C33.3484 126.619 32.5638 123.412 33.1447 121.955C33.6275 120.761 37.2936 121.475 38.84 122.451Z" fill="url(#paint0_linear_137_153)"/>
<path d="M156.956 154.269L142.985 160.952L110.978 167.005L88.28 166.254L51.6262 164.459L62.3002 137.049L155.5 139.452C155.822 141.639 156.26 143.807 156.812 145.948C157.733 149.44 156.956 154.269 156.956 154.269Z" fill="#151717"/>
<path d="M93.8546 179.403C97.9916 179.403 101.345 171.906 101.345 162.657C101.345 153.408 97.9916 145.911 93.8546 145.911C89.7176 145.911 86.3639 153.408 86.3639 162.657C86.3639 171.906 89.7176 179.403 93.8546 179.403Z" fill="#0C2635"/>
<path d="M93.8546 145.911H103.261L103.435 179.816L93.8546 179.403V145.911Z" fill="#0C2635"/>
<path d="M103.435 179.816C107.73 179.816 111.212 172.228 111.212 162.867C111.212 153.507 107.73 145.918 103.435 145.918C99.1395 145.918 95.6575 153.507 95.6575 162.867C95.6575 172.228 99.1395 179.816 103.435 179.816Z" fill="#0C2635"/>
<path d="M103.94 175.844C107.107 175.844 109.673 170.034 109.673 162.867C109.673 155.701 107.107 149.891 103.94 149.891C100.774 149.891 98.2072 155.701 98.2072 162.867C98.2072 170.034 100.774 175.844 103.94 175.844Z" fill="#D0D2D3"/>
<path d="M104.061 174.552C106.848 174.552 109.108 169.321 109.108 162.867C109.108 156.414 106.848 151.182 104.061 151.182C101.274 151.182 99.0143 156.414 99.0143 162.867C99.0143 169.321 101.274 174.552 104.061 174.552Z" fill="#D0D2D3"/>
<path d="M104.755 150.296L103.737 160.87L108.926 157.04L109.319 159.278L103.94 163.303L108.285 170.49L107.614 172.457L103.103 165.06L101.338 174.124L100.387 172.495L102.047 163.28L98.4109 160.667L98.7126 158.024L102.258 160.697L103.261 150.161L104.755 150.296Z" fill="#D0D2D3"/>
<path d="M103.095 166.622C104.012 166.622 104.755 164.941 104.755 162.867C104.755 160.793 104.012 159.112 103.095 159.112C102.179 159.112 101.436 160.793 101.436 162.867C101.436 164.941 102.179 166.622 103.095 166.622Z" fill="#A6B3C6"/>
<path d="M102.469 164.655C102.907 164.655 103.261 163.855 103.261 162.867C103.261 161.88 102.907 161.08 102.469 161.08C102.032 161.08 101.677 161.88 101.677 162.867C101.677 163.855 102.032 164.655 102.469 164.655Z" fill="#F0F2F8"/>
<path d="M145.128 168.853C147.94 168.853 150.219 163.154 150.219 156.124C150.219 149.094 147.94 143.395 145.128 143.395C142.315 143.395 140.036 149.094 140.036 156.124C140.036 163.154 142.315 168.853 145.128 168.853Z" fill="#0C2635"/>
<path d="M145.12 143.395H151.525L151.645 169.168L145.12 168.852V143.395Z" fill="#0C2635"/>
<path d="M151.645 169.168C154.566 169.168 156.933 163.398 156.933 156.281C156.933 149.164 154.566 143.395 151.645 143.395C148.725 143.395 146.357 149.164 146.357 156.281C146.357 163.398 148.725 169.168 151.645 169.168Z" fill="#0C2635"/>
<path d="M151.985 166.149C154.139 166.149 155.885 161.731 155.885 156.281C155.885 150.832 154.139 146.414 151.985 146.414C149.831 146.414 148.085 150.832 148.085 156.281C148.085 161.731 149.831 166.149 151.985 166.149Z" fill="#D0D2D3"/>
<path d="M152.068 165.165C153.963 165.165 155.5 161.188 155.5 156.281C155.5 151.375 153.963 147.398 152.068 147.398C150.172 147.398 148.635 151.375 148.635 156.281C148.635 161.188 150.172 165.165 152.068 165.165Z" fill="#D0D2D3"/>
<path d="M152.543 146.729L151.849 154.764L155.379 151.851L155.651 153.555L151.985 156.612L154.942 162.079L154.489 163.573L151.411 157.956L150.22 164.842L149.571 163.603L150.702 156.597L148.228 154.607L148.432 152.602L150.846 154.629L151.525 146.624L152.543 146.729Z" fill="#D0D2D3"/>
<path d="M151.411 159.135C152.036 159.135 152.543 157.857 152.543 156.281C152.543 154.705 152.036 153.428 151.411 153.428C150.786 153.428 150.28 154.705 150.28 156.281C150.28 157.857 150.786 159.135 151.411 159.135Z" fill="#A6B3C6"/>
<path d="M150.989 157.641C151.285 157.641 151.525 157.032 151.525 156.281C151.525 155.531 151.285 154.922 150.989 154.922C150.693 154.922 150.453 155.531 150.453 156.281C150.453 157.032 150.693 157.641 150.989 157.641Z" fill="#F0F2F8"/>
<path d="M156.956 154.269V151.265C156.956 151.265 156.677 140.188 152.143 140.429C148.417 140.624 146.863 145.212 145.701 150.281C144.735 154.547 144.087 160.975 141.733 161.335C136.664 162.086 130.546 163.153 125.288 163.949C120.031 164.745 111.665 166.952 111.665 166.952C112.419 158.136 110.91 140.316 103.239 140.669C96.1705 141.029 93.6585 154.186 92.361 169.085C90.7844 169.971 76.5876 170.722 70.1077 170.722C63.1979 170.722 30.2933 169.656 26.1972 169.16C22.101 168.665 19.1666 168.447 17.145 163.986C13.7655 156.664 14.0521 149.913 14.6707 147.3C15.7947 142.516 17.0243 133.978 34.6685 127.392C35.2644 127.174 38.3271 127.347 38.9833 127.197C52.2146 115.181 66.7207 105.877 78.6319 104.27C90.2338 102.701 109.04 101.92 122.988 101.341C132.394 100.951 141.688 106.027 149.624 115.392C152.415 117.584 154.451 119.049 154.451 119.049C154.451 119.049 158.102 134.489 158.766 135.66C159.581 137.245 158.638 152.564 156.956 154.269Z" fill="url(#paint1_linear_137_153)"/>
<mask id="mask0_137_153" style="mask-type:luminance" maskUnits="userSpaceOnUse" x="13" y="101" width="146" height="71">
<path d="M156.669 154.664V151.66C156.669 151.66 156.389 140.583 151.856 140.824C148.129 141.019 146.575 145.607 145.414 150.676C144.448 154.942 143.799 161.37 141.446 161.73C136.377 162.481 130.259 163.547 125.001 164.343C119.743 165.14 111.377 167.347 111.377 167.347C112.132 158.531 110.623 140.711 102.951 141.064C95.8832 141.424 93.3712 154.581 92.0737 169.48C90.4972 170.366 76.3003 171.117 69.8205 171.117C62.9106 171.117 30.006 170.051 25.9099 169.555C21.8138 169.059 18.8794 168.842 16.8577 164.381C13.4782 157.059 13.7649 150.308 14.3835 147.695C15.5074 142.911 16.737 134.373 34.3812 127.787C34.9771 127.569 38.0398 127.742 38.6961 127.592C51.9273 115.576 66.4334 106.272 78.3446 104.665C89.9465 103.096 108.752 102.315 122.7 101.736C132.107 101.346 141.401 106.422 149.336 115.787C152.127 117.979 154.164 119.444 154.164 119.444C154.164 119.444 157.815 134.883 158.479 136.055C159.294 137.639 158.351 152.959 156.669 154.664Z" fill="url(#paint2_linear_137_153)"/>
</mask>
<g mask="url(#mask0_137_153)">
<path opacity="0.2" d="M31.3261 126.803C14.4664 131.684 24.7406 136.498 36.2294 136.949C58.4072 137.82 95.7248 126.022 95.7248 126.022L31.3261 126.803Z" fill="url(#paint3_linear_137_153)"/>
<path opacity="0.15" d="M91.2139 172.762C91.2139 172.762 90.9197 158.126 93.6655 149.249C95.7023 142.663 98.7347 138.398 103.661 138.323C109.741 138.225 114.734 153.447 111.302 167.693C110.186 172.326 91.2139 172.762 91.2139 172.762Z" fill="url(#paint4_linear_137_153)"/>
<path opacity="0.15" d="M142.623 163.465C142.623 163.465 143.55 151.517 145.225 146.411C146.696 141.905 149.133 138.901 152.346 138.856C156.306 138.788 158.622 149.97 156.389 160.176C155.665 163.495 142.623 163.465 142.623 163.465Z" fill="url(#paint5_linear_137_153)"/>
<path opacity="0.2" d="M101.548 126.999L146.56 117.852L149.502 116.02L154.353 119.384C154.006 120.015 151.592 121.787 150.015 122.237C140.02 125.091 117.141 128.583 108.85 129.747L106.927 127.81L104.121 128.14L106.18 130.108C98.1916 131.129 88.7698 131.594 101.548 126.999Z" fill="url(#paint6_linear_137_153)"/>
</g>
<path opacity="0.2" d="M129.535 157.415C123.033 158.519 113.966 160.344 115.904 161.035C117.843 161.726 125.748 159.909 130.901 158.85C143.197 156.304 148.914 154.134 129.535 157.415Z" fill="white"/>
<path d="M90.7165 171.759C91.176 171.486 91.5657 171.11 91.855 170.662C92.1442 170.214 92.3252 169.705 92.3836 169.175C92.3836 169.175 77.093 171.045 75.7427 170.167C71.4505 167.366 65.476 161.981 55.232 161.651C50.0421 161.486 22.4933 160.479 19.2571 160.622C16.021 160.765 19.325 171.293 22.4179 171.676C30.1801 172.63 57.6082 173.929 64.4652 173.726C71.3222 173.523 90.7165 171.759 90.7165 171.759Z" fill="#0C2635"/>
<path fill-rule="evenodd" clip-rule="evenodd" d="M149.42 124.17L145.527 125.259L145.769 124.261L149.669 123.172L149.42 124.17Z" fill="#0C2635"/>
<path fill-rule="evenodd" clip-rule="evenodd" d="M149.39 124.005L145.49 125.102L145.739 124.095L149.631 123.007L149.39 124.005Z" fill="#F0F2F8"/>
<path fill-rule="evenodd" clip-rule="evenodd" d="M132.832 128.293L127.423 129.292L127.793 128.173L133.201 127.174L132.832 128.293Z" fill="#0C2635"/>
<path fill-rule="evenodd" clip-rule="evenodd" d="M132.809 128.106L127.4 129.105L127.77 127.986L133.179 126.987L132.809 128.106Z" fill="#F0F2F8"/>
<path opacity="0.15" d="M111.574 137.898C113.309 145.34 114.358 158.835 117.081 158.474C120.393 158.039 137.101 154.93 139.259 154.344C141.416 153.758 144.102 142.659 145.897 138.123C147.564 133.925 153.35 124.756 157.069 146.707C157.529 149.41 157.695 141.165 157.461 138.221C156.971 131.973 155.274 129.142 138.603 130.711C132.545 131.23 110.563 133.565 111.574 137.898Z" fill="#610024"/>
<path opacity="0.15" d="M91.3275 144.011C92.7005 141.007 88.4836 141.067 78.7601 147.826C72.7932 151.971 65.8457 156.469 69.3157 159.278C72.1068 161.531 77.6965 164.7 81.6719 164.534C85.6473 164.369 86.2357 162.282 86.643 160.434C87.156 158.061 89.9546 146.985 91.3275 144.011Z" fill="#610024"/>
<path opacity="0.15" d="M25.043 144.814C30.0292 144.664 39.8433 144.927 45.7272 145.025C53.2254 145.152 59.0792 147.18 64.3521 151.648C66.9998 153.901 56.4163 155.35 45.1916 155.403C37.8971 155.403 29.1693 155.185 24.1679 154.892C19.1666 154.599 13.4864 154.892 14.6632 151.963C15.4842 149.88 16.91 148.087 18.7587 146.814C20.6074 145.541 22.7952 144.845 25.043 144.814Z" fill="#610024"/>
<path d="M36.5619 127.482C50.8945 127.723 85.2777 126.799 96.0121 125.627C102.801 114.896 110.224 103.038 122.965 101.431C104.34 101.724 88.2649 102.588 78.4584 103.624C68.7575 104.653 50.2307 114.896 36.5619 127.482Z" fill="#0C2635"/>
<path d="M37.0001 128.352C65.0001 109.127 100.436 107.549 112 105.206C93.3752 105.498 82.3518 106.261 72.5001 107.2C63.5001 108.058 52.5001 115.178 37.0001 128.352Z" fill="#6C8094"/>
<path d="M66.5001 107.36C78.0001 104.71 102 103.65 116 103.65L124.5 101C111 101.353 85.9001 102.59 85.5001 102.59C85.0001 102.59 74.0001 103.12 66.5001 107.36Z" fill="#0F6EFF"/>
<path d="M144.185 157.926C144.185 157.926 136.008 159.826 128.457 161.388C121.396 162.852 117.677 163.874 111.816 165.338C111.575 165.853 111.306 166.355 111.008 166.84L110.888 167.463C110.888 167.463 126.103 164.159 130.81 163.491C139.727 162.221 142.239 162.056 142.94 161.343C143.642 160.629 144.185 157.926 144.185 157.926Z" fill="#0C2635"/>
<path d="M101.836 126.603C117.235 125.071 132.516 122.53 147.579 118.996C148.779 118.658 148.831 117.975 149.322 115.925C141.967 107.146 130.72 103.482 125.228 104.067C109.922 105.697 101.836 126.603 101.836 126.603Z" fill="#0C2635"/>
<mask id="mask1_137_153" style="mask-type:luminance" maskUnits="userSpaceOnUse" x="101" y="104" width="49" height="23">
<path d="M101.836 126.603C117.235 125.071 132.516 122.53 147.579 118.996C148.779 118.658 148.831 117.975 149.322 115.925C141.967 107.146 130.72 103.482 125.228 104.067C109.922 105.697 101.836 126.603 101.836 126.603Z" fill="#0C2635"/>
</mask>
<g mask="url(#mask1_137_153)">
<path d="M101.999 125.312C101.999 125.312 112.793 112.042 128.559 111.652C140.908 111.344 149.123 115.181 149.123 115.181C149.123 115.181 148.459 100.718 133.757 100.718C119.054 100.718 108.667 104.037 106.117 108.716C103.568 113.394 101.999 125.312 101.999 125.312Z" fill="#6C8094"/>
</g>
<path d="M126.42 104.007C126.017 104.006 125.614 104.026 125.213 104.067C109.922 105.697 101.828 126.596 101.828 126.596C117.227 125.064 132.508 122.523 147.572 118.989C148.771 118.651 148.824 117.968 149.314 115.917C142.457 107.74 132.228 104.007 126.42 104.007ZM147.609 117.652C147.564 117.735 147.534 117.787 147.24 117.87C145.829 118.268 139.372 119.74 130.825 121.309C123.832 122.594 113.641 124.313 103.669 125.259C105.078 122.236 106.768 119.35 108.715 116.638C110.695 113.83 113.082 111.33 115.799 109.219C118.546 107.05 121.839 105.674 125.318 105.239C125.677 105.202 126.037 105.185 126.397 105.186C129.369 105.186 133.186 106.2 136.958 107.965C141.173 109.937 144.936 112.748 148.017 116.225C147.931 116.714 147.795 117.192 147.609 117.652Z" fill="#0C2635"/>
<path d="M125.999 102.712L130.999 122.657" stroke="#0F6EFF" stroke-width="2" stroke-linejoin="round"/>
<g opacity="0.5">
<path opacity="0.5" d="M126.465 104.067L130.991 122.473L134.19 125.335C134.703 136.456 134.665 147.773 133.088 155.223C132.726 156.95 134.559 158.226 134.559 158.226C134.559 158.226 134.416 162.469 131.617 163.273" stroke="#404041" stroke-width="0.53" stroke-linejoin="round"/>
<path opacity="0.5" d="M145.082 111.765L147.564 118.996L150.287 121.85C150.287 121.85 150.687 128.999 150.401 131.109C150.114 133.219 150.959 134.864 151.102 136.111C151.304 137.604 151.337 139.116 151.2 140.616" stroke="#404041" stroke-width="0.53" stroke-linejoin="round"/>
<path opacity="0.5" d="M105.985 126.16L109.115 129.352C112.94 139.67 114.396 155.523 114.924 158.384C115.113 159.483 115.459 160.55 115.949 161.553C115.949 161.553 116.357 165.676 113.686 166.892" stroke="#404041" stroke-width="0.53" stroke-linejoin="round"/>
<path opacity="0.5" d="M83.2861 131.943C83.2861 131.943 95.8686 128.068 101.821 126.603" stroke="#404041" stroke-width="0.53" stroke-linejoin="round"/>
<path opacity="0.5" d="M96.0045 125.635C96.6943 126.175 97.1786 126.932 97.3774 127.783" stroke="#404041" stroke-width="0.53" stroke-linejoin="round"/>
<path opacity="0.5" d="M59.6827 141.473C59.6827 141.473 41.7216 142.306 35.3474 142.223C28.9732 142.141 20.2604 141.285 20.2604 141.285" stroke="#404041" stroke-width="0.53" stroke-linejoin="round"/>
<path opacity="0.5" d="M81.9283 137.237C81.9283 137.237 88.4081 137.012 92.0365 138.739C93.8516 139.584 95.5669 140.627 97.151 141.848L98.6597 143.35" stroke="#404041" stroke-width="0.53" stroke-linejoin="round"/>
</g>
<path d="M109.839 121.58C108.285 122.271 106.497 124.583 105.449 126.085C105.449 126.085 103.661 127.039 104.385 127.767C104.62 127.998 104.904 128.172 105.217 128.276C105.529 128.38 105.862 128.412 106.188 128.368C106.836 128.162 107.429 127.813 107.923 127.347C109.912 127.135 111.887 126.807 113.837 126.363C116.319 125.77 117.443 122.331 117.428 120.611C117.413 119.402 112.208 120.528 109.839 121.58Z" fill="url(#paint7_linear_137_153)"/>
<path d="M59.6827 141.472C59.3582 141.494 59.0362 141.404 58.7705 141.217C58.5049 141.031 58.3117 140.759 58.2233 140.448C58.1349 140.136 58.1567 139.804 58.285 139.506C58.4134 139.209 58.6405 138.965 58.9283 138.814C60.9228 137.796 63.0254 137.002 65.1969 136.449C70.1455 135.172 78.6696 133.069 83.2485 131.943C83.53 131.871 83.8269 131.887 84.099 131.988C84.3711 132.09 84.6053 132.272 84.7699 132.511C84.9345 132.749 85.0217 133.032 85.0194 133.321C85.017 133.611 84.9256 133.892 84.7572 134.128C83.7213 135.632 82.3967 136.917 80.8601 137.909C79.3234 138.902 77.6047 139.582 75.8031 139.91C70.464 140.738 65.0817 141.259 59.6827 141.472Z" fill="#FFFDEB"/>
<path d="M22.1389 139.678C22.1573 139.917 22.1193 140.157 22.028 140.379C21.9366 140.601 21.7944 140.799 21.6126 140.956C21.4309 141.114 21.2147 141.227 20.9812 141.287C20.7478 141.346 20.5036 141.351 20.2681 141.3C19.0234 141.029 17.7259 140.444 17.8768 139.197C18.171 136.854 22.2897 134.218 22.2897 134.218C22.0622 136.029 22.0117 137.857 22.1389 139.678Z" fill="#FFFDEB"/>
<path d="M323.735 163.073H323.222L323.516 162.957H323.999L323.735 163.073Z" fill="#D4F0F3"/>
<path d="M323.229 163.298H322.663L323.018 163.153H323.554L323.229 163.298Z" fill="#D4F0F3"/>
<path d="M322.611 163.566H321.992L322.422 163.393H323.003L322.611 163.566Z" fill="#D4F0F3"/>
<path d="M321.856 163.898H321.155L321.69 163.678H322.339L321.856 163.898Z" fill="#D4F0F3"/>
<path d="M320.883 164.319H320.091L320.778 164.046H321.509L320.883 164.319Z" fill="#D4F0F3"/>
<path d="M319.608 164.873H318.696L319.608 164.512H320.438L319.608 164.873Z" fill="#D4F0F3"/>
<path d="M166.242 15.522H229.434C232.804 15.524 236.036 16.8577 238.419 19.2303C240.803 21.6029 242.142 24.8203 242.144 28.1756V171.293C242.148 172.958 241.822 174.608 241.185 176.147C240.548 177.687 239.611 179.086 238.43 180.265C237.249 181.444 235.845 182.379 234.3 183.018C232.755 183.656 231.099 183.984 229.426 183.984H166.242C162.869 183.984 159.634 182.65 157.249 180.276C154.864 177.901 153.524 174.681 153.524 171.323V28.1756C153.524 26.5133 153.853 24.8672 154.492 23.3315C155.131 21.7958 156.068 20.4006 157.249 19.2255C158.43 18.0504 159.832 17.1185 161.375 16.483C162.918 15.8476 164.572 15.521 166.242 15.522Z" fill="#333333"/>
<path d="M195.375 27.7853C195.375 27.7853 167.358 52.9423 158.208 60.3242V29.1821C158.208 28.0391 158.434 26.9073 158.874 25.8514C159.313 24.7954 159.957 23.8359 160.769 23.0277C161.581 22.2195 162.544 21.5784 163.605 21.141C164.666 20.7036 165.803 20.4785 166.951 20.4785H183.622L195.375 27.7853Z" fill="#B7EAD1"/>
<path d="M237.467 29.1819V170.054C237.459 172.358 236.534 174.566 234.893 176.191C233.253 177.817 231.032 178.729 228.717 178.727H166.951C165.803 178.727 164.666 178.502 163.605 178.065C162.544 177.628 161.581 176.986 160.769 176.178C159.957 175.37 159.313 174.411 158.874 173.355C158.434 172.299 158.208 171.167 158.208 170.024V60.3241C167.358 52.9422 195.375 27.7852 195.375 27.7852L183.622 20.4708H228.717C230.543 20.4673 232.325 21.0322 233.813 22.0865C235.301 23.1408 236.42 24.6318 237.015 26.3508C237.32 27.2636 237.473 28.22 237.467 29.1819Z" fill="#E6E7E8"/>
<path d="M179.986 151.693L158.676 172.908C159.27 174.627 160.39 176.118 161.878 177.172C163.366 178.226 165.147 178.791 166.974 178.788H173.65L190.434 162.071L207.21 178.727H210.846L212.182 177.391L193.579 158.865L210.605 141.931L237.467 168.68V147.938L221.023 131.567L237.452 115.204V99.9597L207.361 69.989L209.179 68.1792C214.256 63.1527 218.281 57.1736 221.021 50.5879C223.761 44.0023 225.161 36.941 225.141 29.8129V20.4785H210.394V29.8129C210.413 35.0164 209.394 40.1718 207.396 44.9802C205.398 49.7885 202.46 54.1541 198.754 57.8235L196.929 59.6409L180.099 42.8495L195.563 27.4624L188.548 20.4785H182.226L189.242 27.4624L176.938 39.703L175.362 38.1335L158.208 55.2102V67.7962L175.362 50.7195L190.607 65.9038L175.626 80.8178C172.129 84.3053 170.165 89.0317 170.165 93.9595C170.165 98.8874 172.129 103.614 175.626 107.101L179.601 111.059L162.576 128.038L158.208 123.69V129.983L179.986 151.693ZM183.147 148.547L200.172 131.597L182.762 114.265L165.736 131.214L183.147 148.547ZM186.059 96.7756L210.605 121.212L228.37 103.527L201.04 76.3121L186.059 91.2261C185.329 91.9612 184.92 92.9527 184.92 93.9858C184.92 95.019 185.329 96.0105 186.059 96.7456V96.7756Z" fill="white"/>
<path d="M213.547 17.5499H182.128C180.654 17.5499 179.458 18.7384 179.458 20.2044C179.458 21.6704 180.654 22.8589 182.128 22.8589H213.547C215.022 22.8589 216.217 21.6704 216.217 20.2044C216.217 18.7384 215.022 17.5499 213.547 17.5499Z" fill="#333333"/>
<path d="M182.766 114.237L165.74 131.186L183.15 148.518L200.177 131.568L182.766 114.237Z" fill="#B7EAD1"/>
<path d="M186.059 96.7455L210.605 121.182L228.37 103.497L201.04 76.282L186.059 91.1959C185.32 91.9323 184.905 92.9303 184.905 93.9707C184.905 95.0112 185.32 96.0091 186.059 96.7455Z" fill="#E6E7E8"/>
<path d="M223.172 71.9563V71.8361C223.171 67.8923 222.236 64.0043 220.443 60.4879C218.649 56.9714 216.048 53.9255 212.85 51.5974C209.652 49.2694 205.948 47.7248 202.038 47.0891C198.129 46.4534 194.123 46.7445 190.348 47.9387C186.572 49.133 183.133 51.1967 180.308 53.9624C177.484 56.7281 175.355 60.1178 174.094 63.8563C172.832 67.5948 172.474 71.5768 173.048 75.4789C173.622 79.381 175.113 83.0934 177.399 86.3145C181.962 92.7277 193.029 103.158 197.977 113.477H198.098C203.039 103.158 214.113 92.7277 218.677 86.3145C221.547 82.2893 223.125 77.4928 223.203 72.557V71.9487L223.172 71.9563Z" fill="black"/>
<path d="M219.13 71.5749C218.636 71.1404 217.818 71.1404 217.325 71.5749L216.542 72.2643V71.5C216.542 63.2283 208.897 56.5 199.5 56.5C194.307 56.5 189.455 58.5529 186.203 62.1194C185.761 62.5989 185.846 63.3182 186.408 63.7078C186.952 64.0824 187.753 64.0075 188.195 63.528C190.97 60.486 195.09 58.7477 199.5 58.7477C207.484 58.7477 213.988 64.4721 213.988 71.5V72.2493L213.205 71.56C212.711 71.1254 211.894 71.1254 211.4 71.56C210.906 71.9945 210.906 72.7138 211.4 73.1484L214.362 75.7558C214.482 75.8607 214.618 75.9356 214.771 75.9955C214.924 76.0555 215.095 76.0855 215.265 76.0855C215.435 76.0855 215.588 76.0555 215.758 75.9955C215.912 75.9356 216.048 75.8607 216.167 75.7558L219.13 73.1484C219.623 72.7288 219.623 72.0095 219.13 71.5749Z" fill="url(#paint8_linear_137_153)"/>
<path d="M212.592 79.2923C212.047 78.9026 211.23 78.9776 210.804 79.4721C208.029 82.514 203.909 84.2523 199.5 84.2523C191.515 84.2523 185.012 78.528 185.012 71.5V70.7508L185.795 71.4401C186.05 71.6649 186.374 71.7697 186.697 71.7697C187.021 71.7697 187.344 71.6499 187.583 71.4251C188.076 70.9905 188.076 70.2713 187.583 69.8367L184.637 67.2293C184.518 67.1394 184.365 67.0495 184.212 66.9895C183.905 66.8696 183.548 66.8696 183.241 66.9895C183.088 67.0495 182.952 67.1394 182.833 67.2293L179.87 69.8367C179.377 70.2713 179.377 70.9905 179.87 71.4251C180.364 71.8597 181.181 71.8597 181.675 71.4251L182.458 70.7358V71.5C182.458 79.7718 190.102 86.5 199.5 86.5C204.693 86.5 209.545 84.4471 212.796 80.8807C213.239 80.4011 213.154 79.6818 212.592 79.2923Z" fill="url(#paint9_linear_137_153)"/>
<path d="M208.264 68.9748C208.674 68.9801 209.012 68.6918 209.018 68.3307C209.024 67.9696 208.696 67.6725 208.286 67.6671L202.122 67.5864C201.712 67.5811 201.374 67.8694 201.368 68.2305C201.362 68.5916 201.69 68.8887 202.1 68.8941L208.264 68.9748Z" fill="url(#paint10_linear_137_153)"/>
<path d="M195.681 81.3084H192.888V69.2768C192.888 67.2192 193.512 65.615 194.76 64.4641C196.028 63.3133 197.702 62.7378 199.782 62.7378C202.001 62.7378 203.715 63.2958 204.923 64.4118C206.151 65.5278 206.765 66.9489 206.765 68.6752C206.765 69.7563 206.538 70.6979 206.082 71.5C205.646 72.3021 205.052 72.9211 204.299 73.3571C203.546 73.793 202.744 74.1156 201.892 74.3248C201.04 74.5341 200.149 74.6387 199.218 74.6387H196.989V72.337H199.544C200.872 72.337 201.912 71.9882 202.665 71.2908C203.437 70.5758 203.824 69.6865 203.824 68.6229C203.824 67.5766 203.467 66.7222 202.754 66.0596C202.06 65.3796 201.06 65.0395 199.752 65.0395C198.485 65.0395 197.484 65.4231 196.751 66.1904C196.038 66.9402 195.681 67.9341 195.681 69.1721V81.3084Z" fill="url(#paint11_linear_137_153)"/>
<path d="M207.669 70.9383C208.079 70.9436 208.417 70.6553 208.423 70.2942C208.429 69.9331 208.101 69.636 207.691 69.6306L201.379 69.548C200.969 69.5426 200.632 69.831 200.625 70.1921C200.619 70.5532 200.947 70.8503 201.357 70.8557L207.669 70.9383Z" fill="url(#paint12_linear_137_153)"/>
<path d="M208.412 68.9767C208.822 68.982 209.16 68.6937 209.166 68.3326C209.172 67.9715 208.844 67.6744 208.434 67.669L202.122 67.5864C201.712 67.581 201.374 67.8694 201.368 68.2305C201.362 68.5916 201.69 68.8887 202.1 68.894L208.412 68.9767Z" fill="url(#paint13_linear_137_153)"/>
</g>
<defs>
<linearGradient id="paint0_linear_137_153" x1="32.9561" y1="125.184" x2="41.2615" y2="125.184" gradientUnits="userSpaceOnUse">
<stop stop-color="#FF4883"/>
<stop offset="1" stop-color="#FF4883"/>
</linearGradient>
<linearGradient id="paint1_linear_137_153" x1="75.9987" y1="130.136" x2="86.6191" y2="170.737" gradientUnits="userSpaceOnUse">
<stop stop-color="#0F6EFF"/>
<stop offset="1" stop-color="#0F6EFF"/>
</linearGradient>
<linearGradient id="paint2_linear_137_153" x1="31558.2" y1="13808.6" x2="8374.73" y2="6681.34" gradientUnits="userSpaceOnUse">
<stop stop-color="#FF7C28"/>
<stop offset="1" stop-color="#F7CD21"/>
</linearGradient>
<linearGradient id="paint3_linear_137_153" x1="16028.2" y1="2254.57" x2="9506.79" y2="-4167.08" gradientUnits="userSpaceOnUse">
<stop stop-color="#FF7C28"/>
<stop offset="1" stop-color="#F7CD21"/>
</linearGradient>
<linearGradient id="paint4_linear_137_153" x1="4646.53" y1="7684.68" x2="958.296" y2="7349.65" gradientUnits="userSpaceOnUse">
<stop stop-color="#FF7C28"/>
<stop offset="1" stop-color="#F7CD21"/>
</linearGradient>
<linearGradient id="paint5_linear_137_153" x1="3318.16" y1="5155.44" x2="772.327" y2="4932.18" gradientUnits="userSpaceOnUse">
<stop stop-color="#FF7C28"/>
<stop offset="1" stop-color="#F7CD21"/>
</linearGradient>
<linearGradient id="paint6_linear_137_153" x1="13186.3" y1="2660.65" x2="5503.29" y2="-1869.62" gradientUnits="userSpaceOnUse">
<stop stop-color="#FF7C28"/>
<stop offset="1" stop-color="#F7CD21"/>
</linearGradient>
<linearGradient id="paint7_linear_137_153" x1="1929.93" y1="1493.1" x2="2161.47" y2="1493.1" gradientUnits="userSpaceOnUse">
<stop stop-color="#FF4883"/>
<stop offset="1" stop-color="#FF4883"/>
</linearGradient>
<linearGradient id="paint8_linear_137_153" x1="185.385" y1="62.509" x2="214.366" y2="79.9642" gradientUnits="userSpaceOnUse">
<stop stop-color="#0F6EFF"/>
<stop offset="1" stop-color="#FF4883"/>
</linearGradient>
<linearGradient id="paint9_linear_137_153" x1="185.199" y1="70.3557" x2="208.19" y2="85.6743" gradientUnits="userSpaceOnUse">
<stop stop-color="#0F6EFF"/>
<stop offset="1" stop-color="#FF4883"/>
</linearGradient>
<linearGradient id="paint10_linear_137_153" x1="205.629" y1="68.394" x2="201.655" y2="69.3067" gradientUnits="userSpaceOnUse">
<stop offset="0.0432692" stop-color="#FF4883"/>
<stop offset="1" stop-color="#0F6EFF"/>
</linearGradient>
<linearGradient id="paint11_linear_137_153" x1="206.765" y1="72.0231" x2="192.888" y2="72.0231" gradientUnits="userSpaceOnUse">
<stop stop-color="#FF4883"/>
<stop offset="0.956731" stop-color="#0F6EFF"/>
</linearGradient>
<linearGradient id="paint12_linear_137_153" x1="208.415" y1="70.1922" x2="200.614" y2="70.1922" gradientUnits="userSpaceOnUse">
<stop stop-color="#FF4883"/>
<stop offset="0.32771" stop-color="#F24A8A"/>
<stop offset="0.473684" stop-color="#D84F97"/>
<stop offset="0.956731" stop-color="#8E5ABD"/>
</linearGradient>
<linearGradient id="paint13_linear_137_153" x1="209.158" y1="68.2306" x2="201.357" y2="68.2306" gradientUnits="userSpaceOnUse">
<stop stop-color="#FF4883"/>
<stop offset="0.364974" stop-color="#F24A8A"/>
<stop offset="0.552885" stop-color="#D84F97"/>
<stop offset="0.956731" stop-color="#8E5ABD"/>
</linearGradient>
<clipPath id="clip0_137_153">
<rect width="324" height="187" fill="white"/>
</clipPath>
</defs>
</svg>
