<svg width="194" height="171" viewBox="0 0 194 171" fill="none" xmlns="http://www.w3.org/2000/svg">
<g clip-path="url(#clip0_137_110)">
<path d="M49.4265 32.3008V31.3846C43.1848 29.4377 33.7748 29.4377 27.5331 31.3846V32.2944L49.4265 32.3008Z" fill="#595959"/>
<path d="M61.1749 46.3936C60.6489 41.8763 59.8252 39.5413 58.3424 37.658C58.0268 37.7274 57.7 37.728 57.3841 37.66C57.0682 37.592 56.7705 37.4568 56.511 37.2635L51.1755 33.3379C50.9053 33.1368 50.6788 32.8824 50.5099 32.5903C50.341 32.2982 50.2333 31.9745 50.1933 31.6391L49.4266 31.3846H27.5141L26.7411 31.6391C26.7004 31.9743 26.5924 32.2977 26.4235 32.5897C26.2547 32.8817 26.0286 33.1363 25.7589 33.3379L20.417 37.2635C20.1577 37.4571 19.86 37.5926 19.544 37.6606C19.2281 37.7287 18.9013 37.7278 18.5857 37.658C17.1092 39.5667 16.2791 41.8763 15.7532 46.3936C14.3781 58.3487 16.71 77.137 16.653 81.7688C16.3488 106.455 16.146 121.483 17.7746 126.688C18.177 127.742 18.941 128.617 19.9291 129.156C20.1958 129.036 20.4859 128.977 20.7782 128.984C22.6792 128.984 23.6044 130.257 25.7145 129.875C27.1023 129.64 27.5712 130.791 27.7359 131.606C29.0033 131.803 30.2389 131.949 31.4239 132.058C31.5225 131.918 31.6527 131.805 31.8036 131.726C31.9546 131.648 32.122 131.607 32.292 131.606H44.6297C44.7998 131.606 44.9674 131.647 45.1184 131.726C45.2695 131.804 45.3996 131.918 45.4978 132.058C46.3849 131.975 47.3101 131.873 48.2416 131.746C48.3747 130.938 48.8182 129.627 50.2884 129.875C52.3922 130.232 53.3237 128.984 55.2247 128.984C55.4565 128.974 55.688 129.011 55.9057 129.092C56.1233 129.172 56.3227 129.296 56.492 129.455C57.8228 128.73 58.7859 127.82 59.1408 126.681C60.7757 121.477 60.5666 106.449 60.2624 81.7625C60.199 77.137 62.55 58.3487 61.1749 46.3936Z" fill="#CECECE"/>
<path opacity="0.3" d="M51.017 104.088C51.017 107.404 49.7051 110.584 47.37 112.929C45.0349 115.273 41.8677 116.59 38.5653 116.59C36.9302 116.59 35.311 116.267 33.8003 115.639C32.2896 115.01 30.9169 114.089 29.7607 112.929C27.4255 110.584 26.1136 107.404 26.1136 104.088V80.2799C26.1136 76.9641 27.4255 73.7841 29.7607 71.4395C32.0958 69.0949 35.2629 67.7777 38.5653 67.7777C41.8677 67.7777 45.0349 69.0949 47.37 71.4395C49.7051 73.7841 51.017 76.9641 51.017 80.2799V104.088Z" fill="white"/>
<path d="M56.9735 58.7686C56.8278 58.4886 56.3969 58.2341 55.6428 57.9033C53.1217 56.7871 50.4929 55.9343 47.7979 55.3583C41.6372 54.1337 35.297 54.1337 29.1363 55.3583C26.4436 55.9352 23.817 56.788 21.2977 57.9033C20.5437 58.2341 20.1128 58.495 19.967 58.7686C19.9013 59.2727 19.9336 59.7847 20.0621 60.2765V60.3274L22.432 73.9176L22.7235 75.5591C25.0735 74.472 27.5726 73.745 30.1375 73.4022C35.6778 72.8256 41.2627 72.8256 46.8031 73.4022C49.3678 73.7454 51.8668 74.4725 54.2171 75.5591L54.5022 73.9176L56.8721 60.3274V60.2765C57.0027 59.7852 57.0372 59.2731 56.9735 58.7686Z" fill="#646868"/>
<path d="M53.3173 111.221C53.1969 110.629 53.0575 110.037 52.8927 109.452C52.8927 109.452 52.6836 109.56 52.2591 109.725C50.7129 110.362 46.2708 111.8 38.464 111.8C33.7831 111.865 29.1238 111.151 24.6753 109.687C24.257 109.541 24.0416 109.445 24.0416 109.445C23.8832 110.012 23.7501 110.584 23.6297 111.157C22.9303 114.753 22.7277 118.429 23.0277 122.081C25.4843 123.106 28.0446 123.859 30.6635 124.327C34.117 124.963 42.811 124.963 46.2645 124.327C48.8727 123.857 51.4223 123.104 53.8686 122.081C54.1809 118.453 53.9954 114.798 53.3173 111.221Z" fill="#646868"/>
<path d="M19.1496 89.4927L22.2673 90.5552L21.7287 76.5006L18.7568 59.8564C18.7568 59.8564 18.497 64.1256 18.7568 70.2463C18.9215 74.121 19.3904 79.4464 19.3904 82.8821C19.3651 86.1461 19.251 88.3538 19.1496 89.4927Z" fill="#646868"/>
<path d="M57.7783 89.4927L54.6606 90.5552L55.1993 76.5006L58.1775 59.8501C58.1775 59.8501 58.4373 64.1193 58.1775 70.24C58.0128 74.1147 57.5439 79.4401 57.5439 82.8758C57.5629 86.1461 57.6643 88.3857 57.7783 89.4927Z" fill="#646868"/>
<path d="M19.0609 90.7908L22.2927 92.146L22.6539 103.897C22.3187 105.244 21.8185 106.543 21.1647 107.766C20.6103 109.019 19.9037 110.199 19.0609 111.278C19.0609 111.278 18.6997 95.1936 19.0609 90.7908Z" fill="#646868"/>
<path d="M57.8734 90.7908L54.6417 92.146L54.2805 103.897C54.6127 105.244 55.1108 106.543 55.7633 107.766C56.3181 109.019 57.0247 110.198 57.8671 111.278C57.8671 111.278 58.2283 95.1936 57.8734 90.7908Z" fill="#646868"/>
<path d="M20.4169 37.2636L25.7588 33.3379C26.0285 33.1363 26.2546 32.8817 26.4235 32.5897C26.5923 32.2977 26.7003 31.9743 26.741 31.6392C25.3703 32.0845 24.0847 32.76 22.939 33.637C21.3483 34.8164 19.8868 36.1622 18.5793 37.6517C18.8954 37.7233 19.2231 37.7257 19.5402 37.6587C19.8574 37.5918 20.1564 37.457 20.4169 37.2636Z" fill="#D2D6D5"/>
<path d="M51.1755 33.3379L56.5174 37.2635C56.7769 37.4568 57.0746 37.592 57.3905 37.66C57.7063 37.7281 58.0331 37.7274 58.3487 37.658C57.0437 36.1683 55.5843 34.8225 53.9953 33.6433C52.8499 32.7659 51.5642 32.0903 50.1933 31.6455C50.2341 31.9798 50.3422 32.3022 50.511 32.5931C50.6799 32.8841 50.906 33.1375 51.1755 33.3379Z" fill="#D2D6D5"/>
<path d="M25.7081 129.882C23.6043 130.238 22.6728 128.991 20.7718 128.991C20.4795 128.984 20.1894 129.042 19.9227 129.163C21.8554 130.384 24.7703 131.141 27.7232 131.606C27.5711 130.798 27.1022 129.646 25.7081 129.882Z" fill="#93091A"/>
<path d="M50.282 129.882C48.8119 129.634 48.381 130.944 48.2352 131.752C51.2579 131.339 54.3502 130.639 56.473 129.462C56.3036 129.302 56.1042 129.179 55.8866 129.098C55.669 129.017 55.4375 128.981 55.2056 128.991C53.3173 128.991 52.3921 130.238 50.282 129.882Z" fill="#93091A"/>
<g style="mix-blend-mode:multiply">
<path d="M40.4601 128.959C51.562 128.609 56.4793 125.453 56.4793 125.453L54.2805 122.794C47.3481 126.688 38.4386 125.892 38.4386 125.892C38.4386 125.892 29.5672 126.688 22.5968 122.794L20.3979 125.453C20.3979 125.453 25.3153 128.635 36.4172 128.959C36.9939 128.959 38.407 128.991 38.407 128.991C39.2181 128.991 39.8771 128.978 40.4601 128.959Z" fill="#C2C2C2"/>
</g>
<path d="M64.2481 64.2593C63.8552 63.7248 60.2623 62.6051 60.2623 62.6051C60.1285 62.556 59.9838 62.5449 59.8441 62.5732C59.654 61.218 58.0381 60.8936 58.0381 60.8936C57.8734 61.4853 58.0001 63.4894 58.0381 65.4618C58.0381 66.887 59.0266 65.659 59.5399 64.2847L64.2418 65.4618C64.2997 65.3508 64.3444 65.2333 64.3748 65.1118C64.4194 64.9694 64.4311 64.8186 64.4092 64.6709C64.3872 64.5232 64.3321 64.3825 64.2481 64.2593Z" fill="#595959"/>
<path d="M18.8644 60.7854C18.8644 60.7854 17.1599 61.1099 16.9634 62.4524C16.8623 62.4491 16.7614 62.4642 16.6656 62.4969C16.6656 62.4969 13.0536 63.6231 12.6734 64.1511C12.5828 64.2848 12.5252 64.4381 12.5054 64.5986C12.4856 64.759 12.5041 64.9219 12.5594 65.0737C12.5889 65.1703 12.6271 65.264 12.6734 65.3536L17.2866 64.202C17.8379 65.5636 18.8454 66.747 18.8771 65.3536C18.9088 63.3813 19.0102 61.3771 18.8644 60.7854Z" fill="#595959"/>
<path d="M44.6296 131.612H32.2856C32.1156 131.613 31.9482 131.654 31.7972 131.733C31.6462 131.811 31.5161 131.925 31.4175 132.064C35.2892 132.414 38.4639 132.363 38.4639 132.363C38.4639 132.363 41.6323 132.42 45.4977 132.07C45.4002 131.93 45.2704 131.815 45.1193 131.735C44.9682 131.655 44.8003 131.613 44.6296 131.612Z" fill="#595959"/>
<path d="M147.133 131.918H143.445V22.2419H4.34698V131.918H0.658997V18.5389H147.133V131.918Z" fill="#333333"/>
<path d="M74.5833 19.5378H70.8953V131.727H74.5833V19.5378Z" fill="#333333"/>
<path d="M147 7.01648H0V10.7194H147V7.01648Z" fill="#333333"/>
<path d="M96.9838 134.011V134.94C103.32 136.919 112.889 136.919 119.232 134.94V134.011H96.9838Z" fill="#595959"/>
<path d="M108 1C91.1886 1 74.7547 5.98516 60.7766 15.3251C46.7984 24.665 35.9037 37.9402 29.4703 53.4719C23.0368 69.0036 21.3535 86.0943 24.6333 102.583C27.913 119.071 36.0085 134.217 47.896 146.104C59.7834 157.992 74.929 166.087 91.4174 169.367C107.906 172.646 124.996 170.963 140.528 164.53C156.06 158.096 169.335 147.202 178.675 133.223C188.015 119.245 193 102.811 193 86C193 63.4566 184.045 41.8365 168.104 25.8959C152.164 9.95533 130.543 1 108 1ZM108 146.379C96.0581 146.379 84.3844 142.838 74.4551 136.204C64.5258 129.569 56.7868 120.139 52.2168 109.106C47.6469 98.0733 46.4511 85.933 48.7809 74.2206C51.1106 62.5081 56.8612 51.7496 65.3054 43.3054C73.7496 34.8612 84.5082 29.1106 96.2206 26.7809C107.933 24.4511 120.073 25.6468 131.106 30.2168C142.139 34.7868 151.569 42.5257 158.204 52.455C164.838 62.3844 168.379 74.0581 168.379 86C168.379 102.014 162.018 117.371 150.695 128.695C139.371 140.018 124.014 146.379 108 146.379Z" fill="#FF4883" fill-opacity="0.2"/>
<path d="M114.473 149.53V139H101.762V149.53H94.449L101.28 158.265L108.117 167.001L114.948 158.265L121.786 149.53H114.473Z" fill="black"/>
<path d="M85.0327 124.689C85.565 129.283 86.4077 131.656 87.9095 133.596C88.2296 133.526 88.5609 133.526 88.8811 133.595C89.2014 133.664 89.5032 133.801 89.7662 133.997L95.1904 137.987C95.4644 138.191 95.6944 138.45 95.8664 138.746C96.0385 139.042 96.1491 139.37 96.1917 139.711L96.9837 139.972H119.232L120.018 139.711C120.06 139.367 120.172 139.036 120.346 138.737C120.521 138.439 120.754 138.179 121.032 137.974L126.456 133.985C126.719 133.788 127.021 133.651 127.341 133.582C127.661 133.513 127.993 133.514 128.313 133.584C129.814 131.675 130.657 129.302 131.189 124.676C132.59 112.524 130.22 93.4304 130.277 88.7285C130.587 63.6414 130.797 48.3715 129.136 43.078C128.736 41.9936 127.96 41.0903 126.95 40.533C126.68 40.6562 126.385 40.7171 126.088 40.7112C124.187 40.7112 123.211 39.4387 121.076 39.8077C119.663 40.0495 119.175 38.8788 119.023 38.0517C117.756 37.8481 116.488 37.7017 115.278 37.5936C115.178 37.7344 115.046 37.8494 114.892 37.9291C114.739 38.0087 114.57 38.0507 114.397 38.0517H101.844C101.67 38.0522 101.499 38.0109 101.345 37.9312C101.19 37.8515 101.057 37.7357 100.957 37.5936C100.057 37.6763 99.1192 37.7781 98.1687 37.9117C98.0356 38.7324 97.5857 40.0686 96.0903 39.8204C93.9484 39.4578 93.0106 40.7239 91.0716 40.7239C90.6029 40.7392 90.1473 40.5677 89.8042 40.2467C88.4545 40.9847 87.4723 41.9073 87.1111 43.0653C85.4509 48.3525 85.66 63.6287 85.9705 88.7158C86.0022 93.4367 83.6449 112.524 85.0327 124.689Z" fill="url(#paint0_linear_137_110)"/>
<g style="mix-blend-mode:screen">
<path d="M95.3552 66.0782C95.3552 62.7034 96.6904 59.4667 99.0671 57.0804C101.444 54.694 104.667 53.3533 108.029 53.3533C111.39 53.3533 114.613 54.694 116.99 57.0804C119.367 59.4667 120.702 62.7034 120.702 66.0782V90.2555C120.702 93.6303 119.367 96.867 116.99 99.2533C114.613 101.64 111.39 102.98 108.029 102.98C104.667 102.98 101.444 101.64 99.0671 99.2533C96.6904 96.867 95.3552 93.6303 95.3552 90.2555V66.0782Z" fill="#333333"/>
</g>
<path d="M89.3036 112.11C89.4557 112.39 89.8866 112.658 90.6597 112.988C93.2231 114.109 95.8943 114.961 98.6313 115.533C104.892 116.779 111.336 116.779 117.597 115.533C120.334 114.961 123.005 114.108 125.569 112.988C126.335 112.658 126.773 112.39 126.925 112.11C126.992 111.598 126.96 111.077 126.83 110.577V110.526L124.422 96.7133L124.13 95.0464C121.743 96.1566 119.203 96.9008 116.596 97.2542C110.967 97.8398 105.293 97.8398 99.6642 97.2542C97.0576 96.9044 94.518 96.1645 92.1298 95.0591L91.8383 96.7261L89.4304 110.539V110.59C89.2912 111.084 89.2482 111.6 89.3036 112.11Z" fill="black"/>
<path d="M93.0169 58.8124C93.1373 59.4104 93.2831 60.0149 93.4478 60.6066C93.4478 60.6066 93.6569 60.4984 94.0815 60.3266C95.653 59.6904 100.165 58.2143 108.098 58.2143C112.858 58.1442 117.597 58.8666 122.122 60.3521C122.546 60.5048 122.755 60.5938 122.755 60.5938C122.914 60.0149 123.053 59.4359 123.173 58.8569C123.892 55.2029 124.105 51.4669 123.807 47.7544C121.31 46.7148 118.707 45.9511 116.045 45.4767C112.534 44.8405 103.701 44.8405 100.203 45.4767C97.5427 45.9511 94.942 46.7148 92.4466 47.7544C92.1306 51.4492 92.3225 55.1701 93.0169 58.8124Z" fill="black"/>
<path d="M127.736 80.89L124.568 79.8084L125.112 94.0857L128.135 111.003C128.135 111.003 128.395 106.664 128.135 100.442C127.97 96.5098 127.501 91.0954 127.501 87.6024C127.514 84.2939 127.634 82.048 127.736 80.89Z" fill="black"/>
<path d="M88.4798 80.89L91.6482 79.8084L91.1032 94.073L88.0806 111.01C88.0806 111.01 87.8208 106.671 88.0806 100.448C88.2517 96.5162 88.7143 91.1017 88.7143 87.6088C88.7143 84.2939 88.6002 81.9844 88.4798 80.89Z" fill="black"/>
<path d="M127.831 79.573L124.542 78.1669L124.2 66.25C124.541 64.8815 125.05 63.5608 125.714 62.318C127.109 59.5313 127.85 58.7487 127.85 58.7487C127.85 58.7487 128.192 75.1002 127.831 79.573Z" fill="black"/>
<path d="M88.3848 79.5729L91.6672 78.1923L92.0347 66.2563C91.6969 64.8878 91.1902 63.5669 90.5266 62.3243C89.1262 59.5376 88.3848 58.755 88.3848 58.755C88.3848 58.755 88.0299 75.1001 88.3848 79.5729Z" fill="black"/>
<path d="M126.45 133.965L121.032 137.974C120.758 138.179 120.528 138.437 120.356 138.733C120.184 139.03 120.073 139.358 120.03 139.698C121.42 139.245 122.722 138.558 123.883 137.668C125.784 136.11 127.223 134.964 128.319 133.59C127.999 133.514 127.666 133.509 127.344 133.574C127.021 133.638 126.716 133.772 126.45 133.965Z" fill="#D2D6D5"/>
<path d="M95.1967 137.974L89.7725 133.985C89.5095 133.789 89.2077 133.651 88.8874 133.582C88.5672 133.513 88.2359 133.514 87.9158 133.584C89.0058 134.964 90.4505 136.129 92.3515 137.662C93.5142 138.553 94.8191 139.239 96.2106 139.692C96.1657 139.352 96.0527 139.024 95.8785 138.729C95.7042 138.434 95.4724 138.177 95.1967 137.974Z" fill="#D2D6D5"/>
<path d="M121.07 39.8522C123.212 39.4896 124.149 40.7557 126.082 40.7557C126.379 40.7616 126.673 40.7008 126.944 40.5775C124.979 39.3051 122.014 38.567 119.017 38.0962C119.181 38.9169 119.657 40.094 121.07 39.8522Z" fill="#93091A"/>
<path d="M96.0966 39.8522C97.5921 40.1067 98.042 38.777 98.175 37.9435C95.1081 38.3698 91.9587 39.076 89.7789 40.2658C90.1219 40.5867 90.5776 40.7583 91.0462 40.743C93.0169 40.7557 93.9548 39.4896 96.0966 39.8522Z" fill="#93091A"/>
<g style="mix-blend-mode:multiply">
<path d="M106.083 40.7876C94.8039 41.1438 89.8042 44.3505 89.8042 44.3505L92.0347 47.0546C99.0748 43.0971 108.105 43.8733 108.105 43.8733C108.105 43.8733 117.135 43.0653 124.175 47.0546L126.405 44.3505C126.405 44.3505 121.412 41.1693 110.126 40.7876C109.537 40.7876 108.105 40.7557 108.105 40.7557C107.344 40.7557 106.673 40.7621 106.083 40.7876Z" fill="#C2C2C2"/>
</g>
<path d="M81.9023 106.537C82.3015 107.078 85.9514 108.217 85.9514 108.217C86.0874 108.266 86.2343 108.277 86.376 108.248C86.5661 109.623 88.2073 109.954 88.2073 109.954C88.3721 109.356 88.2453 107.313 88.2073 105.315C88.2073 103.871 87.2061 105.118 86.6802 106.512L81.9023 105.315C81.8446 105.426 81.7999 105.544 81.7692 105.665C81.7235 105.811 81.7117 105.966 81.7348 106.117C81.7578 106.268 81.8151 106.412 81.9023 106.537Z" fill="#595959"/>
<path d="M128.002 110.062C128.002 110.062 129.738 109.737 129.954 108.369C130.057 108.373 130.16 108.358 130.258 108.325C130.258 108.325 133.908 107.186 134.307 106.645C134.399 106.509 134.458 106.352 134.478 106.188C134.497 106.024 134.478 105.858 134.421 105.704C134.391 105.607 134.353 105.513 134.307 105.424L129.618 106.594C129.06 105.214 128.034 103.986 128.002 105.424C128.002 107.434 127.85 109.464 128.002 110.062Z" fill="#595959"/>
<path d="M101.844 38.0835H114.384C114.557 38.0826 114.727 38.0405 114.88 37.9609C115.033 37.8813 115.165 37.7663 115.265 37.6254C111.33 37.2691 108.105 37.3264 108.105 37.3264C108.105 37.3264 104.886 37.2691 100.957 37.6254C101.057 37.7675 101.19 37.8833 101.345 37.9631C101.499 38.0428 101.67 38.0841 101.844 38.0835Z" fill="#595959"/>
</g>
<defs>
<linearGradient id="paint0_linear_137_110" x1="75.8507" y1="72.4025" x2="188.919" y2="128.06" gradientUnits="userSpaceOnUse">
<stop stop-color="#FF4883"/>
<stop offset="1" stop-color="#FF4883"/>
</linearGradient>
<clipPath id="clip0_137_110">
<rect width="194" height="171" fill="white"/>
</clipPath>
</defs>
</svg>
